<?xml version="1.0" encoding="UTF-8"?>
<svg version="1.1" xmlns="http://www.w3.org/2000/svg" width="144" height="144">
    <path
        d="M0 0 C0 1.32 0 2.64 0 4 C0.66 4 1.32 4 2 4 C2.99 5.485 2.99 5.485 4 7 C6.05925139 7.72382467 6.05925139 7.72382467 8 8 C8.33 9.98 8.66 11.96 9 14 C10.98 13.67 12.96 13.34 15 13 C15.33 14.98 15.66 16.96 16 19 C17.32 19.33 18.64 19.66 20 20 C20 22.31 20 24.62 20 27 C20.66 27 21.32 27 22 27 C22.2475 27.969375 22.495 28.93875 22.75 29.9375 C23.1625 30.948125 23.575 31.95875 24 33 C26.03243548 33.96877057 26.03243548 33.96877057 28 34 C27.67 34.99 27.34 35.98 27 37 C27.99 37 28.98 37 30 37 C30 37.99 30 38.98 30 40 C29.67 40.33 29.34 40.66 29 41 C32.63 40.34 36.26 39.68 40 39 C39.67 40.32 39.34 41.64 39 43 C37 44 37 44 34 44 C33.01 44.66 32.02 45.32 31 46 C30.01 46 29.02 46 28 46 C28 45.01 28 44.02 28 43 C27.01 43.495 27.01 43.495 26 44 C26 44.99 26 45.98 26 47 C24.68 46.67 23.36 46.34 22 46 C22.33 44.68 22.66 43.36 23 42 C22.34 41.67 21.68 41.34 21 41 C20.67 41.66 20.34 42.32 20 43 C19.54625 42.34 19.0925 41.68 18.625 41 C18.08875 40.34 17.5525 39.68 17 39 C16.34 39 15.68 39 15 39 C15 40.32 15 41.64 15 43 C15.66 43 16.32 43 17 43 C16.67 43.66 16.34 44.32 16 45 C13.35139573 45.59355614 10.70802678 45.74209269 8 46 C8 44.68 8 43.36 8 42 C8.99 42 9.98 42 11 42 C11.33 40.68 11.66 39.36 12 38 C10.515 37.505 10.515 37.505 9 37 C9.99 36.505 9.99 36.505 11 36 C12.485 36.495 12.485 36.495 14 37 C14 36.01 14 35.02 14 34 C14.66 34 15.32 34 16 34 C16 32.35 16 30.7 16 29 C16.99 29 17.98 29 19 29 C19 28.34 19 27.68 19 27 C18.34 27 17.68 27 17 27 C17 26.34 17 25.68 17 25 C16.01 25.66 15.02 26.32 14 27 C14 27.66 14 28.32 14 29 C11 30 11 30 8 29 C7.3125 26.9375 7.3125 26.9375 7 25 C8.32 24.67 9.64 24.34 11 24 C11 23.01 11 22.02 11 21 C10.67 21.66 10.34 22.32 10 23 C9.01 23 8.02 23 7 23 C6.67 23.66 6.34 24.32 6 25 C4.02 24.67 2.04 24.34 0 24 C0.33 23.34 0.66 22.68 1 22 C1.66 22 2.32 22 3 22 C3 21.01 3 20.02 3 19 C4.32 19 5.64 19 7 19 C6.67 16.69 6.34 14.38 6 12 C5.67 12.99 5.34 13.98 5 15 C2.03 14.67 -0.94 14.34 -4 14 C-4 15.32 -4 16.64 -4 18 C-5.32 18 -6.64 18 -8 18 C-8 15.69 -8 13.38 -8 11 C-6.35 10.67 -4.7 10.34 -3 10 C-2.67 9.01 -2.34 8.02 -2 7 C-2.66 6.01 -3.32 5.02 -4 4 C-4 3.01 -4 2.02 -4 1 C-2 0 -2 0 0 0 Z M2 10 C2 10.66 2 11.32 2 12 C2.66 11.67 3.32 11.34 4 11 C3.34 10.67 2.68 10.34 2 10 Z M20 33 C18.02 33.99 18.02 33.99 16 35 C16.66 35.66 17.32 36.32 18 37 C18.99 36.67 19.98 36.34 21 36 C20.67 35.01 20.34 34.02 20 33 Z M24 35 C25 37 25 37 25 37 Z M21 37 C21 37.66 21 38.32 21 39 C21.99 39 22.98 39 24 39 C23.67 38.34 23.34 37.68 23 37 C22.34 37 21.68 37 21 37 Z "
        fill="#FEFEFE" transform="translate(11,58)" />
    <path
        d="M0 0 C1.65 0 3.3 0 5 0 C5 0.99 5 1.98 5 3 C7.64 2.67 10.28 2.34 13 2 C13 2.66 13 3.32 13 4 C12.01 4.495 12.01 4.495 11 5 C11.99 5.66 12.98 6.32 14 7 C14 7.99 14 8.98 14 10 C11.03 9.505 11.03 9.505 8 9 C8 8.34 8 7.68 8 7 C5.02425724 6.29733387 5.02425724 6.29733387 2 6 C1.34 7.98 0.68 9.96 0 12 C-2.97 11.505 -2.97 11.505 -6 11 C-5.649375 11.7425 -5.29875 12.485 -4.9375 13.25 C-3.9416337 16.17120782 -3.93218942 17.18486301 -5 20 C-5.33 20.66 -5.66 21.32 -6 22 C-5.34 22.99 -4.68 23.98 -4 25 C-3.34 25.99 -2.68 26.98 -2 28 C-0.68 28 0.64 28 2 28 C1.67 28.99 1.34 29.98 1 31 C-0.32 30.67 -1.64 30.34 -3 30 C-3 31.32 -3 32.64 -3 34 C-3.33 34.99 -3.66 35.98 -4 37 C-4.99 36.67 -5.98 36.34 -7 36 C-7.185625 34.14375 -7.185625 34.14375 -7.375 32.25 C-7.76085328 29.07929264 -8.44002696 26.80795147 -10 24 C-10 23.01 -10 22.02 -10 21 C-11.98 21 -13.96 21 -16 21 C-15.67 20.34 -15.34 19.68 -15 19 C-14.34 19 -13.68 19 -13 19 C-13.33 17.35 -13.66 15.7 -14 14 C-13.21625 13.731875 -12.4325 13.46375 -11.625 13.1875 C-8.71885077 12.15185568 -8.71885077 12.15185568 -7 9 C-7 7.68 -7 6.36 -7 5 C-4.35261084 3.5393715 -3.10551666 3 0 3 C0 2.01 0 1.02 0 0 Z "
        fill="#FFFFFE" transform="translate(97,8)" />
    <path
        d="M0 0 C0.66 0.33 1.32 0.66 2 1 C2.76448829 5.2046856 3.28233904 8.70124042 2.375 12.875 C1.98113539 16.15720512 2.23172166 17.2955743 4 20 C3.01 20.33 2.02 20.66 1 21 C0.505 19.02 0.505 19.02 0 17 C-0.66 17 -1.32 17 -2 17 C-2.33 16.01 -2.66 15.02 -3 14 C-2.01 13.67 -1.02 13.34 0 13 C-3.10551666 13 -4.35261084 13.5393715 -7 15 C-7 14.34 -7 13.68 -7 13 C-8.32 12.67 -9.64 12.34 -11 12 C-11 11.01 -11 10.02 -11 9 C-11.66 9.66 -12.32 10.32 -13 11 C-15.125 10.625 -15.125 10.625 -17 10 C-16.67 9.34 -16.34 8.68 -16 8 C-14.68 8 -13.36 8 -12 8 C-13.32 7.67 -14.64 7.34 -16 7 C-16 6.34 -16 5.68 -16 5 C-16.928125 5.99 -16.928125 5.99 -17.875 7 C-20 9 -20 9 -22 9 C-22.33 10.32 -22.66 11.64 -23 13 C-27.455 13.495 -27.455 13.495 -32 14 C-31.34 12.68 -30.68 11.36 -30 10 C-28.35 10 -26.7 10 -25 10 C-25 8.68 -25 7.36 -25 6 C-23.5459375 5.566875 -23.5459375 5.566875 -22.0625 5.125 C-18.89335797 4.35785318 -18.89335797 4.35785318 -18 2 C-16.7625 2.37125 -16.7625 2.37125 -15.5 2.75 C-11.27836198 3.05154557 -9.45180375 1.96254687 -5.9296875 -0.1875 C-3.5084989 -1.20694783 -2.42947654 -0.88711176 0 0 Z M-4 3 C-4.28875 3.78375 -4.5775 4.5675 -4.875 5.375 C-6 8 -6 8 -8 10 C-7.01 10.495 -7.01 10.495 -6 11 C-4.35 9.68 -2.7 8.36 -1 7 C-1.33 5.68 -1.66 4.36 -2 3 C-2.66 3 -3.32 3 -4 3 Z M-10 5 C-9.67 5.66 -9.34 6.32 -9 7 C-8.67 6.34 -8.34 5.68 -8 5 C-8.66 5 -9.32 5 -10 5 Z "
        fill="#FEFEFE" transform="translate(71,115)" />
    <path
        d="M0 0 C4.75 0.875 4.75 0.875 7 2 C7 2.66 7 3.32 7 4 C6.34 4 5.68 4 5 4 C4.67 4.66 4.34 5.32 4 6 C4.763125 5.484375 5.52625 4.96875 6.3125 4.4375 C7.199375 3.963125 8.08625 3.48875 9 3 C12 4 12 4 13.5 5.5625 C15.01472806 7.34595268 15.01472806 7.34595268 18 7 C19.67099977 7.31088368 21.33871537 7.64080332 23 8 C22.67 9.98 22.34 11.96 22 14 C19.69 12.68 17.38 11.36 15 10 C14.34 11.98 13.68 13.96 13 16 C12.01 15.67 11.02 15.34 10 15 C10.33 13.35 10.66 11.7 11 10 C10.34 10 9.68 10 9 10 C8.67 10.66 8.34 11.32 8 12 C6.68 11.34 5.36 10.68 4 10 C4 9.01 4 8.02 4 7 C2.02 7.99 2.02 7.99 0 9 C0.33 10.65 0.66 12.3 1 14 C-1.64 14.33 -4.28 14.66 -7 15 C-6.67 13.68 -6.34 12.36 -6 11 C-5.01 11 -4.02 11 -3 11 C-3.71563266 8.9837767 -3.71563266 8.9837767 -5 7 C-7.05000871 6.19471111 -7.05000871 6.19471111 -9 6 C-9 5.34 -9 4.68 -9 4 C-7.88625 3.896875 -6.7725 3.79375 -5.625 3.6875 C-4.42875 3.460625 -3.2325 3.23375 -2 3 C-1.34 2.01 -0.68 1.02 0 0 Z M0 5 C1 7 1 7 1 7 Z "
        fill="#FEFFFE" transform="translate(86,118)" />
    <path
        d="M0 0 C1.70271281 2.7243405 2.18972259 5.04523601 2.5 8.1875 C2.7475 10.0746875 2.7475 10.0746875 3 12 C3.66 12.33 4.32 12.66 5 13 C5 14.65 5 16.3 5 18 C2.03 18.33 -0.94 18.66 -4 19 C-4.33 20.98 -4.66 22.96 -5 25 C-6.32 25.33 -7.64 25.66 -9 26 C-9.33 25.34 -9.66 24.68 -10 24 C-10.99 24 -11.98 24 -13 24 C-14.6875 21.5 -14.6875 21.5 -16 19 C-15.01 18.34 -14.02 17.68 -13 17 C-12.67 17.99 -12.34 18.98 -12 20 C-10.51990357 19.02223933 -9.04094856 18.0427506 -7.5625 17.0625 C-6.73878906 16.51722656 -5.91507813 15.97195312 -5.06640625 15.41015625 C-3.10014075 14.16197019 -3.10014075 14.16197019 -2 13 C-3.32 12.34 -4.64 11.68 -6 11 C-6 10.34 -6 9.68 -6 9 C-5.34 8.67 -4.68 8.34 -4 8 C-6.31 7.34 -8.62 6.68 -11 6 C-10 3 -10 3 -8.0625 1.75 C-7.381875 1.5025 -6.70125 1.255 -6 1 C-5.34 1.33 -4.68 1.66 -4 2 C-1.88316159 1.10836423 -1.88316159 1.10836423 0 0 Z "
        fill="#FFFFFE" transform="translate(114,84)" />
    <path
        d="M0 0 C2.82372125 4.23558187 4 7.97265786 4 13 C4.86625 12.7215625 4.86625 12.7215625 5.75 12.4375 C8.20692525 11.95976454 9.64397534 12.24270636 12 13 C12.33 14.98 12.66 16.96 13 19 C12.01 19 11.02 19 10 19 C10 18.01 10 17.02 10 16 C7.69 16 5.38 16 3 16 C3 16.66 3 17.32 3 18 C3.99 18 4.98 18 6 18 C5.67 18.99 5.34 19.98 5 21 C3.35 20.67 1.7 20.34 0 20 C0 19.34 0 18.68 0 18 C-4.48133574 17.27743171 -4.48133574 17.27743171 -9 17 C-9 17.66 -9 18.32 -9 19 C-9.99 18.67 -10.98 18.34 -12 18 C-11.67 16.68 -11.34 15.36 -11 14 C-7.42355152 12.7619986 -4.66305234 13.25073929 -1 14 C-1.33 12.68 -1.66 11.36 -2 10 C-2 10.66 -2 11.32 -2 12 C-2.99 11.67 -3.98 11.34 -5 11 C-4.79375 10.0925 -4.5875 9.185 -4.375 8.25 C-3.9872755 4.88972103 -4.19588033 3.75924185 -6 1 C-4.7934375 1.0309375 -4.7934375 1.0309375 -3.5625 1.0625 C-1.06645115 1.29633621 -1.06645115 1.29633621 0 0 Z "
        fill="#FEFEFE" transform="translate(122,111)" />
    <path
        d="M0 0 C0.33 0.99 0.66 1.98 1 3 C1.66 3 2.32 3 3 3 C3.66 4.65 4.32 6.3 5 8 C5.99 7.67 6.98 7.34 8 7 C8.33 7.99 8.66 8.98 9 10 C9.66 10 10.32 10 11 10 C11 9.34 11 8.68 11 8 C15.74354436 5.77343836 19.72250715 4.53851968 25 4 C25 4.66 25 5.32 25 6 C25.66 6 26.32 6 27 6 C27 5.34 27 4.68 27 4 C27.99 4 28.98 4 30 4 C30 4.99 30 5.98 30 7 C29.34 7 28.68 7 28 7 C28 7.66 28 8.32 28 9 C25.69 9 23.38 9 21 9 C20.67 9.66 20.34 10.32 20 11 C17.4375 11.625 17.4375 11.625 15 12 C15 12.66 15 13.32 15 14 C14.34 14 13.68 14 13 14 C12.34 13.34 11.68 12.68 11 12 C10.67 12.99 10.34 13.98 10 15 C9.01 15 8.02 15 7 15 C6.67 14.34 6.34 13.68 6 13 C3.36 13 0.72 13 -2 13 C-3.32 10.03 -4.64 7.06 -6 4 C-4.35 4 -2.7 4 -1 4 C-0.67 2.68 -0.34 1.36 0 0 Z M-1 5 C0 7 0 7 0 7 Z M0 7 C0.33 8.32 0.66 9.64 1 11 C1.33 9.68 1.66 8.36 2 7 C1.34 7 0.68 7 0 7 Z "
        fill="#FFFEFE" transform="translate(23,56)" />
    <path
        d="M0 0 C-0.33 1.98 -0.66 3.96 -1 6 C0.98 6.99 2.96 7.98 5 9 C4.75390625 10.859375 4.75390625 10.859375 4 13 C2.15234375 14.265625 2.15234375 14.265625 -0.0625 15.25 C-0.79597656 15.58515625 -1.52945313 15.9203125 -2.28515625 16.265625 C-3.13400391 16.62914062 -3.13400391 16.62914062 -4 17 C-3.34 15.02 -2.68 13.04 -2 11 C-3.32 10.34 -4.64 9.68 -6 9 C-5.67 8.67 -5.34 8.34 -5 8 C-5.66 7.67 -6.32 7.34 -7 7 C-7.66 8.32 -8.32 9.64 -9 11 C-7.68 11 -6.36 11 -5 11 C-5 11.99 -5 12.98 -5 14 C-5.66 14 -6.32 14 -7 14 C-7 14.99 -7 15.98 -7 17 C-7.99 17 -8.98 17 -10 17 C-10 16.01 -10 15.02 -10 14 C-10.66 14 -11.32 14 -12 14 C-13.31626692 10.38026598 -14 7.90432869 -14 4 C-12.02 4 -10.04 4 -8 4 C-8.33 3.34 -8.66 2.68 -9 2 C-8.38125 1.855625 -7.7625 1.71125 -7.125 1.5625 C-1.22222222 0 -1.22222222 0 0 0 Z "
        fill="#FEFFFE" transform="translate(109,44)" />
    <path
        d="M0 0 C1.98 0.66 3.96 1.32 6 2 C6 2.99 6 3.98 6 5 C6.61875 5.0825 7.2375 5.165 7.875 5.25 C10 6 10 6 11.25 8.0625 C11.4975 8.701875 11.745 9.34125 12 10 C10 11 10 11 8.0546875 10.44140625 C7.33539063 10.15136719 6.61609375 9.86132812 5.875 9.5625 C5.15054688 9.27503906 4.42609375 8.98757812 3.6796875 8.69140625 C2.84824219 8.34916016 2.84824219 8.34916016 2 8 C2 6.68 2 5.36 2 4 C1.34 4 0.68 4 0 4 C0 4.66 0 5.32 0 6 C-1.98 6.66 -3.96 7.32 -6 8 C-6 8.66 -6 9.32 -6 10 C-5.01 10.33 -4.02 10.66 -3 11 C-3.33 11.99 -3.66 12.98 -4 14 C-4.886875 13.773125 -5.77375 13.54625 -6.6875 13.3125 C-10.63334959 12.94025004 -11.7980096 13.83649298 -15 16 C-15.99 16 -16.98 16 -18 16 C-18 15.01 -18 14.02 -18 13 C-17.34 13 -16.68 13 -16 13 C-15.814375 12.05125 -15.62875 11.1025 -15.4375 10.125 C-14 7 -14 7 -10.75 5.75 C-9.5125 5.5025 -8.275 5.255 -7 5 C-3.71138905 4.1552144 -3.71138905 4.1552144 -1 3 C-0.67 2.01 -0.34 1.02 0 0 Z M-10 8 C-9 10 -9 10 -9 10 Z "
        fill="#FEFEFF" transform="translate(85,84)" />
    <path
        d="M0 0 C2 2 2 2 2 5 C1.34 5 0.68 5 0 5 C0.66 6.32 1.32 7.64 2 9 C1.67 9.33 1.34 9.66 1 10 C2.32 10.33 3.64 10.66 5 11 C5 11.66 5 12.32 5 13 C3.02 13.33 1.04 13.66 -1 14 C-1.66 12.68 -2.32 11.36 -3 10 C-3.66 10.66 -4.32 11.32 -5 12 C-5.763125 11.62875 -6.52625 11.2575 -7.3125 10.875 C-8.199375 10.58625 -9.08625 10.2975 -10 10 C-10.99 10.66 -11.98 11.32 -13 12 C-16.0625 12.3125 -16.0625 12.3125 -19 12 C-19.66 11.01 -20.32 10.02 -21 9 C-20.05125 8.54625 -19.1025 8.0925 -18.125 7.625 C-14.99686321 6.19761746 -14.99686321 6.19761746 -13 4 C-11.0187672 3.70768696 -9.03531145 3.42197621 -7.04296875 3.21875 C-4.65864412 2.96344947 -2.34147273 2.51219716 0 2 C0 1.34 0 0.68 0 0 Z M-14 7 C-13 9 -13 9 -13 9 Z "
        fill="#FEFFFF" transform="translate(65,25)" />
    <path
        d="M0 0 C2.31 0 4.62 0 7 0 C7.33 1.65 7.66 3.3 8 5 C8.99 5 9.98 5 11 5 C11.33 4.01 11.66 3.02 12 2 C13.5 3.1875 13.5 3.1875 15 5 C15.1875 7.6875 15.1875 7.6875 15 10 C14.01 10 13.02 10 12 10 C12.33 10.99 12.66 11.98 13 13 C12.505 14.134375 12.01 15.26875 11.5 16.4375 C9.75913779 19.73847374 9.75913779 19.73847374 10.3125 22.4375 C10.6528125 23.2109375 10.6528125 23.2109375 11 24 C10.01 24 9.02 24 8 24 C8 23.34 8 22.68 8 22 C6.68 21.67 5.36 21.34 4 21 C4.66 19.68 5.32 18.36 6 17 C6.99 17 7.98 17 9 17 C9 15.02 9 13.04 9 11 C7.35 10.67 5.7 10.34 4 10 C4 9.34 4 8.68 4 8 C4.66 8 5.32 8 6 8 C5.67 6.68 5.34 5.36 5 4 C3.35 4.33 1.7 4.66 0 5 C-0.33 4.01 -0.66 3.02 -1 2 C-0.67 1.34 -0.34 0.68 0 0 Z "
        fill="#FFFFFF" transform="translate(23,39)" />
    <path
        d="M0 0 C0.99 0 1.98 0 3 0 C3.33 2.31 3.66 4.62 4 7 C3.34 7 2.68 7 2 7 C1.71125 7.94875 1.4225 8.8975 1.125 9.875 C0 13 0 13 -2 15 C-3.98 14.34 -5.96 13.68 -8 13 C-8 12.34 -8 11.68 -8 11 C-8.66 10.67 -9.32 10.34 -10 10 C-10 11.32 -10 12.64 -10 14 C-10.99 14 -11.98 14 -13 14 C-13 12.35 -13 10.7 -13 9 C-14.98 9.33 -16.96 9.66 -19 10 C-19 8.68 -19 7.36 -19 6 C-18.34 5.67 -17.68 5.34 -17 5 C-17 4.01 -17 3.02 -17 2 C-16.01 2 -15.02 2 -14 2 C-14 2.99 -14 3.98 -14 5 C-8.44631778 5.98761044 -8.44631778 5.98761044 -3 5 C-2.34 5 -1.68 5 -1 5 C-0.67 3.35 -0.34 1.7 0 0 Z M-6 7 C-5.67 8.32 -5.34 9.64 -5 11 C-4.67 9.68 -4.34 8.36 -4 7 C-4.66 7 -5.32 7 -6 7 Z "
        fill="#FEFEFE" transform="translate(36,22)" />
    <path
        d="M0 0 C1.258125 0.12375 2.51625 0.2475 3.8125 0.375 C4.87404297 0.47941406 4.87404297 0.47941406 5.95703125 0.5859375 C8 1 8 1 11 3 C10.67 4.32 10.34 5.64 10 7 C9.2575 7.12375 8.515 7.2475 7.75 7.375 C5.09176812 7.97914361 3.23920161 8.45572303 1 10 C-0.28254644 12.53770003 -0.28254644 12.53770003 -1 15 C-2.32 14.67 -3.64 14.34 -5 14 C-6.0326802 11.21176345 -6.04509293 10.1322726 -5.0625 7.25 C-4.711875 6.5075 -4.36125 5.765 -4 5 C-4.66 5 -5.32 5 -6 5 C-6 3.68 -6 2.36 -6 1 C-5.01 1 -4.02 1 -3 1 C-3 1.66 -3 2.32 -3 3 C-1.68 3.33 -0.36 3.66 1 4 C0.67 2.68 0.34 1.36 0 0 Z M-4 10 C-3 12 -3 12 -3 12 Z "
        fill="#FFFFFF" transform="translate(117,25)" />
    <path
        d="M0 0 C0.99 0 1.98 0 3 0 C3.33 1.32 3.66 2.64 4 4 C3.34 4 2.68 4 2 4 C2 5.65 2 7.3 2 9 C1.01 9.33 0.02 9.66 -1 10 C-1 11.65 -1 13.3 -1 15 C-3.31 15.66 -5.62 16.32 -8 17 C-7.34 18.65 -6.68 20.3 -6 22 C-6.99 22.33 -7.98 22.66 -9 23 C-12.07692308 17.58461538 -12.07692308 17.58461538 -11.6875 14.625 C-11.460625 14.08875 -11.23375 13.5525 -11 13 C-9.68 13 -8.36 13 -7 13 C-7 11.68 -7 10.36 -7 9 C-7.66 8.67 -8.32 8.34 -9 8 C-8.67 6.68 -8.34 5.36 -8 4 C-7.01 4 -6.02 4 -5 4 C-5.33 4.66 -5.66 5.32 -6 6 C-4.02 5.01 -2.04 4.02 0 3 C0 2.01 0 1.02 0 0 Z M-4 7 C-4.33 7.99 -4.66 8.98 -5 10 C-3.68 9.67 -2.36 9.34 -1 9 C-1.99 8.34 -2.98 7.68 -4 7 Z "
        fill="#FEFEFF" transform="translate(45,102)" />
    <path
        d="M0 0 C1.32 0.66 2.64 1.32 4 2 C3.67 3.65 3.34 5.3 3 7 C4.32 7.33 5.64 7.66 7 8 C6.67 8.99 6.34 9.98 6 11 C6.65035814 12.34136367 7.3162955 13.67532254 8 15 C7.67 15.66 7.34 16.32 7 17 C6.01 16.67 5.02 16.34 4 16 C4 15.01 4 14.02 4 13 C3.01 13 2.02 13 1 13 C1 12.34 1 11.68 1 11 C-2.2985139 11.72268235 -2.2985139 11.72268235 -3.6875 15.0625 C-4.3371875 16.5165625 -4.3371875 16.5165625 -5 18 C-5.99 18 -6.98 18 -8 18 C-7.67 15.36 -7.34 12.72 -7 10 C-7.66 10 -8.32 10 -9 10 C-9 9.34 -9 8.68 -9 8 C-7.35 7.34 -5.7 6.68 -4 6 C-3.34 6.66 -2.68 7.32 -2 8 C-2.33 6.35 -2.66 4.7 -3 3 C-2.01 3 -1.02 3 0 3 C0 2.01 0 1.02 0 0 Z "
        fill="#FFFFFF" transform="translate(89,46)" />
    <path
        d="M0 0 C2.64 0 5.28 0 8 0 C8.33 1.98 8.66 3.96 9 6 C6.83125748 5.49396008 5.00032373 5.00016187 3 4 C3.33 5.32 3.66 6.64 4 8 C3.01 8 2.02 8 1 8 C1.185625 9.258125 1.37125 10.51625 1.5625 11.8125 C2.00732761 14.82744268 1.99843846 16.00468461 1 19 C0.01 18.67 -0.98 18.34 -2 18 C-1.67 16.68 -1.34 15.36 -1 14 C-1.99 14 -2.98 14 -4 14 C-4 14.66 -4 15.32 -4 16 C-4.99 16 -5.98 16 -7 16 C-7.33 14.35 -7.66 12.7 -8 11 C-2.25 8 -2.25 8 0 8 C-0.185625 7.05125 -0.37125 6.1025 -0.5625 5.125 C-1 2 -1 2 0 0 Z "
        fill="#FEFFFF" transform="translate(132,83)" />
    <path
        d="M0 0 C0.66 0 1.32 0 2 0 C2 0.66 2 1.32 2 2 C2.66 2 3.32 2 4 2 C4.66 3.32 5.32 4.64 6 6 C7.32 6 8.64 6 10 6 C9.67 7.65 9.34 9.3 9 11 C7.68 11.33 6.36 11.66 5 12 C5.66 12 6.32 12 7 12 C7 12.99 7 13.98 7 15 C7.99 15.33 8.98 15.66 10 16 C9.67 16.66 9.34 17.32 9 18 C7.66923011 18.34342449 6.33568021 18.67619874 5 19 C4.34 19.66 3.68 20.32 3 21 C2.22227595 18.66682784 1.57584432 16.38564077 1 14 C-0.98 14.99 -0.98 14.99 -3 16 C-3.33 14.68 -3.66 13.36 -4 12 C-2.02 10.35 -0.04 8.7 2 7 C1.34 4.69 0.68 2.38 0 0 Z "
        fill="#FFFFFF" transform="translate(55,82)" />
    <path
        d="M0 0 C1.48206495 0.254496 2.96068615 0.52911762 4.4375 0.8125 C5.67306641 1.03873047 5.67306641 1.03873047 6.93359375 1.26953125 C7.61550781 1.51058594 8.29742187 1.75164063 9 2 C9.33 2.99 9.66 3.98 10 5 C9.01 6.485 9.01 6.485 8 8 C8.66 8.33 9.32 8.66 10 9 C10 10.32 10 11.64 10 13 C8.23186888 13.24915939 6.46025018 13.47366632 4.6875 13.6875 C3.70136719 13.81511719 2.71523437 13.94273438 1.69921875 14.07421875 C-1 14 -1 14 -2.875 12.78125 C-4.90866485 9.56128066 -3.65209205 6.61614682 -3 3 C-2.34 3.33 -1.68 3.66 -1 4 C-1 4.66 -1 5.32 -1 6 C-0.34 6 0.32 6 1 6 C1 7.32 1 8.64 1 10 C1.99 10 2.98 10 4 10 C3.67 8.68 3.34 7.36 3 6 C3.99 5.67 4.98 5.34 6 5 C5.34 5 4.68 5 4 5 C2.68 5 1.36 5 0 5 C0 3.35 0 1.7 0 0 Z "
        fill="#FFFFFF" transform="translate(100,20)" />
    <path
        d="M0 0 C0 0.66 0 1.32 0 2 C0.66 2 1.32 2 2 2 C3.2077558 5.62326739 2.54311128 6.64146369 1 10 C1.33 9.67 1.66 9.34 2 9 C2.66 9 3.32 9 4 9 C4.33 8.34 4.66 7.68 5 7 C5.12375 7.7425 5.2475 8.485 5.375 9.25 C5.95486701 11.80141485 6.73708739 13.7267573 8 16 C5.9375 16.875 5.9375 16.875 3 17 C0.27793488 15.37463467 -2.0478098 13.50352922 -4 11 C-4 9.68 -4 8.36 -4 7 C-4.99 6.67 -5.98 6.34 -7 6 C-4.84615385 0 -4.84615385 0 0 0 Z M-3 4 C-3.33 4.99 -3.66 5.98 -4 7 C-2.68 6.34 -1.36 5.68 0 5 C-0.99 4.67 -1.98 4.34 -3 4 Z "
        fill="#FEFEFE" transform="translate(93,71)" />
    <path
        d="M0 0 C0.5775 0.185625 1.155 0.37125 1.75 0.5625 C3.95746031 1.15911352 3.95746031 1.15911352 5.9375 0.5 C8.5437064 -0.13180761 10.42673558 0.35668389 13 1 C12.67 1.99 12.34 2.98 12 4 C11.030625 4.12375 10.06125 4.2475 9.0625 4.375 C7.5465625 4.684375 7.5465625 4.684375 6 5 C5.67 5.66 5.34 6.32 5 7 C4.34 7 3.68 7 3 7 C3 7.99 3 8.98 3 10 C2.34 10.66 1.68 11.32 1 12 C0.67 12.99 0.34 13.98 0 15 C-0.99 15 -1.98 15 -3 15 C-3.33 11.37 -3.66 7.74 -4 4 C-3.01 3.67 -2.02 3.34 -1 3 C-0.67 2.01 -0.34 1.02 0 0 Z M0 4 C0 4.66 0 5.32 0 6 C0.66 6 1.32 6 2 6 C2 5.34 2 4.68 2 4 C1.34 4 0.68 4 0 4 Z "
        fill="#FEFEFF" transform="translate(9,88)" />
    <path
        d="M0 0 C1.65 0 3.3 0 5 0 C5.625 1.8125 5.625 1.8125 6 4 C5.01 5.485 5.01 5.485 4 7 C2.68 7 1.36 7 0 7 C-0.33 7.99 -0.66 8.98 -1 10 C3.455 10.99 3.455 10.99 8 12 C8 12.99 8 13.98 8 15 C4.90041171 14.98700382 1.99391673 14.83936594 -1 14 C-2.8125 11.0625 -2.8125 11.0625 -4 8 C-6.05093145 6.59533047 -6.05093145 6.59533047 -8 6 C-7.34 5.67 -6.68 5.34 -6 5 C-6 4.34 -6 3.68 -6 3 C-4.02 2.67 -2.04 2.34 0 2 C0 1.34 0 0.68 0 0 Z M-5 4 C-4 6 -4 6 -4 6 Z "
        fill="#FEFEFF" transform="translate(100,62)" />
    <path
        d="M0 0 C0.99 0.33 1.98 0.66 3 1 C3.33 1.99 3.66 2.98 4 4 C6.01508358 4.73323796 6.01508358 4.73323796 8 5 C7.01 6.485 7.01 6.485 6 8 C5.01 8 4.02 8 3 8 C3.495 8.94875 3.99 9.8975 4.5 10.875 C6 14 6 14 6 16 C3.0625 15.25 3.0625 15.25 0 14 C-0.875 11.875 -0.875 11.875 -1 10 C-2.65 10 -4.3 10 -6 10 C-5.34 8.02 -4.68 6.04 -4 4 C-2.68 4.33 -1.36 4.66 0 5 C-0.2784375 4.0409375 -0.2784375 4.0409375 -0.5625 3.0625 C-0.706875 2.381875 -0.85125 1.70125 -1 1 C-0.67 0.67 -0.34 0.34 0 0 Z "
        fill="#FFFFFE" transform="translate(75,37)" />
    <path
        d="M0 0 C0.33 1.98 0.66 3.96 1 6 C2.32 6.33 3.64 6.66 5 7 C4.67 9.31 4.34 11.62 4 14 C1.69 13.67 -0.62 13.34 -3 13 C-3.33 12.01 -3.66 11.02 -4 10 C-3.01 10 -2.02 10 -1 10 C-1 8.68 -1 7.36 -1 6 C-2.65 6 -4.3 6 -6 6 C-6.33 4.68 -6.66 3.36 -7 2 C-4 0 -4 0 0 0 Z "
        fill="#FFFEFE" transform="translate(132,13)" />
    <path
        d="M0 0 C2.31 0.66 4.62 1.32 7 2 C8.2380014 5.57644848 7.74926071 8.33694766 7 12 C7.66 12 8.32 12 9 12 C9 12.99 9 13.98 9 15 C7.02 15.66 5.04 16.32 3 17 C3 13 3 13 4 12 C3.34 11.01 2.68 10.02 2 9 C2.66 7.68 3.32 6.36 4 5 C3.67 5.33 3.34 5.66 3 6 C1.67405895 6.36162029 0.34061543 6.69728039 -1 7 C-0.67 4.69 -0.34 2.38 0 0 Z "
        fill="#FEFFFF" transform="translate(114,60)" />
    <path
        d="M0 0 C2.99332739 0.9977758 3.94766315 1.7522025 6 4 C6.33 3.01 6.66 2.02 7 1 C7.99 1.33 8.98 1.66 10 2 C9.67 3.65 9.34 5.3 9 7 C9.33 6.67 9.66 6.34 10 6 C11.32594105 5.63837971 12.65938457 5.30271961 14 5 C14.33 5.66 14.66 6.32 15 7 C13.02579865 9.52259061 12.03254358 9.9929808 8.8125 10.6875 C7.4203125 10.8421875 7.4203125 10.8421875 6 11 C6 10.01 6 9.02 6 8 C3.69 7.67 1.38 7.34 -1 7 C-1.04254356 5.00045254 -1.04080783 2.99958364 -1 1 C-0.67 0.67 -0.34 0.34 0 0 Z "
        fill="#FFFFFF" transform="translate(21,12)" />
    <path
        d="M0 0 C1.65 0.33 3.3 0.66 5 1 C5.99 4.3 6.98 7.6 8 11 C8.66 11 9.32 11 10 11 C10 10.34 10 9.68 10 9 C10.99 9 11.98 9 13 9 C13 10.32 13 11.64 13 13 C11.35 13.33 9.7 13.66 8 14 C8 13.34 8 12.68 8 12 C6.68 12 5.36 12 4 12 C2.5393715 9.35261084 2 8.10551666 2 5 C2.66 4.67 3.32 4.34 4 4 C2.68 3.67 1.36 3.34 0 3 C0 3.66 0 4.32 0 5 C-1.32 5 -2.64 5 -4 5 C-4 4.01 -4 3.02 -4 2 C-2.68 2 -1.36 2 0 2 C0 1.34 0 0.68 0 0 Z "
        fill="#FFFFFE" transform="translate(11,130)" />
    <path
        d="M0 0 C0 0.66 0 1.32 0 2 C-0.99 2.495 -0.99 2.495 -2 3 C-1.34 3.33 -0.68 3.66 0 4 C-0.33 5.65 -0.66 7.3 -1 9 C-3 8 -3 8 -4 7 C-4.66 8.98 -5.32 10.96 -6 13 C-7.32 12.34 -8.64 11.68 -10 11 C-10 10.34 -10 9.68 -10 9 C-9.34 8.67 -8.68 8.34 -8 8 C-7.34227572 4.97065509 -7.34227572 4.97065509 -7 2 C-9.05270463 3.84188612 -9.05270463 3.84188612 -10 6 C-10.66 5.01 -11.32 4.02 -12 3 C-11 1 -11 1 -7.6875 -0.1875 C-4.42437937 -0.90649268 -3.00717118 -1.20286847 0 0 Z M-6 4 C-5 6 -5 6 -5 6 Z "
        fill="#FFFEFF" transform="translate(44,72)" />
    <path
        d="M0 0 C0.66 0 1.32 0 2 0 C3.125 2.8125 3.125 2.8125 4 6 C3.01 7.485 3.01 7.485 2 9 C2.66 9.33 3.32 9.66 4 10 C3.42655063 12.86724686 3.1385485 13.8614515 1 16 C0.896875 15.21625 0.79375 14.4325 0.6875 13.625 C0.22404978 10.66954819 0.22404978 10.66954819 -3 9 C-5.64632287 9.3121764 -5.64632287 9.3121764 -8 10 C-8 9.01 -8 8.02 -8 7 C-5.66785852 5.79371992 -3.50357861 4.8345262 -1 4 C-0.26676204 1.98491642 -0.26676204 1.98491642 0 0 Z "
        fill="#FFFFFF" transform="translate(93,98)" />
    <path
        d="M0 0 C2.375 -0.125 2.375 -0.125 5 0 C7 2 7 2 7 6 C5.35 6.33 3.7 6.66 2 7 C2 7.99 2 8.98 2 10 C0.02 10.99 0.02 10.99 -2 12 C-2 11.34 -2 10.68 -2 10 C-2.66 9.34 -3.32 8.68 -4 8 C-2.66666667 5.33333333 -1.33333333 2.66666667 0 0 Z "
        fill="#FEFFFF" transform="translate(51,17)" />
    <path
        d="M0 0 C1.67542976 0.28604898 3.34385343 0.61781233 5 1 C5 2.32 5 3.64 5 5 C5.66 5 6.32 5 7 5 C6.67 6.65 6.34 8.3 6 10 C5.34 10 4.68 10 4 10 C3.67 10.99 3.34 11.98 3 13 C0.69 12.67 -1.62 12.34 -4 12 C-3.6875 10.0625 -3.6875 10.0625 -3 8 C0.13349732 6.95550089 0.98968256 7.06576355 4 8 C4 7.01 4 6.02 4 5 C3.34 5 2.68 5 2 5 C2 4.01 2 3.02 2 2 C1.01 1.67 0.02 1.34 -1 1 C-0.67 0.67 -0.34 0.34 0 0 Z "
        fill="#FFFFFE" transform="translate(127,42)" />
    <path
        d="M0 0 C0.99 0 1.98 0 3 0 C3.33 1.98 3.66 3.96 4 6 C3.01 6 2.02 6 1 6 C0.938125 6.61875 0.87625 7.2375 0.8125 7.875 C0 10 0 10 -2.5625 11.25 C-3.366875 11.4975 -4.17125 11.745 -5 12 C-5.33 10.68 -5.66 9.36 -6 8 C-5.01 8 -4.02 8 -3 8 C-3 6.35 -3 4.7 -3 3 C-2.01 2.67 -1.02 2.34 0 2 C0 1.34 0 0.68 0 0 Z "
        fill="#FFFFFF" transform="translate(117,13)" />
    <path
        d="M0 0 C0.66 0.33 1.32 0.66 2 1 C2 1.99 2 2.98 2 4 C1.34 4 0.68 4 0 4 C0 4.66 0 5.32 0 6 C-0.66 6.474375 -1.32 6.94875 -2 7.4375 C-2.99 8.2109375 -2.99 8.2109375 -4 9 C-4 9.99 -4 10.98 -4 12 C-5.32 12 -6.64 12 -8 12 C-8 10.68 -8 9.36 -8 8 C-8.66 8 -9.32 8 -10 8 C-10 7.01 -10 6.02 -10 5 C-7.525 5.495 -7.525 5.495 -5 6 C-4.9175 5.38125 -4.835 4.7625 -4.75 4.125 C-4 2 -4 2 -2.0625 0.6875 C-1.381875 0.460625 -0.70125 0.23375 0 0 Z "
        fill="#FFFFFE" transform="translate(140,104)" />
    <path
        d="M0 0 C1.32 0.33 2.64 0.66 4 1 C3.67 2.98 3.34 4.96 3 7 C2.01 7 1.02 7 0 7 C0 8.32 0 9.64 0 11 C-2.31 11.66 -4.62 12.32 -7 13 C-7.66 12.34 -8.32 11.68 -9 11 C-8.625 8.875 -8.625 8.875 -8 7 C-6.68 7.66 -5.36 8.32 -4 9 C-2.10134397 6.02819057 -0.64544429 3.48539917 0 0 Z "
        fill="#FEFFFF" transform="translate(81,103)" />
    <path
        d="M0 0 C0 0.99 0 1.98 0 3 C0.23769206 5.1182079 0.23769206 5.1182079 1 7 C1.99 7.33 2.98 7.66 4 8 C4 10.31 4 12.62 4 15 C3.01 15 2.02 15 1 15 C1 13.68 1 12.36 1 11 C0.01 11 -0.98 11 -2 11 C-4.05547653 6.64722617 -4.05547653 6.64722617 -3.8125 3.8125 C-3 2 -3 2 0 0 Z "
        fill="#FFFFFF" transform="translate(17,104)" />
    <path
        d="M0 0 C1.98 0 3.96 0 6 0 C6.33 0.66 6.66 1.32 7 2 C8.32 1.67 9.64 1.34 11 1 C11.33 3.31 11.66 5.62 12 8 C10.02 8 8.04 8 6 8 C6 7.01 6 6.02 6 5 C5.01 4.67 4.02 4.34 3 4 C3 3.34 3 2.68 3 2 C2.01 2 1.02 2 0 2 C0 1.34 0 0.68 0 0 Z "
        fill="#FFFFFF" transform="translate(56,79)" />
    <path
        d="M0 0 C0.99 0.66 1.98 1.32 3 2 C3 2.99 3 3.98 3 5 C1.02 5 -0.96 5 -3 5 C-3 5.99 -3 6.98 -3 8 C-3.66 8 -4.32 8 -5 8 C-5 8.99 -5 9.98 -5 11 C-6.65 11 -8.3 11 -10 11 C-9.34 9.68 -8.68 8.36 -8 7 C-7.34 7 -6.68 7 -6 7 C-6 5.35 -6 3.7 -6 2 C-4.68 2.33 -3.36 2.66 -2 3 C-1.34 2.01 -0.68 1.02 0 0 Z "
        fill="#FFFFFF" transform="translate(138,69)" />
    <path
        d="M0 0 C-0.33 1.65 -0.66 3.3 -1 5 C-2.010625 4.79375 -3.02125 4.5875 -4.0625 4.375 C-8.49506869 3.9528506 -10.86108962 4.5640515 -15 6 C-15 5.34 -15 4.68 -15 4 C-14.34 4 -13.68 4 -13 4 C-13 3.34 -13 2.68 -13 2 C-8.50343896 -0.24828052 -4.92127034 -0.16682272 0 0 Z "
        fill="#FFFEFF" transform="translate(57,4)" />
    <path
        d="M0 0 C2.97526665 2.55022856 4.50122302 5.40293526 6 9 C5.67 9.99 5.34 10.98 5 12 C2 11 2 11 0 8 C-0.99 7.67 -1.98 7.34 -3 7 C-3.33 6.01 -3.66 5.02 -4 4 C-3.01 3.34 -2.02 2.68 -1 2 C-0.67 1.34 -0.34 0.68 0 0 Z "
        fill="#FFFFFF" transform="translate(29,102)" />
    <path
        d="M0 0 C1.98 0.66 3.96 1.32 6 2 C6.33 3.98 6.66 5.96 7 8 C2.375 11 2.375 11 -1 11 C-1 10.01 -1 9.02 -1 8 C-0.34 8 0.32 8 1 8 C0.67 7.01 0.34 6.02 0 5 C0.99 5 1.98 5 3 5 C1.68 4.34 0.36 3.68 -1 3 C-0.67 2.01 -0.34 1.02 0 0 Z "
        fill="#FFFEFE" transform="translate(57,66)" />
    <path
        d="M0 0 C1.98 0 3.96 0 6 0 C6.33 1.65 6.66 3.3 7 5 C6.01 5.33 5.02 5.66 4 6 C3.67 6.99 3.34 7.98 3 9 C2.01 9 1.02 9 0 9 C0 6.03 0 3.06 0 0 Z "
        fill="#FFFFFF" transform="translate(15,40)" />
    <path
        d="M0 0 C0.99 0 1.98 0 3 0 C3.33 2.31 3.66 4.62 4 7 C3.01 7 2.02 7 1 7 C1 7.66 1 8.32 1 9 C-1.5614657 11.29648649 -2.47967572 12 -6 12 C-5.875 10.25 -5.875 10.25 -5 8 C-1.9375 5.75 -1.9375 5.75 1 4 C0.34 3.01 -0.32 2.02 -1 1 C-0.67 0.67 -0.34 0.34 0 0 Z "
        fill="#FFFFFF" transform="translate(46,76)" />
    <path
        d="M0 0 C0.99 0.33 1.98 0.66 3 1 C3.33 2.98 3.66 4.96 4 7 C5.32 7 6.64 7 8 7 C8 7.99 8 8.98 8 10 C5.6875 10.625 5.6875 10.625 3 11 C2.01 10.34 1.02 9.68 0 9 C0.33 8.34 0.66 7.68 1 7 C0.39421747 4.98072489 -0.26919734 2.97746603 -1 1 C-0.67 0.67 -0.34 0.34 0 0 Z "
        fill="#FEFFFF" transform="translate(127,112)" />
    <path
        d="M0 0 C0 2.31 0 4.62 0 7 C-1.32 7 -2.64 7 -4 7 C-4 6.34 -4 5.68 -4 5 C-4.9590625 4.566875 -4.9590625 4.566875 -5.9375 4.125 C-8 3 -8 3 -9 1 C-6.04335481 -0.4783226 -3.25770263 -0.06032783 0 0 Z "
        fill="#FFFEFF" transform="translate(20,120)" />
    <path
        d="M0 0 C1.98 1.65 3.96 3.3 6 5 C5.67 5.99 5.34 6.98 5 8 C2.69 8.33 0.38 8.66 -2 9 C-2.33 8.34 -2.66 7.68 -3 7 C-2.06421005 4.64018187 -1.06652192 2.30368736 0 0 Z "
        fill="#FFFFFF" transform="translate(52,99)" />
    <path
        d="M0 0 C2.64 0.66 5.28 1.32 8 2 C8 2.66 8 3.32 8 4 C8.99 4 9.98 4 11 4 C10.67 5.32 10.34 6.64 10 8 C7 7 4 6 1 5 C0.67 3.35 0.34 1.7 0 0 Z "
        fill="#FFFFFF" transform="translate(123,33)" />
    <path
        d="M0 0 C0.33 0.66 0.66 1.32 1 2 C1.99 2 2.98 2 4 2 C3.125 6.75 3.125 6.75 2 9 C-0.3125 9.25 -0.3125 9.25 -3 9 C-4.8125 7 -4.8125 7 -6 5 C-4.02 5 -2.04 5 0 5 C-0.2784375 4.0409375 -0.2784375 4.0409375 -0.5625 3.0625 C-0.706875 2.381875 -0.85125 1.70125 -1 1 C-0.67 0.67 -0.34 0.34 0 0 Z "
        fill="#FFFFFE" transform="translate(69,11)" />
    <path
        d="M0 0 C0.33 1.65 0.66 3.3 1 5 C1.66 5 2.32 5 3 5 C2.34 6.32 1.68 7.64 1 9 C-0.65 8.67 -2.3 8.34 -4 8 C-3.67 7.01 -3.34 6.02 -3 5 C-3.87483915 2.83284443 -3.87483915 2.83284443 -5 1 C-2 0 -2 0 0 0 Z "
        fill="#FFFEFF" transform="translate(22,127)" />
    <path
        d="M0 0 C0.66 0 1.32 0 2 0 C2.0892754 3.21391447 1.89567453 5.91489883 1 9 C0.814375 9.7425 0.62875 10.485 0.4375 11.25 C0.293125 11.8275 0.14875 12.405 0 13 C-0.99 13 -1.98 13 -3 13 C-2.79375 12.401875 -2.5875 11.80375 -2.375 11.1875 C-1.69328085 8.71549154 -1.69328085 8.71549154 -4 6 C-4 5.01 -4 4.02 -4 3 C-2.68 3 -1.36 3 0 3 C0 2.01 0 1.02 0 0 Z "
        fill="#FFFFFF" transform="translate(124,73)" />
    <path
        d="M0 0 C0.99 0.33 1.98 0.66 3 1 C2.67 2.32 2.34 3.64 2 5 C2.99 5.33 3.98 5.66 5 6 C4.67 7.32 4.34 8.64 4 10 C2.68 9.67 1.36 9.34 0 9 C-1.125 3.375 -1.125 3.375 0 0 Z "
        fill="#FFFEFF" transform="translate(76,76)" />
    <path
        d="M0 0 C0.66 0 1.32 0 2 0 C2 1.32 2 2.64 2 4 C3.32 4 4.64 4 6 4 C6 4.99 6 5.98 6 7 C5.34 7 4.68 7 4 7 C4 8.32 4 9.64 4 11 C2.68 10.67 1.36 10.34 0 10 C0.66 9.01 1.32 8.02 2 7 C1.484375 6.5875 0.96875 6.175 0.4375 5.75 C-0.036875 5.1725 -0.51125 4.595 -1 4 C-0.6875 1.8125 -0.6875 1.8125 0 0 Z "
        fill="#FFFFFF" transform="translate(70,60)" />
    <path
        d="M0 0 C0.99 0 1.98 0 3 0 C3 0.99 3 1.98 3 3 C3.99 2.34 4.98 1.68 6 1 C6.99 1 7.98 1 9 1 C9.33 2.32 9.66 3.64 10 5 C6.846632 5.70074844 4.27275026 6 1 6 C0.67 4.02 0.34 2.04 0 0 Z "
        fill="#FEFFFF" transform="translate(124,57)" />
    <path
        d="M0 0 C2.18703385 -0.37907282 2.18703385 -0.37907282 4 -1 C4.33 -0.01 4.66 0.98 5 2 C3.02 2 1.04 2 -1 2 C-1.33 2.66 -1.66 3.32 -2 4 C-2.66 3.67 -3.32 3.34 -4 3 C-5.32 3 -6.64 3 -8 3 C-8 2.01 -8 1.02 -8 0 C-4.86567988 -1.00746004 -3.13816549 -0.78454137 0 0 Z "
        fill="#FEFFFF" transform="translate(105,135)" />
    <path
        d="M0 0 C4.455 0.99 4.455 0.99 9 2 C9 3.32 9 4.64 9 6 C3.58461538 6.36923077 3.58461538 6.36923077 0.625 4.5 C0.08875 4.005 -0.4475 3.51 -1 3 C-0.67 2.01 -0.34 1.02 0 0 Z "
        fill="#FFFFFF" transform="translate(120,104)" />
    <path
        d="M0 0 C1.32 0 2.64 0 4 0 C4.268125 0.639375 4.53625 1.27875 4.8125 1.9375 C5.88667752 4.33131686 5.88667752 4.33131686 9 5 C8.67 5.66 8.34 6.32 8 7 C6.35 7 4.7 7 3 7 C3 6.34 3 5.68 3 5 C2.34 5 1.68 5 1 5 C0.67 3.35 0.34 1.7 0 0 Z "
        fill="#FFFEFF" transform="translate(6,13)" />
    <path
        d="M0 0 C0.33 1.32 0.66 2.64 1 4 C0.01 4 -0.98 4 -2 4 C-2 5.32 -2 6.64 -2 8 C-2.99 7.67 -3.98 7.34 -5 7 C-5 6.34 -5 5.68 -5 5 C-5.66 5 -6.32 5 -7 5 C-6.6875 3.0625 -6.6875 3.0625 -6 1 C-3 0 -3 0 0 0 Z "
        fill="#FFFFFF" transform="translate(107,113)" />
    <path
        d="M0 0 C0.99 0 1.98 0 3 0 C3 0.99 3 1.98 3 3 C3.66 3 4.32 3 5 3 C5 3.66 5 4.32 5 5 C5.66 5 6.32 5 7 5 C6.67 6.32 6.34 7.64 6 9 C5.5875 8.505 5.175 8.01 4.75 7.5 C2.87797662 5.56613908 2.87797662 5.56613908 -1 6 C-1.042721 4.33388095 -1.04063832 2.66617115 -1 1 C-0.67 0.67 -0.34 0.34 0 0 Z "
        fill="#FFFEFF" transform="translate(88,110)" />
    <path
        d="M0 0 C2.97 0.495 2.97 0.495 6 1 C6.33 2.65 6.66 4.3 7 6 C5.02 6.99 5.02 6.99 3 8 C2.87625 7.360625 2.7525 6.72125 2.625 6.0625 C2.315625 5.0415625 2.315625 5.0415625 2 4 C1.34 3.67 0.68 3.34 0 3 C0 2.01 0 1.02 0 0 Z "
        fill="#FFFFFF" transform="translate(3,79)" />
    <path
        d="M0 0 C4.455 0.99 4.455 0.99 9 2 C9 2.99 9 3.98 9 5 C7.54364629 5.22174933 6.08477044 5.42698698 4.625 5.625 C3.81289063 5.74101563 3.00078125 5.85703125 2.1640625 5.9765625 C1.44992188 5.98429687 0.73578125 5.99203125 0 6 C-0.66 5.34 -1.32 4.68 -2 4 C-1.34 3.34 -0.68 2.68 0 2 C0 1.34 0 0.68 0 0 Z "
        fill="#FFFFFF" transform="translate(43,53)" />
    <path
        d="M0 0 C1.32 0 2.64 0 4 0 C4 1.32 4 2.64 4 4 C4.66 4 5.32 4 6 4 C5.67 5.32 5.34 6.64 5 8 C4.34 8 3.68 8 3 8 C2.67 7.34 2.34 6.68 2 6 C-0.02463255 5.34786708 -0.02463255 5.34786708 -2 5 C-1.34 3.35 -0.68 1.7 0 0 Z "
        fill="#FEFFFF" transform="translate(42,17)" />
    <path
        d="M0 0 C0 1.98 0 3.96 0 6 C-0.99 6.33 -1.98 6.66 -3 7 C-3.66 6.67 -4.32 6.34 -5 6 C-5 5.34 -5 4.68 -5 4 C-5.66 4 -6.32 4 -7 4 C-6.67 3.01 -6.34 2.02 -6 1 C-3 0 -3 0 0 0 Z "
        fill="#FFFFFF" transform="translate(142,7)" />
    <path
        d="M0 0 C0 0.99 0 1.98 0 3 C-0.66 3 -1.32 3 -2 3 C-2 4.65 -2 6.3 -2 8 C-3.32 7.67 -4.64 7.34 -6 7 C-6.33 4.69 -6.66 2.38 -7 0 C-2.25 -1.125 -2.25 -1.125 0 0 Z "
        fill="#FFFEFF" transform="translate(18,1)" />
    <path
        d="M0 0 C-0.33 0.66 -0.66 1.32 -1 2 C-3.0625 2.625 -3.0625 2.625 -5 3 C-4.67 4.32 -4.34 5.64 -4 7 C-5.32 7 -6.64 7 -8 7 C-8 4.69 -8 2.38 -8 0 C-4.71023192 -1.09658936 -3.28696233 -0.79953138 0 0 Z "
        fill="#FFFEFF" transform="translate(64,57)" />
    <path
        d="M0 0 C2.97 0.495 2.97 0.495 6 1 C5.67 2.32 5.34 3.64 5 5 C4.34 5 3.68 5 3 5 C2.67 6.32 2.34 7.64 2 9 C1.67 8.01 1.34 7.02 1 6 C0.34 6 -0.32 6 -1 6 C-0.67 4.02 -0.34 2.04 0 0 Z "
        fill="#FFFEFF" transform="translate(6,37)" />
    <path
        d="M0 0 C0.99 0.99 1.98 1.98 3 3 C3 2.34 3 1.68 3 1 C4.32 1 5.64 1 7 1 C7 1.99 7 2.98 7 4 C5.35 4 3.7 4 2 4 C1.67 4.99 1.34 5.98 1 7 C0.01 6.67 -0.98 6.34 -2 6 C-1.125 1.125 -1.125 1.125 0 0 Z "
        fill="#FFFFFF" transform="translate(106,3)" />
    <path
        d="M0 0 C1.65 0.33 3.3 0.66 5 1 C4.67 1.66 4.34 2.32 4 3 C3.34 3 2.68 3 2 3 C2.33 4.32 2.66 5.64 3 7 C2.01 7.66 1.02 8.32 0 9 C-0.84454356 5.62182575 -1.10844919 3.32534757 0 0 Z "
        fill="#FFFEFF" transform="translate(59,10)" />
    <path
        d="M0 0 C1.32 0.33 2.64 0.66 4 1 C5.0326802 3.78823655 5.04509293 4.8677274 4.0625 7.75 C3.711875 8.4925 3.36125 9.235 3 10 C-0.00617269 6.99382731 0.40414684 4.17618402 0 0 Z "
        fill="#FFFFFF" transform="translate(119,3)" />
    <path
        d="M0 0 C0.99 0 1.98 0 3 0 C3 1.32 3 2.64 3 4 C5.475 4.99 5.475 4.99 8 6 C7.67 6.66 7.34 7.32 7 8 C4.03 7.505 4.03 7.505 1 7 C0 4 0 4 0 0 Z "
        fill="#FFFFFF" transform="translate(23,109)" />
    <path
        d="M0 0 C1.32 0.33 2.64 0.66 4 1 C4 2.65 4 4.3 4 6 C2.68 6.33 1.36 6.66 0 7 C-0.33 6.01 -0.66 5.02 -1 4 C-1.66 3.67 -2.32 3.34 -3 3 C-2.67 2.34 -2.34 1.68 -2 1 C-1.34 1.33 -0.68 1.66 0 2 C0 1.34 0 0.68 0 0 Z "
        fill="#FEFFFF" transform="translate(125,65)" />
    <path
        d="M0 0 C2.31 0.33 4.62 0.66 7 1 C7 2.98 7 4.96 7 7 C6.01 7 5.02 7 4 7 C3.67 5.68 3.34 4.36 3 3 C2.01 3.33 1.02 3.66 0 4 C0 2.68 0 1.36 0 0 Z "
        fill="#FFFFFF" transform="translate(75,4)" />
    <path
        d="M0 0 C0.763125 0.309375 1.52625 0.61875 2.3125 0.9375 C4.18789677 1.67893593 6.08684652 2.36228217 8 3 C8 3.99 8 4.98 8 6 C4.625 5.75 4.625 5.75 1 5 C-0.4375 2.9375 -0.4375 2.9375 -1 1 C-0.67 0.67 -0.34 0.34 0 0 Z "
        fill="#FFFFFF" transform="translate(84,135)" />
    <path
        d="M0 0 C0.33 0.66 0.66 1.32 1 2 C1.99 2.33 2.98 2.66 4 3 C3 6 3 6 0 8 C-0.99 8 -1.98 8 -3 8 C-2.37240135 5.07120629 -1.41377341 2.63904371 0 0 Z "
        fill="#FFFFFF" transform="translate(114,131)" />
    <path
        d="M0 0 C0.99 0 1.98 0 3 0 C2.67 1.98 2.34 3.96 2 6 C0.02 6.33 -1.96 6.66 -4 7 C-3.67 6.01 -3.34 5.02 -3 4 C-2.34 4 -1.68 4 -1 4 C-0.67 2.68 -0.34 1.36 0 0 Z "
        fill="#FFFFFF" transform="translate(100,38)" />
    <path
        d="M0 0 C1.65 0 3.3 0 5 0 C5 0.66 5 1.32 5 2 C5.99 2 6.98 2 8 2 C8 2.99 8 3.98 8 5 C5.36 4.67 2.72 4.34 0 4 C0 2.68 0 1.36 0 0 Z "
        fill="#FFFFFF" transform="translate(1,121)" />
    <path
        d="M0 0 C1.32 0 2.64 0 4 0 C4.33 2.31 4.66 4.62 5 7 C3.68 7 2.36 7 1 7 C0.67 4.69 0.34 2.38 0 0 Z "
        fill="#FFFFFF" transform="translate(69,49)" />
    <path d="M0 0 C1.65 0 3.3 0 5 0 C5 4 5 4 3 7 C2.01 6.67 1.02 6.34 0 6 C0 4.02 0 2.04 0 0 Z "
        fill="#FEFFFF" transform="translate(72,30)" />
    <path
        d="M0 0 C2.5 2.3125 2.5 2.3125 5 5 C5 5.99 5 6.98 5 8 C2.0625 7.25 2.0625 7.25 -1 6 C-1.875 3.875 -1.875 3.875 -2 2 C-1.34 2 -0.68 2 0 2 C0 1.34 0 0.68 0 0 Z "
        fill="#FFFFFF" transform="translate(4,15)" />
    <path
        d="M0 0 C0.66 0.33 1.32 0.66 2 1 C2 1.99 2 2.98 2 4 C1.34 4 0.68 4 0 4 C0.33 5.65 0.66 7.3 1 9 C0.01 9 -0.98 9 -2 9 C-2.6875 6.75 -2.6875 6.75 -3 4 C-1.5625 1.6875 -1.5625 1.6875 0 0 Z "
        fill="#FEFFFF" transform="translate(55,37)" />
    <path
        d="M0 0 C0.99 0 1.98 0 3 0 C3.73080266 1.97746603 4.39421747 3.98072489 5 6 C4.67 6.66 4.34 7.32 4 8 C3.01 7.67 2.02 7.34 1 7 C0.67 4.69 0.34 2.38 0 0 Z "
        fill="#FFFFFF" transform="translate(109,68)" />
    <path
        d="M0 0 C2.0625 0.4375 2.0625 0.4375 4 1 C4 1.66 4 2.32 4 3 C4.99 3.33 5.98 3.66 7 4 C5.625 5.5 5.625 5.5 4 7 C3.34 7 2.68 7 2 7 C1.87625 6.195625 1.7525 5.39125 1.625 4.5625 C1.315625 3.2940625 1.315625 3.2940625 1 2 C0.34 1.67 -0.32 1.34 -1 1 C-0.67 0.67 -0.34 0.34 0 0 Z "
        fill="#FFFFFF" transform="translate(73,17)" />
    <path
        d="M0 0 C0.66 0.33 1.32 0.66 2 1 C2 1.66 2 2.32 2 3 C2.99 3 3.98 3 5 3 C5 3.99 5 4.98 5 6 C4.4225 5.835 3.845 5.67 3.25 5.5 C0.73335631 4.85537969 0.73335631 4.85537969 -3 5 C-2.01 3.35 -1.02 1.7 0 0 Z "
        fill="#FFFFFE" transform="translate(21,5)" />
    <path
        d="M0 0 C1.32 0 2.64 0 4 0 C4 0.99 4 1.98 4 3 C3.01 3 2.02 3 1 3 C1 3.66 1 4.32 1 5 C-0.98 5.99 -2.96 6.98 -5 8 C-4 6 -3 4 -2 2 C-1.34 2 -0.68 2 0 2 C0 1.34 0 0.68 0 0 Z "
        fill="#FFFFFF" transform="translate(89,5)" />
    <path
        d="M0 0 C0.99 0 1.98 0 3 0 C3.33 1.65 3.66 3.3 4 5 C2.35 5.33 0.7 5.66 -1 6 C-1.042721 4.33388095 -1.04063832 2.66617115 -1 1 C-0.67 0.67 -0.34 0.34 0 0 Z "
        fill="#FFFFFF" transform="translate(139,44)" />
    <path
        d="M0 0 C0.99 0.33 1.98 0.66 3 1 C2.25 3.4375 2.25 3.4375 1 6 C-1.125 6.8125 -1.125 6.8125 -3 7 C-2.38722388 4.03824877 -1.74627478 2.61941217 0 0 Z "
        fill="#FFFFFF" transform="translate(106,37)" />
    <path
        d="M0 0 C2.475 0.495 2.475 0.495 5 1 C5 2.32 5 3.64 5 5 C3.35 5 1.7 5 0 5 C0 3.35 0 1.7 0 0 Z "
        fill="#FFFEFF" transform="translate(44,88)" />
    <path
        d="M0 0 C1.98 0 3.96 0 6 0 C6.33 1.65 6.66 3.3 7 5 C5.68 5 4.36 5 3 5 C2.87625 4.360625 2.7525 3.72125 2.625 3.0625 C2.315625 2.0415625 2.315625 2.0415625 2 1 C1.34 0.67 0.68 0.34 0 0 Z "
        fill="#FEFFFF" transform="translate(20,48)" />
    <path
        d="M0 0 C1.67542976 0.28604898 3.34385343 0.61781233 5 1 C5.33 2.32 5.66 3.64 6 5 C5.01 5.66 4.02 6.32 3 7 C2.67 6.01 2.34 5.02 2 4 C0.50014391 2.33289654 0.50014391 2.33289654 -1 1 C-0.67 0.67 -0.34 0.34 0 0 Z "
        fill="#FFFFFF" transform="translate(81,77)" />
    <path
        d="M0 0 C1.65 0 3.3 0 5 0 C4.34 0.66 3.68 1.32 3 2 C2.30251417 3.31747324 1.63040043 4.64914193 1 6 C-0.32 5.67 -1.64 5.34 -3 5 C-2.67 4.01 -2.34 3.02 -2 2 C-1.34 2 -0.68 2 0 2 C0 1.34 0 0.68 0 0 Z "
        fill="#FFFFFF" transform="translate(46,132)" />
    <path
        d="M0 0 C0.99 0.33 1.98 0.66 3 1 C2.25 2.9375 2.25 2.9375 1 5 C-1.125 5.75 -1.125 5.75 -3 6 C-3 5.01 -3 4.02 -3 3 C-2.34 3 -1.68 3 -1 3 C-0.67 2.01 -0.34 1.02 0 0 Z "
        fill="#FFFFFF" transform="translate(99,110)" />
    <path
        d="M0 0 C2.475 0.495 2.475 0.495 5 1 C5.33 2.65 5.66 4.3 6 6 C5.01 6 4.02 6 3 6 C3 5.01 3 4.02 3 3 C2.01 2.67 1.02 2.34 0 2 C0 1.34 0 0.68 0 0 Z "
        fill="#FEFEFF" transform="translate(99,90)" />
    <path
        d="M0 0 C2.475 0.495 2.475 0.495 5 1 C5 2.32 5 3.64 5 5 C4.01 5 3.02 5 2 5 C2 4.34 2 3.68 2 3 C1.34 3 0.68 3 0 3 C0 2.01 0 1.02 0 0 Z "
        fill="#FFFFFF" transform="translate(95,1)" />
    <path
        d="M0 0 C4 0 4 0 7 1 C6.67 2.32 6.34 3.64 6 5 C3.5625 4.1875 3.5625 4.1875 1 3 C0.67 2.01 0.34 1.02 0 0 Z "
        fill="#FFFFFF" transform="translate(50,11)" />
    <path
        d="M0 0 C0 3 0 3 -1 6 C-1.99 6 -2.98 6 -4 6 C-4 4.35 -4 2.7 -4 1 C-2.68 0.67 -1.36 0.34 0 0 Z "
        fill="#FFFFFF" transform="translate(128,132)" />
    <path
        d="M0 0 C1.65 0.99 3.3 1.98 5 3 C4.67 3.66 4.34 4.32 4 5 C1.03 4.505 1.03 4.505 -2 4 C-1.34 2.68 -0.68 1.36 0 0 Z "
        fill="#FFFFFF" transform="translate(76,70)" />
    <path
        d="M0 0 C1.98 0.495 1.98 0.495 4 1 C3.34 2.65 2.68 4.3 2 6 C1.01 6 0.02 6 -1 6 C-0.67 4.02 -0.34 2.04 0 0 Z "
        fill="#FFFFFF" transform="translate(38,137)" />
    <path
        d="M0 0 C1.98 0 3.96 0 6 0 C6 0.99 6 1.98 6 3 C4.02 3.33 2.04 3.66 0 4 C0 2.68 0 1.36 0 0 Z "
        fill="#FFFFFE" transform="translate(136,132)" />
    <path
        d="M0 0 C1.32 0.33 2.64 0.66 4 1 C4.33 2.32 4.66 3.64 5 5 C3.68 4.67 2.36 4.34 1 4 C0.67 2.68 0.34 1.36 0 0 Z "
        fill="#FFFFFF" transform="translate(65,68)" />
    <path
        d="M0 0 C0.99 0 1.98 0 3 0 C3.66 1.98 4.32 3.96 5 6 C3.68 6 2.36 6 1 6 C0.67 4.02 0.34 2.04 0 0 Z "
        fill="#FFFFFF" transform="translate(116,44)" />
    <path
        d="M0 0 C0.66 0.66 1.32 1.32 2 2 C1.625 4.625 1.625 4.625 1 7 C-0.32 6.67 -1.64 6.34 -3 6 C-2.01 4.02 -1.02 2.04 0 0 Z "
        fill="#FFFFFF" transform="translate(85,39)" />
    <path
        d="M0 0 C1.65 0 3.3 0 5 0 C4.67 1.65 4.34 3.3 4 5 C2.68 4.34 1.36 3.68 0 3 C0 2.01 0 1.02 0 0 Z "
        fill="#FFFFFF" transform="translate(45,38)" />
    <path
        d="M0 0 C1.32 0 2.64 0 4 0 C3.75 1.875 3.75 1.875 3 4 C0.9375 5.25 0.9375 5.25 -1 6 C-0.67 4.02 -0.34 2.04 0 0 Z "
        fill="#FFFFFF" transform="translate(22,119)" />
    <path
        d="M0 0 C2.125 0.9375 2.125 0.9375 4 2 C3.67 2.99 3.34 3.98 3 5 C-0.875 3.25 -0.875 3.25 -2 1 C-1.34 0.67 -0.68 0.34 0 0 Z "
        fill="#FFFFFF" transform="translate(112,113)" />
    <path
        d="M0 0 C0.99 0 1.98 0 3 0 C2.67 1.98 2.34 3.96 2 6 C1.01 6 0.02 6 -1 6 C-0.67 4.02 -0.34 2.04 0 0 Z "
        fill="#FFFFFF" transform="translate(77,101)" />
    <path
        d="M0 0 C1.32 0 2.64 0 4 0 C4 1.32 4 2.64 4 4 C2.35 3.67 0.7 3.34 -1 3 C-0.67 2.01 -0.34 1.02 0 0 Z "
        fill="#FFFEFF" transform="translate(13,56)" />
    <path
        d="M0 0 C2.475 0.495 2.475 0.495 5 1 C5.33 1.99 5.66 2.98 6 4 C3.03 3.505 3.03 3.505 0 3 C0 2.01 0 1.02 0 0 Z "
        fill="#FFFFFF" transform="translate(121,19)" />
    <path
        d="M0 0 C0.33 0.66 0.66 1.32 1 2 C3.01669827 3.13350534 3.01669827 3.13350534 5 4 C4.67 4.99 4.34 5.98 4 7 C2.35 5.35 0.7 3.7 -1 2 C-0.67 1.34 -0.34 0.68 0 0 Z "
        fill="#FFFFFF" transform="translate(52,109)" />
    <path
        d="M0 0 C0.99 0.33 1.98 0.66 3 1 C1.71034824 2.37562854 0.37310707 3.70766393 -1 5 C-1.66 5 -2.32 5 -3 5 C-2.625 3.0625 -2.625 3.0625 -2 1 C-1.34 0.67 -0.68 0.34 0 0 Z "
        fill="#FFFFFF" transform="translate(118,52)" />
    <path
        d="M0 0 C0.66 0.66 1.32 1.32 2 2 C1.01 3.32 0.02 4.64 -1 6 C-1.99 5.67 -2.98 5.34 -4 5 C-3 2 -3 2 0 0 Z "
        fill="#FFFFFF" transform="translate(44,28)" />
    <path
        d="M0 0 C2.51083114 1.25541557 2.87125446 2.50063488 4 5 C2.35 5.33 0.7 5.66 -1 6 C-0.67 4.02 -0.34 2.04 0 0 Z "
        fill="#FFFFFF" transform="translate(61,110)" />
    <path
        d="M0 0 C1.98 0.495 1.98 0.495 4 1 C4 2.32 4 3.64 4 5 C2.68 4.34 1.36 3.68 0 3 C0 2.01 0 1.02 0 0 Z "
        fill="#FFFFFF" transform="translate(87,62)" />
    <path
        d="M0 0 C0.99 0 1.98 0 3 0 C3 1.65 3 3.3 3 5 C2.01 5 1.02 5 0 5 C-0.5625 3.0625 -0.5625 3.0625 -1 1 C-0.67 0.67 -0.34 0.34 0 0 Z "
        fill="#FFFFFF" transform="translate(7,49)" />
    <path
        d="M0 0 C1.65 0 3.3 0 5 0 C5 0.99 5 1.98 5 3 C4.01 3.33 3.02 3.66 2 4 C1.34 3.67 0.68 3.34 0 3 C0 2.01 0 1.02 0 0 Z "
        fill="#FFFFFF" transform="translate(134,3)" />
    <path
        d="M0 0 C0.66 0 1.32 0 2 0 C2.33 1.32 2.66 2.64 3 4 C1.68 4 0.36 4 -1 4 C-0.67 2.68 -0.34 1.36 0 0 Z "
        fill="#FFFFFF" transform="translate(69,107)" />
    <path
        d="M0 0 C1.32 0.33 2.64 0.66 4 1 C4 1.99 4 2.98 4 4 C2.68 3.67 1.36 3.34 0 3 C0 2.01 0 1.02 0 0 Z "
        fill="#FFFFFE" transform="translate(0,105)" />
    <path
        d="M0 0 C0.99 0 1.98 0 3 0 C2.67 1.32 2.34 2.64 2 4 C0.68 4.33 -0.64 4.66 -2 5 C-1.34 3.35 -0.68 1.7 0 0 Z "
        fill="#FFFFFF" transform="translate(113,104)" />
    <path
        d="M0 0 C0.66 0.66 1.32 1.32 2 2 C1.01 3.485 1.01 3.485 0 5 C-0.99 5 -1.98 5 -3 5 C-2.625 3.0625 -2.625 3.0625 -2 1 C-1.34 0.67 -0.68 0.34 0 0 Z "
        fill="#FFFFFE" transform="translate(108,77)" />
    <path
        d="M0 0 C0.99 0 1.98 0 3 0 C3 1.32 3 2.64 3 4 C1.68 4 0.36 4 -1 4 C-0.67 2.68 -0.34 1.36 0 0 Z "
        fill="#FFFFFE" transform="translate(26,1)" />
    <path
        d="M0 0 C-0.33 1.65 -0.66 3.3 -1 5 C-1.99 4.34 -2.98 3.68 -4 3 C-4 2.34 -4 1.68 -4 1 C-2 0 -2 0 0 0 Z "
        fill="#FEFFFF" transform="translate(33,138)" />
    <path
        d="M0 0 C0.99 0 1.98 0 3 0 C3 1.32 3 2.64 3 4 C1.68 3.67 0.36 3.34 -1 3 C-0.67 2.01 -0.34 1.02 0 0 Z "
        fill="#FFFFFF" transform="translate(20,105)" />
    <path
        d="M0 0 C0.99 0.33 1.98 0.66 3 1 C2.67 2.32 2.34 3.64 2 5 C1.34 5 0.68 5 0 5 C-0.5625 3.0625 -0.5625 3.0625 -1 1 C-0.67 0.67 -0.34 0.34 0 0 Z "
        fill="#FFFFFF" transform="translate(13,98)" />
    <path
        d="M0 0 C1.32 0 2.64 0 4 0 C3.67 1.32 3.34 2.64 3 4 C2.01 3.67 1.02 3.34 0 3 C0 2.01 0 1.02 0 0 Z "
        fill="#FFFFFF" transform="translate(13,33)" />
    <path
        d="M0 0 C2.475 0.495 2.475 0.495 5 1 C4.67 1.99 4.34 2.98 4 4 C2.68 3.34 1.36 2.68 0 2 C0 1.34 0 0.68 0 0 Z "
        fill="#FFFFFF" transform="translate(80,30)" />
    <path
        d="M0 0 C1.32 0 2.64 0 4 0 C3.67 1.32 3.34 2.64 3 4 C2.01 3.67 1.02 3.34 0 3 C0 2.01 0 1.02 0 0 Z "
        fill="#FFFFFF" transform="translate(76,25)" />
    <path
        d="M0 0 C0.99 0.33 1.98 0.66 3 1 C3 1.99 3 2.98 3 4 C1.68 4 0.36 4 -1 4 C-0.67 2.68 -0.34 1.36 0 0 Z "
        fill="#FFFFFF" transform="translate(62,20)" />
    <path
        d="M0 0 C1.32 0 2.64 0 4 0 C3.67 1.32 3.34 2.64 3 4 C2.01 3.67 1.02 3.34 0 3 C0 2.01 0 1.02 0 0 Z "
        fill="#FFFFFF" transform="translate(0,131)" />
    <path
        d="M0 0 C0.99 0 1.98 0 3 0 C3 1.32 3 2.64 3 4 C1.68 3.67 0.36 3.34 -1 3 C-0.67 2.01 -0.34 1.02 0 0 Z "
        fill="#FFFFFF" transform="translate(36,2)" />
    <path
        d="M0 0 C0.99 0.33 1.98 0.66 3 1 C2.67 1.99 2.34 2.98 2 4 C1.01 3.67 0.02 3.34 -1 3 C-0.67 2.01 -0.34 1.02 0 0 Z "
        fill="#FFFFFF" transform="translate(111,140)" />
    <path
        d="M0 0 C0.99 0.33 1.98 0.66 3 1 C2.67 1.99 2.34 2.98 2 4 C1.01 3.67 0.02 3.34 -1 3 C-0.67 2.01 -0.34 1.02 0 0 Z "
        fill="#FFFFFF" transform="translate(59,130)" />
    <path
        d="M0 0 C0.33 0.66 0.66 1.32 1 2 C1.66 2 2.32 2 3 2 C3 2.99 3 3.98 3 5 C2.01 5 1.02 5 0 5 C-0.5625 3.0625 -0.5625 3.0625 -1 1 C-0.67 0.67 -0.34 0.34 0 0 Z "
        fill="#FFFFFF" transform="translate(121,97)" />
    <path d="M0 0 C0.99 0 1.98 0 3 0 C3 1.32 3 2.64 3 4 C2.01 4 1.02 4 0 4 C0 2.68 0 1.36 0 0 Z "
        fill="#FFFFFF" transform="translate(1,98)" />
    <path
        d="M0 0 C0.66 0.33 1.32 0.66 2 1 C1.01 2.485 1.01 2.485 0 4 C-0.99 4 -1.98 4 -3 4 C-3 3.01 -3 2.02 -3 1 C-2.01 0.67 -1.02 0.34 0 0 Z "
        fill="#FFFFFF" transform="translate(53,72)" />
    <path
        d="M0 0 C1.32 0.33 2.64 0.66 4 1 C3.67 1.99 3.34 2.98 3 4 C2.01 3.67 1.02 3.34 0 3 C0 2.01 0 1.02 0 0 Z "
        fill="#FFFFFF" transform="translate(64,52)" />
    <path
        d="M0 0 C0.99 0.33 1.98 0.66 3 1 C2.67 1.99 2.34 2.98 2 4 C1.01 3.67 0.02 3.34 -1 3 C-0.67 2.01 -0.34 1.02 0 0 Z "
        fill="#FFFFFF" transform="translate(66,46)" />
    <path
        d="M0 0 C1.65 0 3.3 0 5 0 C5 0.66 5 1.32 5 2 C3.35 2.33 1.7 2.66 0 3 C0 2.01 0 1.02 0 0 Z "
        fill="#FFFFFF" transform="translate(136,40)" />
    <path
        d="M0 0 C0.99 0.33 1.98 0.66 3 1 C2.67 1.99 2.34 2.98 2 4 C1.01 3.67 0.02 3.34 -1 3 C-0.67 2.01 -0.34 1.02 0 0 Z "
        fill="#FEFEFF" transform="translate(37,38)" />
    <path d="M0 0 C0.99 0 1.98 0 3 0 C3 1.32 3 2.64 3 4 C2.01 4 1.02 4 0 4 C0 2.68 0 1.36 0 0 Z "
        fill="#FFFFFF" transform="translate(135,29)" />
    <path
        d="M0 0 C0.99 0 1.98 0 3 0 C3.33 1.32 3.66 2.64 4 4 C2.68 3.67 1.36 3.34 0 3 C0 2.01 0 1.02 0 0 Z "
        fill="#FFFFFF" transform="translate(68,26)" />
    <path d="M0 0 C1.32 0 2.64 0 4 0 C4 0.99 4 1.98 4 3 C2.68 3 1.36 3 0 3 C0 2.01 0 1.02 0 0 Z "
        fill="#FFFFFF" transform="translate(44,13)" />
    <path
        d="M0 0 C0.33 0.66 0.66 1.32 1 2 C1.66 2 2.32 2 3 2 C3 2.99 3 3.98 3 5 C2.01 5 1.02 5 0 5 C-0.5625 3.0625 -0.5625 3.0625 -1 1 C-0.67 0.67 -0.34 0.34 0 0 Z "
        fill="#FFFFFE" transform="translate(61,4)" />
    <path
        d="M0 0 C0.99 0 1.98 0 3 0 C2.67 1.32 2.34 2.64 2 4 C1.34 4 0.68 4 0 4 C0 2.68 0 1.36 0 0 Z "
        fill="#FFFFFF" transform="translate(44,139)" />
    <path
        d="M0 0 C0.99 0 1.98 0 3 0 C2.67 1.32 2.34 2.64 2 4 C1.34 4 0.68 4 0 4 C0 2.68 0 1.36 0 0 Z "
        fill="#FFFFFF" transform="translate(77,136)" />
    <path
        d="M0 0 C0.99 0.33 1.98 0.66 3 1 C2.67 1.99 2.34 2.98 2 4 C1.34 4 0.68 4 0 4 C-0.33 3.01 -0.66 2.02 -1 1 C-0.67 0.67 -0.34 0.34 0 0 Z "
        fill="#FFFFFF" transform="translate(52,79)" />
    <path
        d="M0 0 C1.32 0.66 2.64 1.32 4 2 C3.67 2.66 3.34 3.32 3 4 C1.68 3.34 0.36 2.68 -1 2 C-0.67 1.34 -0.34 0.68 0 0 Z "
        fill="#FFFFFF" transform="translate(81,46)" />
    <path
        d="M0 0 C1.65 0 3.3 0 5 0 C4.67 0.99 4.34 1.98 4 3 C2.68 2.34 1.36 1.68 0 1 C0 0.67 0 0.34 0 0 Z "
        fill="#FFFFFF" transform="translate(57,46)" />
    <path
        d="M0 0 C0.99 0 1.98 0 3 0 C3 1.32 3 2.64 3 4 C2.01 3.67 1.02 3.34 0 3 C0 2.01 0 1.02 0 0 Z "
        fill="#FFFFFF" transform="translate(34,10)" />
    <path
        d="M0 0 C1.32 0.33 2.64 0.66 4 1 C4 1.66 4 2.32 4 3 C2.68 3 1.36 3 0 3 C0 2.01 0 1.02 0 0 Z "
        fill="#FFFFFF" transform="translate(14,10)" />
    <path
        d="M0 0 C0.99 0 1.98 0 3 0 C3 0.99 3 1.98 3 3 C1.68 2.67 0.36 2.34 -1 2 C-0.67 1.34 -0.34 0.68 0 0 Z "
        fill="#FFFFFF" transform="translate(139,127)" />
    <path
        d="M0 0 C0.99 0 1.98 0 3 0 C3 0.99 3 1.98 3 3 C1.68 2.67 0.36 2.34 -1 2 C-0.67 1.34 -0.34 0.68 0 0 Z "
        fill="#FEFFFF" transform="translate(79,116)" />
    <path
        d="M0 0 C1.32 0.33 2.64 0.66 4 1 C3.67 1.66 3.34 2.32 3 3 C2.01 3 1.02 3 0 3 C0 2.01 0 1.02 0 0 Z "
        fill="#FFFFFF" transform="translate(106,96)" />
    <path
        d="M0 0 C0.99 0 1.98 0 3 0 C3 0.99 3 1.98 3 3 C1.68 2.67 0.36 2.34 -1 2 C-0.67 1.34 -0.34 0.68 0 0 Z "
        fill="#FFFFFF" transform="translate(70,76)" />
    <path
        d="M0 0 C0.99 0.33 1.98 0.66 3 1 C3 1.99 3 2.98 3 4 C2.01 4 1.02 4 0 4 C0 2.68 0 1.36 0 0 Z "
        fill="#FFFFFF" transform="translate(1,51)" />
    <path
        d="M0 0 C1.32 0.33 2.64 0.66 4 1 C3.67 1.99 3.34 2.98 3 4 C1.97895449 3.02149805 0.9793879 2.02019573 0 1 C0 0.67 0 0.34 0 0 Z "
        fill="#FFFFFF" transform="translate(63,41)" />
    <path
        d="M0 0 C0.99 0.33 1.98 0.66 3 1 C3 1.66 3 2.32 3 3 C1.68 3 0.36 3 -1 3 C-0.67 2.01 -0.34 1.02 0 0 Z "
        fill="#FFFFFF" transform="translate(139,34)" />
    <path
        d="M0 0 C0.66 0 1.32 0 2 0 C2 1.32 2 2.64 2 4 C1.01 3.67 0.02 3.34 -1 3 C-0.67 2.01 -0.34 1.02 0 0 Z "
        fill="#FFFFFF" transform="translate(79,12)" />
    <path d="M0 0 C1.98 0.495 1.98 0.495 4 1 C2.35 1.66 0.7 2.32 -1 3 C-0.67 2.01 -0.34 1.02 0 0 Z "
        fill="#FFFFFF" transform="translate(41,132)" />
    <path d="M0 0 C0.99 0 1.98 0 3 0 C3 0.99 3 1.98 3 3 C2.01 3 1.02 3 0 3 C0 2.01 0 1.02 0 0 Z "
        fill="#FEFFFF" transform="translate(48,117)" />
    <path d="M0 0 C0.99 0 1.98 0 3 0 C3 0.99 3 1.98 3 3 C2.01 3 1.02 3 0 3 C0 2.01 0 1.02 0 0 Z "
        fill="#FFFFFF" transform="translate(2,114)" />
    <path d="M0 0 C0.99 0 1.98 0 3 0 C3 0.99 3 1.98 3 3 C2.01 3 1.02 3 0 3 C0 2.01 0 1.02 0 0 Z "
        fill="#FFFFFF" transform="translate(81,98)" />
    <path
        d="M0 0 C0.66 0.33 1.32 0.66 2 1 C2 1.99 2 2.98 2 4 C1.01 3.67 0.02 3.34 -1 3 C-0.67 2.01 -0.34 1.02 0 0 Z "
        fill="#FFFFFF" transform="translate(41,89)" />
    <path
        d="M0 0 C0.99 0 1.98 0 3 0 C2.67 0.99 2.34 1.98 2 3 C1.01 2.67 0.02 2.34 -1 2 C-0.67 1.34 -0.34 0.68 0 0 Z "
        fill="#FFFFFF" transform="translate(118,89)" />
    <path
        d="M0 0 C0.99 0 1.98 0 3 0 C2.67 0.99 2.34 1.98 2 3 C1.01 2.67 0.02 2.34 -1 2 C-0.67 1.34 -0.34 0.68 0 0 Z "
        fill="#FFFFFF" transform="translate(70,82)" />
    <path d="M0 0 C0.99 0 1.98 0 3 0 C3 0.99 3 1.98 3 3 C2.01 3 1.02 3 0 3 C0 2.01 0 1.02 0 0 Z "
        fill="#FFFFFF" transform="translate(81,70)" />
    <path d="M0 0 C0.99 0 1.98 0 3 0 C3 0.99 3 1.98 3 3 C2.01 3 1.02 3 0 3 C0 2.01 0 1.02 0 0 Z "
        fill="#FFFFFF" transform="translate(52,68)" />
    <path d="M0 0 C0.99 0 1.98 0 3 0 C3 0.99 3 1.98 3 3 C2.01 3 1.02 3 0 3 C0 2.01 0 1.02 0 0 Z "
        fill="#FFFFFF" transform="translate(47,66)" />
    <path
        d="M0 0 C0.99 0 1.98 0 3 0 C2.67 0.99 2.34 1.98 2 3 C1.01 2.67 0.02 2.34 -1 2 C-0.67 1.34 -0.34 0.68 0 0 Z "
        fill="#FFFFFF" transform="translate(79,65)" />
    <path
        d="M0 0 C0.66 0 1.32 0 2 0 C1.67 1.32 1.34 2.64 1 4 C0.34 3.67 -0.32 3.34 -1 3 C-0.67 2.01 -0.34 1.02 0 0 Z "
        fill="#FFFFFF" transform="translate(56,51)" />
    <path d="M0 0 C0.99 0 1.98 0 3 0 C3 0.99 3 1.98 3 3 C2.01 3 1.02 3 0 3 C0 2.01 0 1.02 0 0 Z "
        fill="#FFFFFF" transform="translate(52,49)" />
    <path d="M0 0 C0.99 0 1.98 0 3 0 C3 0.99 3 1.98 3 3 C2.01 3 1.02 3 0 3 C0 2.01 0 1.02 0 0 Z "
        fill="#FFFFFF" transform="translate(2,36)" />
    <path d="M0 0 C0.99 0 1.98 0 3 0 C3 0.99 3 1.98 3 3 C2.01 3 1.02 3 0 3 C0 2.01 0 1.02 0 0 Z "
        fill="#FFFFFF" transform="translate(85,33)" />
    <path d="M0 0 C0.99 0 1.98 0 3 0 C3 0.99 3 1.98 3 3 C2.01 3 1.02 3 0 3 C0 2.01 0 1.02 0 0 Z "
        fill="#FFFFFF" transform="translate(85,14)" />
    <path
        d="M0 0 C0.99 0.33 1.98 0.66 3 1 C2.67 1.99 2.34 2.98 2 4 C1.34 3.67 0.68 3.34 0 3 C0 2.01 0 1.02 0 0 Z "
        fill="#FFFFFF" transform="translate(6,5)" />
    <path
        d="M0 0 C1.32 0.33 2.64 0.66 4 1 C3.67 1.66 3.34 2.32 3 3 C2.01 2.67 1.02 2.34 0 2 C0 1.34 0 0.68 0 0 Z "
        fill="#FFFFFF" transform="translate(0,5)" />
    <path
        d="M0 0 C1.2065625 0.0309375 1.2065625 0.0309375 2.4375 0.0625 C1.4475 0.7225 0.4575 1.3825 -0.5625 2.0625 C-1.5525 1.7325 -2.5425 1.4025 -3.5625 1.0625 C-2.5625 0.0625 -2.5625 0.0625 0 0 Z "
        fill="#FFFFFF" transform="translate(141.5625,113.9375)" />
    <path d="M0 0 C0.66 1.32 1.32 2.64 2 4 C1.01 3.67 0.02 3.34 -1 3 C-0.67 2.01 -0.34 1.02 0 0 Z "
        fill="#FFFEFF" transform="translate(64,106)" />
    <path
        d="M0 0 C1.98 0.495 1.98 0.495 4 1 C3.67 1.66 3.34 2.32 3 3 C1.68 2.67 0.36 2.34 -1 2 C-0.67 1.34 -0.34 0.68 0 0 Z "
        fill="#FFFFFF" transform="translate(46,44)" />
    <path
        d="M0 0 C2.475 0.495 2.475 0.495 5 1 C4.34 1.66 3.68 2.32 3 3 C2.01 2.67 1.02 2.34 0 2 C0 1.34 0 0.68 0 0 Z "
        fill="#FFFFFF" transform="translate(57,135)" />
    <path d="M0 0 C0 0.99 0 1.98 0 3 C-0.99 3 -1.98 3 -3 3 C-2.01 2.01 -1.02 1.02 0 0 Z "
        fill="#FFFFFF" transform="translate(55,130)" />
    <path
        d="M0 0 C2.0625 0.4375 2.0625 0.4375 4 1 C3.67 1.66 3.34 2.32 3 3 C1.68 2.34 0.36 1.68 -1 1 C-0.67 0.67 -0.34 0.34 0 0 Z "
        fill="#FFFFFF" transform="translate(88,67)" />
    <path
        d="M0 0 C0.99 0.33 1.98 0.66 3 1 C2.67 1.66 2.34 2.32 2 3 C1.01 2.67 0.02 2.34 -1 2 C-0.67 1.34 -0.34 0.68 0 0 Z "
        fill="#FFFFFF" transform="translate(65,57)" />
    <path d="M0 0 C0.66 0.66 1.32 1.32 2 2 C1.01 2.66 0.02 3.32 -1 4 C-0.67 2.68 -0.34 1.36 0 0 Z "
        fill="#FFFFFF" transform="translate(12,53)" />
    <path
        d="M0 0 C0.33 0.66 0.66 1.32 1 2 C-0.32 2.33 -1.64 2.66 -3 3 C-3.33 2.34 -3.66 1.68 -4 1 C-2.68 0.67 -1.36 0.34 0 0 Z "
        fill="#FFFFFF" transform="translate(28,24)" />
    <path
        d="M0 0 C0.66 0 1.32 0 2 0 C1.67 1.32 1.34 2.64 1 4 C0.34 3.34 -0.32 2.68 -1 2 C-0.67 1.34 -0.34 0.68 0 0 Z "
        fill="#FFFFFF" transform="translate(29,6)" />
    <path d="M0 0 C0.66 0 1.32 0 2 0 C2 0.99 2 1.98 2 3 C1.34 3 0.68 3 0 3 C0 2.01 0 1.02 0 0 Z "
        fill="#FFFFFF" transform="translate(118,141)" />
    <path d="M0 0 C0.66 0.66 1.32 1.32 2 2 C1.01 2.33 0.02 2.66 -1 3 C-0.67 2.01 -0.34 1.02 0 0 Z "
        fill="#FFFFFF" transform="translate(35,131)" />
    <path
        d="M0 0 C0.66 0 1.32 0 2 0 C2.33 1.32 2.66 2.64 3 4 C1.97895449 3.02149805 0.9793879 2.02019573 0 1 C0 0.67 0 0.34 0 0 Z "
        fill="#FFFFFF" transform="translate(73,106)" />
    <path d="M0 0 C0.66 0.66 1.32 1.32 2 2 C1.01 2.33 0.02 2.66 -1 3 C-0.67 2.01 -0.34 1.02 0 0 Z "
        fill="#FFFFFF" transform="translate(69,103)" />
    <path d="M0 0 C0.66 0.66 1.32 1.32 2 2 C0.68 2.33 -0.64 2.66 -2 3 C-1.34 2.01 -0.68 1.02 0 0 Z "
        fill="#FFFFFF" transform="translate(140,101)" />
    <path
        d="M0 0 C0.33 0.99 0.66 1.98 1 3 C0.01 3.495 0.01 3.495 -1 4 C-0.67 2.68 -0.34 1.36 0 0 Z "
        fill="#FFFFFF" transform="translate(19,53)" />
    <path
        d="M0 0 C0.99 0 1.98 0 3 0 C2.67 0.66 2.34 1.32 2 2 C1.34 2 0.68 2 0 2 C0 1.34 0 0.68 0 0 Z "
        fill="#FFFFFF" transform="translate(65,138)" />
    <path d="M0 0 C0.33 0.99 0.66 1.98 1 3 C0.34 3 -0.32 3 -1 3 C-0.67 2.01 -0.34 1.02 0 0 Z "
        fill="#FFFFFE" transform="translate(87,97)" />
    <path d="M0 0 C0.66 0.66 1.32 1.32 2 2 C1.01 2 0.02 2 -1 2 C-0.67 1.34 -0.34 0.68 0 0 Z "
        fill="#FFFFFF" transform="translate(18,97)" />
    <path d="M0 0 C0 0.99 0 1.98 0 3 C-0.66 2.34 -1.32 1.68 -2 1 C-1.34 0.67 -0.68 0.34 0 0 Z "
        fill="#FFFFFF" transform="translate(76,87)" />
    <path d="M0 0 C0.66 0.66 1.32 1.32 2 2 C1.01 2 0.02 2 -1 2 C-0.67 1.34 -0.34 0.68 0 0 Z "
        fill="#FFFFFF" transform="translate(136,64)" />
    <path d="M0 0 C0.66 0.66 1.32 1.32 2 2 C1.01 2 0.02 2 -1 2 C-0.67 1.34 -0.34 0.68 0 0 Z "
        fill="#FFFFFF" transform="translate(6,46)" />
    <path
        d="M0 0 C0.33 0.66 0.66 1.32 1 2 C0.01 2.33 -0.98 2.66 -2 3 C-2 2.34 -2 1.68 -2 1 C-1.34 0.67 -0.68 0.34 0 0 Z "
        fill="#FFFFFF" transform="translate(39,33)" />
    <path d="M0 0 C0.66 0.33 1.32 0.66 2 1 C1.34 1.66 0.68 2.32 0 3 C0 2.01 0 1.02 0 0 Z "
        fill="#FFFFFF" transform="translate(6,30)" />
    <path d="M0 0 C0.66 0.66 1.32 1.32 2 2 C1.01 2 0.02 2 -1 2 C-0.67 1.34 -0.34 0.68 0 0 Z "
        fill="#FFFFFF" transform="translate(16,22)" />
    <path d="M0 0 C0.66 0.66 1.32 1.32 2 2 C1.01 2 0.02 2 -1 2 C-0.67 1.34 -0.34 0.68 0 0 Z "
        fill="#FFFFFF" transform="translate(125,8)" />
    <path d="M0 0 C0.66 0 1.32 0 2 0 C2 0.66 2 1.32 2 2 C1.34 2 0.68 2 0 2 C0 1.34 0 0.68 0 0 Z "
        fill="#FEFFFF" transform="translate(55,133)" />
    <path d="M0 0 C0 3 0 3 0 3 Z " fill="#FFFFFF" transform="translate(32,131)" />
    <path d="M0 0 C0.66 0.66 1.32 1.32 2 2 C1.01 2.495 1.01 2.495 0 3 C0 2.01 0 1.02 0 0 Z "
        fill="#FFFFFF" transform="translate(115,128)" />
    <path d="M0 0 C0.66 0.66 1.32 1.32 2 2 C1.01 1.67 0.02 1.34 -1 1 C-0.67 0.67 -0.34 0.34 0 0 Z "
        fill="#FFFFFF" transform="translate(12,124)" />
    <path d="M0 0 C0.99 0.33 1.98 0.66 3 1 C2.01 1 1.02 1 0 1 C0 0.67 0 0.34 0 0 Z " fill="#FFFFFF"
        transform="translate(99,120)" />
    <path d="M0 0 C0.99 0.33 1.98 0.66 3 1 C2.01 1 1.02 1 0 1 C0 0.67 0 0.34 0 0 Z " fill="#FFFFFF"
        transform="translate(50,114)" />
    <path d="M0 0 C0.99 0.33 1.98 0.66 3 1 C2.01 1 1.02 1 0 1 C0 0.67 0 0.34 0 0 Z " fill="#FFFFFF"
        transform="translate(73,101)" />
    <path d="M0 0 C0.99 0.33 1.98 0.66 3 1 C2.01 1 1.02 1 0 1 C0 0.67 0 0.34 0 0 Z " fill="#FFFFFF"
        transform="translate(136,94)" />
    <path d="M0 0 C0 3 0 3 0 3 Z " fill="#FFFFFF" transform="translate(70,88)" />
    <path d="M0 0 C0.66 0.66 1.32 1.32 2 2 C1.01 1.67 0.02 1.34 -1 1 C-0.67 0.67 -0.34 0.34 0 0 Z "
        fill="#FFFFFF" transform="translate(16,84)" />
    <path d="M0 0 C0.66 0 1.32 0 2 0 C2 0.66 2 1.32 2 2 C1.34 2 0.68 2 0 2 C0 1.34 0 0.68 0 0 Z "
        fill="#FFFFFF" transform="translate(101,80)" />
    <path d="M0 0 C0.66 0.33 1.32 0.66 2 1 C1.01 1 0.02 1 -1 1 C-0.67 0.67 -0.34 0.34 0 0 Z "
        fill="#FFFFFF" transform="translate(12,76)" />
    <path d="M0 0 C0 3 0 3 0 3 Z " fill="#FFFFFF" transform="translate(113,57)" />
    <path d="M0 0 C0.99 0.33 1.98 0.66 3 1 C2.01 1 1.02 1 0 1 C0 0.67 0 0.34 0 0 Z " fill="#FFFFFF"
        transform="translate(121,38)" />
    <path d="M0 0 C0.66 0.66 1.32 1.32 2 2 C1.01 1.67 0.02 1.34 -1 1 C-0.67 0.67 -0.34 0.34 0 0 Z "
        fill="#FFFFFF" transform="translate(13,24)" />
    <path d="M0 0 C0.66 0 1.32 0 2 0 C2 0.66 2 1.32 2 2 C1.34 2 0.68 2 0 2 C0 1.34 0 0.68 0 0 Z "
        fill="#FFFFFF" transform="translate(130,9)" />
    <path d="M0 0 C0.99 0.33 1.98 0.66 3 1 C2.01 1 1.02 1 0 1 C0 0.67 0 0.34 0 0 Z " fill="#FFFFFF"
        transform="translate(21,2)" />
    <path d="M0 0 C0.66 0.66 1.32 1.32 2 2 C1.34 2 0.68 2 0 2 C0 1.34 0 0.68 0 0 Z " fill="#FFFFFF"
        transform="translate(132,141)" />
    <path d="M0 0 C0.99 0.495 0.99 0.495 2 1 C1.01 1.495 1.01 1.495 0 2 C0 1.34 0 0.68 0 0 Z "
        fill="#FFFFFF" transform="translate(122,142)" />
    <path d="M0 0 C0.66 0 1.32 0 2 0 C1.67 0.66 1.34 1.32 1 2 C0.67 1.34 0.34 0.68 0 0 Z "
        fill="#FFFFFF" transform="translate(52,141)" />
    <path d="M0 0 C0.99 0.495 0.99 0.495 2 1 C1.01 1.495 1.01 1.495 0 2 C0 1.34 0 0.68 0 0 Z "
        fill="#FFFFFF" transform="translate(62,139)" />
    <path d="M0 0 C0.66 0.66 1.32 1.32 2 2 C1.34 2 0.68 2 0 2 C0 1.34 0 0.68 0 0 Z " fill="#FFFFFF"
        transform="translate(139,137)" />
    <path d="M0 0 C0.33 0.66 0.66 1.32 1 2 C0.34 1.67 -0.32 1.34 -1 1 C-0.67 0.67 -0.34 0.34 0 0 Z "
        fill="#FFFFFF" transform="translate(58,138)" />
    <path d="M0 0 C0.66 0.66 1.32 1.32 2 2 C1.34 2 0.68 2 0 2 C0 1.34 0 0.68 0 0 Z " fill="#FFFFFF"
        transform="translate(134,136)" />
    <path d="M0 0 C0.66 0 1.32 0 2 0 C1.67 0.66 1.34 1.32 1 2 C0.67 1.34 0.34 0.68 0 0 Z "
        fill="#FFFFFF" transform="translate(33,137)" />
    <path d="M0 0 C0.99 0.495 0.99 0.495 2 1 C1.01 1.495 1.01 1.495 0 2 C0 1.34 0 0.68 0 0 Z "
        fill="#FFFFFF" transform="translate(132,134)" />
    <path d="M0 0 C0.33 0.66 0.66 1.32 1 2 C0.34 1.67 -0.32 1.34 -1 1 C-0.67 0.67 -0.34 0.34 0 0 Z "
        fill="#FFFFFF" transform="translate(110,130)" />
    <path d="M0 0 C0.66 0.66 1.32 1.32 2 2 C1.34 2 0.68 2 0 2 C0 1.34 0 0.68 0 0 Z " fill="#FFFFFF"
        transform="translate(36,129)" />
    <path d="M0 0 C0.66 0 1.32 0 2 0 C1.67 0.66 1.34 1.32 1 2 C0.67 1.34 0.34 0.68 0 0 Z "
        fill="#FFFFFF" transform="translate(27,129)" />
    <path d="M0 0 C0.33 0.66 0.66 1.32 1 2 C0.34 1.67 -0.32 1.34 -1 1 C-0.67 0.67 -0.34 0.34 0 0 Z "
        fill="#FFFFFF" transform="translate(112,121)" />
    <path d="M0 0 C0.99 0.495 0.99 0.495 2 1 C1.01 1.495 1.01 1.495 0 2 C0 1.34 0 0.68 0 0 Z "
        fill="#FFFFFF" transform="translate(108,121)" />
    <path d="M0 0 C0.99 0.495 0.99 0.495 2 1 C1.01 1.495 1.01 1.495 0 2 C0 1.34 0 0.68 0 0 Z "
        fill="#FFFFFF" transform="translate(114,119)" />
    <path d="M0 0 C0.99 0.495 0.99 0.495 2 1 C1.01 1.495 1.01 1.495 0 2 C0 1.34 0 0.68 0 0 Z "
        fill="#FFFFFF" transform="translate(110,119)" />
    <path d="M0 0 C0.99 0.495 0.99 0.495 2 1 C1.01 1.495 1.01 1.495 0 2 C0 1.34 0 0.68 0 0 Z "
        fill="#FFFFFF" transform="translate(45,117)" />
    <path d="M0 0 C0.33 0.66 0.66 1.32 1 2 C0.34 1.67 -0.32 1.34 -1 1 C-0.67 0.67 -0.34 0.34 0 0 Z "
        fill="#FFFFFF" transform="translate(11,113)" />
    <path d="M0 0 C0.66 0 1.32 0 2 0 C1.67 0.66 1.34 1.32 1 2 C0.67 1.34 0.34 0.68 0 0 Z "
        fill="#FFFFFF" transform="translate(117,108)" />
    <path d="M0 0 C0.33 0.66 0.66 1.32 1 2 C0.34 1.67 -0.32 1.34 -1 1 C-0.67 0.67 -0.34 0.34 0 0 Z "
        fill="#FFFFFF" transform="translate(133,105)" />
    <path d="M0 0 C0.66 0 1.32 0 2 0 C1.67 0.66 1.34 1.32 1 2 C0.67 1.34 0.34 0.68 0 0 Z "
        fill="#FFFFFF" transform="translate(64,104)" />
    <path d="M0 0 C0.66 0.66 1.32 1.32 2 2 C1.34 2 0.68 2 0 2 C0 1.34 0 0.68 0 0 Z " fill="#FFFFFF"
        transform="translate(84,101)" />
    <path d="M0 0 C0.33 0.66 0.66 1.32 1 2 C0.34 1.67 -0.32 1.34 -1 1 C-0.67 0.67 -0.34 0.34 0 0 Z "
        fill="#FFFFFF" transform="translate(129,101)" />
    <path d="M0 0 C0.66 0.66 1.32 1.32 2 2 C1.34 2 0.68 2 0 2 C0 1.34 0 0.68 0 0 Z " fill="#FFFFFF"
        transform="translate(74,98)" />
    <path d="M0 0 C0.99 0.495 0.99 0.495 2 1 C1.01 1.495 1.01 1.495 0 2 C0 1.34 0 0.68 0 0 Z "
        fill="#FFFFFF" transform="translate(27,98)" />
    <path d="M0 0 C0.66 0.66 1.32 1.32 2 2 C1.34 2 0.68 2 0 2 C0 1.34 0 0.68 0 0 Z " fill="#FFFFFF"
        transform="translate(95,96)" />
    <path d="M0 0 C0.66 0.66 1.32 1.32 2 2 C1.34 2 0.68 2 0 2 C0 1.34 0 0.68 0 0 Z " fill="#FFFFFF"
        transform="translate(117,94)" />
    <path d="M0 0 C0.99 0.495 0.99 0.495 2 1 C1.01 1.495 1.01 1.495 0 2 C0 1.34 0 0.68 0 0 Z "
        fill="#FFFFFF" transform="translate(119,93)" />
    <path d="M0 0 C0.66 0.66 1.32 1.32 2 2 C1.34 2 0.68 2 0 2 C0 1.34 0 0.68 0 0 Z " fill="#FFFFFF"
        transform="translate(123,91)" />
    <path d="M0 0 C0.66 0 1.32 0 2 0 C1.67 0.66 1.34 1.32 1 2 C0.67 1.34 0.34 0.68 0 0 Z "
        fill="#FFFFFF" transform="translate(21,92)" />
    <path d="M0 0 C0.99 0.495 0.99 0.495 2 1 C1.01 1.495 1.01 1.495 0 2 C0 1.34 0 0.68 0 0 Z "
        fill="#FFFFFF" transform="translate(3,90)" />
    <path d="M0 0 C0.66 0 1.32 0 2 0 C1.67 0.66 1.34 1.32 1 2 C0.67 1.34 0.34 0.68 0 0 Z "
        fill="#FFFFFF" transform="translate(24,89)" />
    <path d="M0 0 C0.66 0.66 1.32 1.32 2 2 C1.34 2 0.68 2 0 2 C0 1.34 0 0.68 0 0 Z " fill="#FFFFFF"
        transform="translate(128,82)" />
    <path d="M0 0 C0.33 0.66 0.66 1.32 1 2 C0.34 1.67 -0.32 1.34 -1 1 C-0.67 0.67 -0.34 0.34 0 0 Z "
        fill="#FFFFFF" transform="translate(109,83)" />
    <path d="M0 0 C0.33 0.66 0.66 1.32 1 2 C0.34 1.67 -0.32 1.34 -1 1 C-0.67 0.67 -0.34 0.34 0 0 Z "
        fill="#FFFFFF" transform="translate(116,81)" />
    <path d="M0 0 C0.33 0.66 0.66 1.32 1 2 C0.34 1.67 -0.32 1.34 -1 1 C-0.67 0.67 -0.34 0.34 0 0 Z "
        fill="#FFFFFF" transform="translate(115,78)" />
    <path d="M0 0 C0.33 0.66 0.66 1.32 1 2 C0.34 1.67 -0.32 1.34 -1 1 C-0.67 0.67 -0.34 0.34 0 0 Z "
        fill="#FFFFFF" transform="translate(141,77)" />
    <path d="M0 0 C0.66 0.66 1.32 1.32 2 2 C1.34 2 0.68 2 0 2 C0 1.34 0 0.68 0 0 Z " fill="#FFFFFF"
        transform="translate(14,74)" />
    <path d="M0 0 C0.99 0.495 0.99 0.495 2 1 C1.01 1.495 1.01 1.495 0 2 C0 1.34 0 0.68 0 0 Z "
        fill="#FFFFFF" transform="translate(82,74)" />
    <path d="M0 0 C0.99 0.495 0.99 0.495 2 1 C1.01 1.495 1.01 1.495 0 2 C0 1.34 0 0.68 0 0 Z "
        fill="#FFFFFF" transform="translate(29,72)" />
    <path d="M0 0 C0.66 0.66 1.32 1.32 2 2 C1.34 2 0.68 2 0 2 C0 1.34 0 0.68 0 0 Z " fill="#FFFFFF"
        transform="translate(63,70)" />
    <path d="M0 0 C0.33 0.66 0.66 1.32 1 2 C0.34 1.67 -0.32 1.34 -1 1 C-0.67 0.67 -0.34 0.34 0 0 Z "
        fill="#FFFFFF" transform="translate(86,70)" />
    <path d="M0 0 C0.66 0.66 1.32 1.32 2 2 C1.34 2 0.68 2 0 2 C0 1.34 0 0.68 0 0 Z " fill="#FFFFFF"
        transform="translate(41,68)" />
    <path d="M0 0 C0.66 0.66 1.32 1.32 2 2 C1.34 2 0.68 2 0 2 C0 1.34 0 0.68 0 0 Z " fill="#FFFFFF"
        transform="translate(77,60)" />
    <path d="M0 0 C0.33 0.66 0.66 1.32 1 2 C0.34 1.67 -0.32 1.34 -1 1 C-0.67 0.67 -0.34 0.34 0 0 Z "
        fill="#FFFFFF" transform="translate(123,60)" />
    <path d="M0 0 C0.99 0.495 0.99 0.495 2 1 C1.01 1.495 1.01 1.495 0 2 C0 1.34 0 0.68 0 0 Z "
        fill="#FFFFFF" transform="translate(74,60)" />
    <path d="M0 0 C0.66 0.66 1.32 1.32 2 2 C1.34 2 0.68 2 0 2 C0 1.34 0 0.68 0 0 Z " fill="#FFFFFE"
        transform="translate(120,58)" />
    <path d="M0 0 C0.99 0.495 0.99 0.495 2 1 C1.01 1.495 1.01 1.495 0 2 C0 1.34 0 0.68 0 0 Z "
        fill="#FFFFFF" transform="translate(79,59)" />
    <path d="M0 0 C0.99 0.495 0.99 0.495 2 1 C1.01 1.495 1.01 1.495 0 2 C0 1.34 0 0.68 0 0 Z "
        fill="#FFFFFF" transform="translate(38,58)" />
    <path d="M0 0 C0.33 0.66 0.66 1.32 1 2 C0.34 1.67 -0.32 1.34 -1 1 C-0.67 0.67 -0.34 0.34 0 0 Z "
        fill="#FFFFFF" transform="translate(7,55)" />
    <path d="M0 0 C0.66 0 1.32 0 2 0 C1.67 0.66 1.34 1.32 1 2 C0.67 1.34 0.34 0.68 0 0 Z "
        fill="#FFFFFF" transform="translate(132,53)" />
    <path d="M0 0 C0.99 0.495 0.99 0.495 2 1 C1.01 1.495 1.01 1.495 0 2 C0 1.34 0 0.68 0 0 Z "
        fill="#FFFFFF" transform="translate(28,53)" />
    <path d="M0 0 C0.66 0.66 1.32 1.32 2 2 C1.34 2 0.68 2 0 2 C0 1.34 0 0.68 0 0 Z " fill="#FFFFFF"
        transform="translate(74,51)" />
    <path d="M0 0 C0.66 0 1.32 0 2 0 C1.67 0.66 1.34 1.32 1 2 C0.67 1.34 0.34 0.68 0 0 Z "
        fill="#FFFFFF" transform="translate(120,51)" />
    <path d="M0 0 C0.99 0.495 0.99 0.495 2 1 C1.01 1.495 1.01 1.495 0 2 C0 1.34 0 0.68 0 0 Z "
        fill="#FFFFFF" transform="translate(11,50)" />
    <path d="M0 0 C0.66 0.66 1.32 1.32 2 2 C1.34 2 0.68 2 0 2 C0 1.34 0 0.68 0 0 Z " fill="#FFFFFF"
        transform="translate(43,46)" />
    <path d="M0 0 C0.66 0.66 1.32 1.32 2 2 C1.34 2 0.68 2 0 2 C0 1.34 0 0.68 0 0 Z " fill="#FFFFFF"
        transform="translate(94,45)" />
    <path d="M0 0 C0.66 0 1.32 0 2 0 C1.67 0.66 1.34 1.32 1 2 C0.67 1.34 0.34 0.68 0 0 Z "
        fill="#FFFFFF" transform="translate(39,46)" />
    <path d="M0 0 C0.66 0 1.32 0 2 0 C1.67 0.66 1.34 1.32 1 2 C0.67 1.34 0.34 0.68 0 0 Z "
        fill="#FFFFFF" transform="translate(110,42)" />
    <path d="M0 0 C0.99 0.495 0.99 0.495 2 1 C1.01 1.495 1.01 1.495 0 2 C0 1.34 0 0.68 0 0 Z "
        fill="#FFFFFF" transform="translate(44,42)" />
    <path d="M0 0 C0.66 0.66 1.32 1.32 2 2 C1.34 2 0.68 2 0 2 C0 1.34 0 0.68 0 0 Z " fill="#FFFFFF"
        transform="translate(121,40)" />
    <path d="M0 0 C0.33 0.66 0.66 1.32 1 2 C0.34 1.67 -0.32 1.34 -1 1 C-0.67 0.67 -0.34 0.34 0 0 Z "
        fill="#FFFFFF" transform="translate(41,40)" />
    <path d="M0 0 C0.99 0.495 0.99 0.495 2 1 C1.01 1.495 1.01 1.495 0 2 C0 1.34 0 0.68 0 0 Z "
        fill="#FEFFFF" transform="translate(26,36)" />
    <path d="M0 0 C0.33 0.66 0.66 1.32 1 2 C0.34 1.67 -0.32 1.34 -1 1 C-0.67 0.67 -0.34 0.34 0 0 Z "
        fill="#FFFFFF" transform="translate(78,35)" />
    <path d="M0 0 C0.99 0.495 0.99 0.495 2 1 C1.01 1.495 1.01 1.495 0 2 C0 1.34 0 0.68 0 0 Z "
        fill="#FFFFFF" transform="translate(109,34)" />
    <path d="M0 0 C0.66 0.66 1.32 1.32 2 2 C1.34 2 0.68 2 0 2 C0 1.34 0 0.68 0 0 Z " fill="#FFFFFF"
        transform="translate(79,33)" />
    <path d="M0 0 C0.66 0.66 1.32 1.32 2 2 C1.34 2 0.68 2 0 2 C0 1.34 0 0.68 0 0 Z " fill="#FFFFFF"
        transform="translate(130,32)" />
    <path d="M0 0 C0.99 0.495 0.99 0.495 2 1 C1.01 1.495 1.01 1.495 0 2 C0 1.34 0 0.68 0 0 Z "
        fill="#FFFFFF" transform="translate(7,33)" />
    <path d="M0 0 C0.33 0.66 0.66 1.32 1 2 C0.34 1.67 -0.32 1.34 -1 1 C-0.67 0.67 -0.34 0.34 0 0 Z "
        fill="#FFFFFF" transform="translate(21,32)" />
    <path d="M0 0 C0.66 0.66 1.32 1.32 2 2 C1.34 2 0.68 2 0 2 C0 1.34 0 0.68 0 0 Z " fill="#FFFFFF"
        transform="translate(132,28)" />
    <path d="M0 0 C0.33 0.66 0.66 1.32 1 2 C0.34 1.67 -0.32 1.34 -1 1 C-0.67 0.67 -0.34 0.34 0 0 Z "
        fill="#FFFFFF" transform="translate(74,28)" />
    <path d="M0 0 C0.66 0.66 1.32 1.32 2 2 C1.34 2 0.68 2 0 2 C0 1.34 0 0.68 0 0 Z " fill="#FFFFFF"
        transform="translate(126,25)" />
    <path d="M0 0 C0.66 0 1.32 0 2 0 C1.67 0.66 1.34 1.32 1 2 C0.67 1.34 0.34 0.68 0 0 Z "
        fill="#FFFFFF" transform="translate(94,25)" />
    <path d="M0 0 C0.99 0.495 0.99 0.495 2 1 C1.01 1.495 1.01 1.495 0 2 C0 1.34 0 0.68 0 0 Z "
        fill="#FFFFFF" transform="translate(59,24)" />
    <path d="M0 0 C0.99 0.495 0.99 0.495 2 1 C1.01 1.495 1.01 1.495 0 2 C0 1.34 0 0.68 0 0 Z "
        fill="#FFFFFF" transform="translate(118,22)" />
    <path d="M0 0 C0.66 0 1.32 0 2 0 C1.67 0.66 1.34 1.32 1 2 C0.67 1.34 0.34 0.68 0 0 Z "
        fill="#FFFFFF" transform="translate(36,19)" />
    <path d="M0 0 C0.33 0.66 0.66 1.32 1 2 C0.34 1.67 -0.32 1.34 -1 1 C-0.67 0.67 -0.34 0.34 0 0 Z "
        fill="#FFFFFF" transform="translate(86,18)" />
    <path d="M0 0 C0.66 0 1.32 0 2 0 C1.67 0.66 1.34 1.32 1 2 C0.67 1.34 0.34 0.68 0 0 Z "
        fill="#FFFFFF" transform="translate(82,16)" />
    <path d="M0 0 C0.99 0.495 0.99 0.495 2 1 C1.01 1.495 1.01 1.495 0 2 C0 1.34 0 0.68 0 0 Z "
        fill="#FFFFFF" transform="translate(110,12)" />
    <path d="M0 0 C0.66 0 1.32 0 2 0 C1.67 0.66 1.34 1.32 1 2 C0.67 1.34 0.34 0.68 0 0 Z "
        fill="#FFFFFF" transform="translate(30,11)" />
    <path d="M0 0 C0.66 0 1.32 0 2 0 C1.67 0.66 1.34 1.32 1 2 C0.67 1.34 0.34 0.68 0 0 Z "
        fill="#FFFFFF" transform="translate(92,9)" />
    <path d="M0 0 C0.33 0.66 0.66 1.32 1 2 C0.34 1.67 -0.32 1.34 -1 1 C-0.67 0.67 -0.34 0.34 0 0 Z "
        fill="#FFFFFF" transform="translate(37,7)" />
    <path d="M0 0 C0.66 0 1.32 0 2 0 C1.67 0.66 1.34 1.32 1 2 C0.67 1.34 0.34 0.68 0 0 Z "
        fill="#FFFFFF" transform="translate(126,6)" />
    <path d="M0 0 C0.99 0.495 0.99 0.495 2 1 C1.01 1.495 1.01 1.495 0 2 C0 1.34 0 0.68 0 0 Z "
        fill="#FFFFFF" transform="translate(84,6)" />
    <path d="M0 0 C0.66 0 1.32 0 2 0 C1.67 0.66 1.34 1.32 1 2 C0.67 1.34 0.34 0.68 0 0 Z "
        fill="#FEFFFF" transform="translate(116,5)" />
    <path d="M0 0 C0.66 0 1.32 0 2 0 C1.67 0.66 1.34 1.32 1 2 C0.67 1.34 0.34 0.68 0 0 Z "
        fill="#FFFFFF" transform="translate(65,3)" />
    <path d="M0 0 C0.33 0.66 0.66 1.32 1 2 C0.34 1.67 -0.32 1.34 -1 1 C-0.67 0.67 -0.34 0.34 0 0 Z "
        fill="#FFFFFF" transform="translate(44,3)" />
    <path d="M0 0 C0.99 0.495 0.99 0.495 2 1 C1.01 1.495 1.01 1.495 0 2 C0 1.34 0 0.68 0 0 Z "
        fill="#FFFFFF" transform="translate(140,2)" />
    <path d="M0 0 C0.33 0.66 0.66 1.32 1 2 C0.34 1.67 -0.32 1.34 -1 1 C-0.67 0.67 -0.34 0.34 0 0 Z "
        fill="#FFFFFF" transform="translate(91,1)" />
    <path d="M0 0 C0.33 0.66 0.66 1.32 1 2 C0.34 1.67 -0.32 1.34 -1 1 C-0.67 0.67 -0.34 0.34 0 0 Z "
        fill="#FFFFFF" transform="translate(51,1)" />
    <path d="" fill="#FFFFFF" transform="translate(0,0)" />
    <path d="" fill="#FFFFFF" transform="translate(0,0)" />
    <path d="M0 0 C2 1 2 1 2 1 Z " fill="#FEFFFF" transform="translate(88,94)" />
    <path d="" fill="#FFFFFF" transform="translate(0,0)" />
    <path d="M0 0 C2 1 2 1 2 1 Z " fill="#FFFFFF" transform="translate(124,88)" />
    <path d="M0 0 C2 1 2 1 2 1 Z " fill="#FFFFFF" transform="translate(109,65)" />
    <path d="M0 0 C2 1 2 1 2 1 Z " fill="#FFFFFF" transform="translate(132,64)" />
    <path d="" fill="#FFFFFF" transform="translate(0,0)" />
    <path d="M0 0 C2 1 2 1 2 1 Z " fill="#FFFFFF" transform="translate(16,64)" />
    <path d="" fill="#FFFFFF" transform="translate(0,0)" />
    <path d="" fill="#FFFFFF" transform="translate(0,0)" />
    <path d="M0 0 C2 1 2 1 2 1 Z " fill="#FFFFFF" transform="translate(105,54)" />
    <path d="" fill="#FFFFFF" transform="translate(0,0)" />
    <path d="M0 0 C2 1 2 1 2 1 Z " fill="#FFFFFF" transform="translate(136,34)" />
    <path d="" fill="#FFFFFF" transform="translate(0,0)" />
    <path d="" fill="#FFFFFF" transform="translate(0,0)" />
    <path d="M0 0 C2 1 2 1 2 1 Z " fill="#FFFFFF" transform="translate(103,3)" />
    <path d="M0 0 C2 1 2 1 2 1 Z " fill="#FFFFFF" transform="translate(76,2)" />
    <path d="M0 0 C2 1 2 1 2 1 Z " fill="#FFFFFF" transform="translate(88,1)" />
    <path d="" fill="#FFFFFF" transform="translate(0,0)" />
    <path d="" fill="#FFFFFF" transform="translate(0,0)" />
    <path d="" fill="#FFFFFF" transform="translate(0,0)" />
    <path d="" fill="#FFFFFF" transform="translate(0,0)" />
</svg>