<svg xmlns="http://www.w3.org/2000/svg" xmlns:v="https://svgstorm.com"
viewBox = "0 0 900 747"
width="64px"
height="64px">
<g fill="None" fill-opacity="0.0" stroke="#F7F7F7" stroke-opacity="1.00" stroke-width="0.3"><path d="
M 0.00 747.00 
L 900.00 747.00
L 900.00 0.00
L 0.00 0.00
L 0.00 747.00
M 606.00 536.00 
C 607.42 535.84 609.98 535.13 612.00 535.00
C 634.33 533.57 658.25 523.49 666.00 501.00
C 655.26 502.28 644.11 513.94 632.98 512.98 C 621.85 512.01 611.87 503.06 600.92 500.08 C 589.98 497.09 578.51 488.41 580.00 476.00 C 581.49 463.59 572.00 443.27 591.00 443.00
C 593.31 431.38 602.72 422.22 612.70 415.70 C 622.67 409.18 640.46 405.05 652.22 407.78 C 663.99 410.50 678.43 412.26 686.23 422.77 C 694.03 433.28 713.44 431.30 712.00 446.00 C 710.56 460.70 711.99 477.82 711.67 491.67 C 711.35 505.52 707.47 518.71 701.07 530.07 C 694.68 541.44 686.45 547.02 675.92 553.92 C 665.39 560.82 653.74 564.59 640.99 567.99 C 628.24 571.39 611.32 575.31 597.00 574.00
C 590.94 596.53 571.85 617.03 549.00 623.00
C 556.64 634.45 584.34 631.85 581.00 651.00
C 580.93 652.84 580.17 654.82 580.00 656.00
C 579.87 659.33 580.09 662.67 580.00 666.00
C 579.94 668.30 579.33 670.34 579.00 672.00
C 576.84 682.79 560.81 687.75 551.75 693.75 C 542.70 699.76 529.70 710.38 519.75 703.25 C 509.81 696.11 499.11 691.01 489.25 683.75 C 479.40 676.48 469.62 672.05 461.08 662.92 C 452.55 653.78 452.73 634.53 454.00 622.00
C 457.26 619.96 460.54 618.64 464.00 617.00
C 451.38 610.05 438.56 599.54 430.00 588.00
C 428.67 602.65 429.55 620.50 417.00 631.00
C 415.02 633.12 413.32 635.27 411.00 637.00
C 398.48 646.31 382.27 652.23 367.00 651.00
C 365.76 651.04 363.26 651.11 362.00 651.00
C 323.66 650.99 300.03 620.81 272.00 599.00
C 270.79 598.29 269.96 597.82 269.00 597.00
C 266.70 595.53 263.76 594.97 262.00 593.00
C 251.27 587.69 231.91 586.73 235.33 602.67 C 238.75 618.61 255.56 612.57 257.98 628.03 C 260.39 643.48 243.47 651.41 231.00 647.00 C 218.52 642.59 212.22 635.46 205.08 624.92 C 197.95 614.37 196.90 598.59 200.93 586.93 C 204.95 575.27 211.88 567.34 222.23 560.23 C 232.58 553.12 248.78 551.43 261.02 554.98 C 273.27 558.52 281.95 564.54 292.75 571.25 C 303.54 577.97 311.91 582.98 324.23 587.77 C 336.55 592.56 351.59 593.27 365.07 589.07 C 378.55 584.87 382.54 571.58 382.00 558.00
C 381.84 556.84 381.12 554.75 381.00 553.00
C 380.52 546.24 379.59 539.74 379.00 533.00
C 355.88 542.72 334.15 553.83 307.99 555.99 C 281.83 558.15 257.81 553.57 235.30 538.70 C 212.80 523.82 211.14 493.36 216.98 468.98 C 222.82 444.59 238.58 427.68 247.00 405.00
C 247.06 404.65 247.76 404.26 248.00 404.00
C 251.54 390.28 230.52 379.93 219.93 377.07 C 209.33 374.21 190.45 367.20 189.22 352.78 C 188.00 338.36 188.53 317.35 206.00 315.00
C 207.43 304.30 219.94 302.80 230.22 299.22 C 240.51 295.65 250.54 293.22 262.02 290.02 C 273.51 286.83 282.41 296.08 294.07 297.93 C 305.74 299.77 312.98 308.82 310.00 321.00 C 307.02 333.18 313.03 346.73 300.92 351.92 C 288.82 357.12 285.72 361.80 274.00 366.00
C 291.76 391.23 273.16 414.64 261.07 438.07 C 248.99 461.51 252.15 495.40 281.68 504.32 C 311.20 513.25 336.19 504.52 361.25 490.25 C 386.30 475.97 394.89 448.46 377.75 426.25 C 360.60 404.05 348.57 391.98 333.08 369.92 C 317.59 347.86 313.66 316.16 318.78 290.78 C 323.90 265.40 333.69 242.27 352.75 223.75 C 371.82 205.23 392.44 195.31 419.22 189.22 C 446.00 183.13 483.12 185.43 509.00 195.00
C 494.34 169.92 509.30 133.55 540.00 132.00
C 526.57 121.95 507.58 115.87 509.93 96.93 C 512.28 77.99 511.43 55.37 533.67 53.67 C 555.91 51.97 570.71 43.30 591.00 54.00
C 595.58 44.95 605.26 42.65 615.00 42.00 C 624.74 41.35 634.70 45.16 641.25 52.75 C 647.79 60.34 651.30 66.12 655.77 75.23 C 660.24 84.34 658.45 94.41 656.02 104.02 C 653.60 113.63 643.14 116.69 641.03 126.03 C 638.91 135.36 629.32 137.95 619.78 140.78 C 610.23 143.60 599.36 144.43 589.93 147.93 C 580.50 151.42 570.12 147.60 562.31 153.30 C 554.49 159.01 548.96 167.57 549.00 177.00 C 549.04 186.43 557.26 193.35 562.77 200.23 C 568.28 207.11 575.49 212.05 581.25 218.75 C 587.00 225.45 593.97 229.33 599.75 236.25 C 605.54 243.17 610.42 249.65 615.92 257.08 C 621.42 264.52 625.25 271.96 629.31 280.69 C 633.36 289.43 635.54 299.72 637.33 309.67 C 639.12 319.62 639.57 333.46 637.22 343.22 C 634.87 352.98 633.59 363.60 629.03 372.03 C 624.46 380.45 621.29 387.37 615.75 394.75 C 610.20 402.12 605.16 408.48 599.23 415.23 C 593.30 421.98 586.86 427.37 580.75 433.75 C 574.64 440.14 568.47 446.06 562.25 452.25 C 556.03 458.43 548.70 463.45 542.30 469.30 C 535.91 475.16 527.81 480.49 523.00 487.00
C 534.98 485.95 547.66 491.27 557.70 496.31 C 567.73 501.34 574.51 507.67 582.75 515.25 C 591.00 522.83 591.31 540.10 606.00 536.00 Z"/>
</g>
<g fill="None" fill-opacity="0.0" stroke="#0A0B0B" stroke-opacity="1.00" stroke-width="0.3"><path d="
M 248.00 404.00 
C 252.72 398.89 245.98 386.61 241.75 382.25 C 237.53 377.89 228.67 372.65 223.00 371.00
C 212.42 367.92 197.34 364.95 195.07 351.93 C 192.80 338.90 192.82 323.32 206.00 318.00
C 208.27 331.63 201.77 351.18 216.00 359.00
C 225.59 364.94 231.89 366.58 241.08 373.92 C 250.28 381.26 260.83 369.93 270.03 369.03 C 279.22 368.12 280.88 387.84 279.01 396.01 C 277.13 404.18 268.30 414.75 264.00 422.00
C 255.01 437.14 247.74 455.95 248.00 474.00 C 248.27 492.05 263.21 505.94 279.00 511.00
C 281.57 511.82 284.72 513.34 287.00 514.00
C 318.75 519.47 345.21 511.76 369.90 492.90 C 394.59 474.04 396.93 441.17 378.08 417.92 C 359.23 394.67 347.51 380.67 334.02 353.98 C 320.54 327.28 324.80 292.21 336.00 265.00
C 345.16 242.74 362.21 224.35 383.00 212.00
C 400.52 201.60 421.41 195.79 442.00 195.00
C 446.68 194.33 452.62 193.50 458.00 194.00
C 470.40 195.16 482.90 196.54 495.00 199.00
C 499.77 199.97 502.97 201.05 507.00 203.00
C 540.98 219.43 575.38 237.22 589.99 275.01 C 604.60 312.79 590.68 360.64 562.25 388.25 C 533.82 415.86 498.02 431.94 492.00 472.00
C 491.70 468.94 494.00 466.68 495.00 464.00
C 514.82 428.04 550.06 419.64 575.75 387.75 C 601.44 355.86 613.29 312.41 598.00 271.00
C 593.95 260.02 587.11 250.71 579.25 241.75 C 571.38 232.79 564.81 225.08 554.25 218.75 C 543.70 212.41 537.03 205.00 523.92 201.08 C 510.82 197.16 509.61 179.59 511.98 166.98 C 514.34 154.36 520.20 148.42 531.23 140.23 C 542.26 132.04 553.24 138.86 564.00 145.00
C 552.19 153.44 541.47 173.12 550.31 186.69 C 559.14 200.27 566.88 210.12 576.77 222.23 C 586.66 234.34 597.14 243.06 605.00 256.00
C 620.39 277.33 631.55 303.90 630.00 331.00 C 628.45 358.10 616.28 381.50 601.23 402.23 C 586.18 422.96 571.02 436.98 553.00 455.00
C 538.86 469.14 525.06 487.10 505.00 490.00
C 504.03 488.15 503.21 485.76 501.00 485.00
C 505.68 493.94 493.62 496.65 492.02 506.03 C 490.43 515.40 493.30 523.02 502.08 527.92 C 510.86 532.82 523.21 528.68 522.00 517.00
C 523.77 516.79 525.37 518.54 526.00 520.00
C 534.52 526.32 547.66 528.17 553.92 535.08 C 560.19 541.98 558.07 564.63 548.00 566.00
C 544.79 566.44 541.44 565.29 539.00 565.00
C 534.47 564.91 530.81 563.89 527.00 563.00
C 511.45 559.38 496.35 554.93 485.25 541.75 C 474.15 528.57 470.93 510.45 470.00 494.00
C 469.41 509.69 456.55 522.37 457.00 539.00
C 456.23 550.28 458.48 561.61 464.00 571.00
C 482.20 601.97 523.81 606.99 550.75 581.75 C 577.69 556.52 557.85 514.22 523.00 507.00
C 523.25 507.26 523.00 508.00 523.00 508.00
C 532.66 510.78 543.08 516.75 548.00 526.00
C 537.34 522.41 528.09 515.61 519.00 509.00
C 519.19 509.42 519.00 510.00 519.00 510.00
C 524.92 526.68 508.37 532.50 498.75 522.25 C 489.13 512.00 496.31 499.48 507.23 494.23 C 518.15 488.98 535.87 492.99 546.22 497.78 C 556.58 502.57 565.81 507.28 574.25 515.75 C 582.68 524.23 588.71 533.44 591.78 545.22 C 594.84 557.01 592.77 574.38 588.23 585.23 C 583.69 596.08 577.94 604.32 567.92 610.92 C 557.89 617.52 547.84 624.60 536.77 619.23 C 525.70 613.86 516.03 608.68 503.98 606.02 C 491.92 603.37 478.36 614.26 467.00 616.00
C 445.52 600.54 427.36 576.65 425.00 550.00
C 424.80 547.82 424.09 545.47 424.00 543.00
C 423.40 538.78 423.60 534.10 424.00 530.00
C 424.00 520.38 426.27 512.17 430.00 504.00
C 431.50 500.71 432.77 498.03 435.00 495.00
C 435.63 494.14 436.29 492.69 437.00 492.00
C 421.77 498.22 407.69 511.16 408.00 529.00
C 408.02 530.37 408.84 533.96 409.00 536.00
C 411.07 563.02 430.39 594.69 414.25 620.25 C 398.10 645.80 363.77 646.15 338.00 638.00
C 322.64 633.14 309.99 626.28 297.00 617.00
C 289.13 611.38 280.53 603.98 272.00 599.00
C 300.03 620.81 323.66 650.99 362.00 651.00
C 363.65 651.00 365.36 650.87 367.00 651.00
C 382.27 652.23 398.48 646.31 411.00 637.00
C 412.99 635.27 415.06 632.78 417.00 631.00
C 429.55 620.50 428.67 602.65 430.00 588.00
C 438.56 599.54 451.38 610.05 464.00 617.00
C 460.54 618.64 457.26 619.96 454.00 622.00
C 452.73 634.53 452.55 653.78 461.08 662.92 C 469.62 672.05 479.40 676.48 489.25 683.75 C 499.11 691.01 509.81 696.11 519.75 703.25 C 529.70 710.38 542.70 699.76 551.75 693.75 C 560.81 687.75 576.84 682.79 579.00 672.00
C 579.20 670.06 579.85 667.31 580.00 666.00
C 580.09 662.67 579.87 659.33 580.00 656.00
C 580.07 654.16 580.83 652.19 581.00 651.00
C 584.34 631.85 556.64 634.45 549.00 623.00
C 571.85 617.03 590.94 596.53 597.00 574.00
C 611.32 575.31 628.24 571.39 640.99 567.99 C 653.74 564.59 665.39 560.82 675.92 553.92 C 686.45 547.02 694.68 541.44 701.07 530.07 C 707.47 518.71 711.35 505.52 711.67 491.67 C 711.99 477.82 710.56 460.70 712.00 446.00 C 713.44 431.30 694.03 433.28 686.23 422.77 C 678.43 412.26 663.99 410.50 652.22 407.78 C 640.46 405.05 622.67 409.18 612.70 415.70 C 602.72 422.22 593.31 431.38 591.00 443.00
C 572.00 443.27 581.49 463.59 580.00 476.00 C 578.51 488.41 589.98 497.09 600.92 500.08 C 611.87 503.06 621.85 512.01 632.98 512.98 C 644.11 513.94 655.26 502.28 666.00 501.00
C 658.25 523.49 634.33 533.57 612.00 535.00
C 610.42 535.25 608.19 535.94 606.00 536.00
C 591.31 540.10 591.00 522.83 582.75 515.25 C 574.51 507.67 567.73 501.34 557.70 496.31 C 547.66 491.27 534.98 485.95 523.00 487.00
C 527.81 480.49 535.91 475.16 542.30 469.30 C 548.70 463.45 556.03 458.43 562.25 452.25 C 568.47 446.06 574.64 440.14 580.75 433.75 C 586.86 427.37 593.30 421.98 599.23 415.23 C 605.16 408.48 610.20 402.12 615.75 394.75 C 621.29 387.37 624.46 380.45 629.03 372.03 C 633.59 363.60 634.87 352.98 637.22 343.22 C 639.57 333.46 639.12 319.62 637.33 309.67 C 635.54 299.72 633.36 289.43 629.31 280.69 C 625.25 271.96 621.42 264.52 615.92 257.08 C 610.42 249.65 605.54 243.17 599.75 236.25 C 593.97 229.33 587.00 225.45 581.25 218.75 C 575.49 212.05 568.28 207.11 562.77 200.23 C 557.26 193.35 549.04 186.43 549.00 177.00 C 548.96 167.57 554.49 159.01 562.31 153.30 C 570.12 147.60 580.50 151.42 589.93 147.93 C 599.36 144.43 610.23 143.60 619.78 140.78 C 629.32 137.95 638.91 135.36 641.03 126.03 C 643.14 116.69 653.60 113.63 656.02 104.02 C 658.45 94.41 660.24 84.34 655.77 75.23 C 651.30 66.12 647.79 60.34 641.25 52.75 C 634.70 45.16 624.74 41.35 615.00 42.00 C 605.26 42.65 595.58 44.95 591.00 54.00
C 570.71 43.30 555.91 51.97 533.67 53.67 C 511.43 55.37 512.28 77.99 509.93 96.93 C 507.58 115.87 526.57 121.95 540.00 132.00
C 509.30 133.55 494.34 169.92 509.00 195.00
C 483.12 185.43 446.00 183.13 419.22 189.22 C 392.44 195.31 371.82 205.23 352.75 223.75 C 333.69 242.27 323.90 265.40 318.78 290.78 C 313.66 316.16 317.59 347.86 333.08 369.92 C 348.57 391.98 360.60 404.05 377.75 426.25 C 394.89 448.46 386.30 475.97 361.25 490.25 C 336.19 504.52 311.20 513.25 281.68 504.32 C 252.15 495.40 248.99 461.51 261.07 438.07 C 273.16 414.64 291.76 391.23 274.00 366.00
C 285.72 361.80 288.82 357.12 300.92 351.92 C 313.03 346.73 307.02 333.18 310.00 321.00 C 312.98 308.82 305.74 299.77 294.07 297.93 C 282.41 296.08 273.51 286.83 262.02 290.02 C 250.54 293.22 240.51 295.65 230.22 299.22 C 219.94 302.80 207.43 304.30 206.00 315.00
C 188.53 317.35 188.00 338.36 189.22 352.78 C 190.45 367.20 209.33 374.21 219.93 377.07 C 230.52 379.93 251.54 390.28 248.00 404.00
M 645.00 95.00 
C 645.00 92.76 645.34 90.21 645.00 88.00
C 642.13 78.55 631.56 78.26 623.31 72.69 C 615.05 67.13 608.93 64.71 598.92 59.08 C 588.90 53.46 600.66 45.78 611.00 46.00 C 621.34 46.22 631.86 48.20 638.25 56.75 C 644.63 65.31 647.80 71.28 650.98 81.02 C 654.15 90.77 650.23 102.67 644.00 110.00
C 645.19 105.24 645.09 100.09 645.00 95.00
M 636.00 86.00 
C 621.63 89.65 606.02 89.88 591.78 93.78 C 577.54 97.67 567.07 86.64 555.31 80.70 C 543.54 74.75 534.45 66.33 523.00 60.00
C 541.84 57.28 569.09 48.49 586.70 58.30 C 604.30 68.12 619.04 76.28 636.00 86.00
M 578.00 100.00 
C 574.57 113.86 572.76 128.19 573.00 143.00
C 564.20 139.92 558.49 134.24 549.77 130.23 C 541.05 126.22 536.31 121.21 526.92 117.08 C 517.54 112.94 512.19 105.86 515.00 95.00 C 517.80 84.14 515.22 73.49 519.00 63.00
C 538.56 75.60 559.17 86.25 578.00 100.00
M 642.00 89.00 
C 642.85 101.49 638.57 112.07 637.02 124.02 C 635.48 135.98 621.22 135.75 610.98 138.98 C 600.73 142.20 587.54 143.04 577.00 146.00
C 577.72 130.52 580.16 115.47 581.00 100.00
C 601.17 95.72 621.76 93.05 642.00 89.00
M 302.00 307.00 
C 293.20 313.25 281.79 316.45 271.78 320.78 C 261.76 325.11 250.89 332.51 241.31 325.69 C 231.72 318.88 222.19 316.32 212.00 311.00
C 226.42 304.58 240.28 300.62 256.02 296.02 C 271.77 291.43 287.34 303.56 302.00 307.00
M 304.00 311.00 
C 300.66 320.37 308.34 336.34 301.75 343.75 C 295.16 351.16 284.81 352.34 276.92 357.92 C 269.04 363.51 258.65 366.67 250.00 371.00
C 248.34 360.95 252.22 353.30 250.00 343.00 C 247.78 332.70 256.29 330.08 264.02 328.02 C 271.75 325.97 276.01 321.67 283.23 319.23 C 290.45 316.79 296.65 312.94 304.00 311.00
M 247.00 372.00 
C 237.40 363.97 227.93 361.85 217.77 354.23 C 207.61 346.61 212.07 326.02 210.00 314.00
C 216.41 318.21 224.43 320.95 231.08 324.92 C 237.72 328.90 249.54 330.04 248.00 340.00 C 246.46 349.96 247.11 361.58 247.00 372.00
M 598.00 571.00 
C 599.87 561.74 599.67 550.95 597.00 542.00
C 615.97 543.03 637.27 540.30 652.75 528.75 C 668.23 517.20 677.24 500.31 677.00 481.00 C 676.76 461.69 668.00 446.34 650.77 436.23 C 633.54 426.12 613.03 438.29 595.00 442.00
C 603.59 404.32 659.79 402.23 683.25 427.75 C 706.70 453.28 712.02 499.55 691.70 528.70 C 671.37 557.84 630.17 565.72 598.00 571.00
M 664.00 455.00 
C 651.09 455.48 635.85 470.02 622.98 463.02 C 610.10 456.03 596.66 455.36 585.00 447.00
C 599.63 443.99 616.08 440.80 630.07 436.07 C 644.07 431.34 657.70 443.31 664.00 455.00
M 705.00 439.00 
C 701.68 441.11 697.95 439.05 698.00 435.00
C 700.03 436.91 704.83 435.60 705.00 439.00
M 708.00 440.00 
C 707.35 444.83 709.31 450.99 707.00 455.00
C 705.98 450.47 703.19 446.50 702.00 442.00
C 704.33 442.44 706.02 440.76 708.00 440.00
M 632.00 468.00 
C 632.00 481.00 632.00 494.00 632.00 507.00
C 616.55 500.42 600.37 494.99 586.00 486.00
C 585.26 474.36 583.85 462.87 584.00 451.00
C 599.37 458.44 615.36 464.36 632.00 468.00
M 671.00 474.00 
C 671.57 477.19 671.51 479.89 671.00 483.00
C 670.77 487.27 669.72 490.86 669.00 495.00
C 656.78 497.17 646.27 505.01 634.00 507.00
C 634.00 494.00 634.00 481.00 634.00 468.00
C 644.98 465.45 655.51 461.18 666.00 457.00
C 668.71 462.36 670.74 467.90 671.00 474.00
M 432.00 496.00 
C 421.44 508.63 417.92 525.42 414.00 540.00
C 409.50 523.32 415.53 503.19 432.00 496.00
M 480.00 580.00 
C 476.64 577.60 473.42 574.25 471.00 571.00
C 457.32 552.60 456.68 527.67 468.00 508.00
C 470.84 526.18 475.12 546.69 491.75 558.25 C 508.38 569.82 527.65 572.46 546.00 575.00
C 528.42 591.00 499.24 596.36 480.00 580.00
M 569.00 640.00 
C 562.04 643.77 554.14 648.14 546.75 651.75 C 539.37 655.36 532.02 662.71 524.77 658.23 C 517.52 653.75 510.14 650.13 502.75 646.25 C 495.37 642.36 487.27 639.17 479.92 635.08 C 472.58 630.98 465.07 627.59 459.00 622.00
C 471.73 619.15 485.35 611.03 498.07 609.07 C 510.79 607.12 520.77 620.39 533.08 623.92 C 545.38 627.46 556.71 636.30 569.00 640.00
M 529.00 702.00 
C 517.66 696.29 510.00 689.56 498.77 683.23 C 487.54 676.90 480.76 670.04 468.75 663.25 C 456.75 656.45 455.77 638.85 457.00 625.00
C 468.36 631.04 475.27 638.20 487.25 643.75 C 499.22 649.31 507.34 654.86 520.23 660.77 C 533.12 666.69 525.83 689.33 529.00 702.00
M 576.00 642.00 
C 576.09 655.15 577.67 675.93 563.77 680.77 C 549.87 685.61 544.62 694.14 532.00 700.00
C 533.09 685.64 526.47 664.53 541.08 659.08 C 555.68 653.62 561.60 646.04 576.00 642.00 Z"/>
</g>
<g fill="None" fill-opacity="0.0" stroke="#B7C5D5" stroke-opacity="1.00" stroke-width="0.3"><path d="
M 645.00 88.00 
C 645.83 90.74 645.24 92.51 645.00 95.00
C 645.09 100.09 645.19 105.24 644.00 110.00
C 650.23 102.67 654.15 90.77 650.98 81.02 C 647.80 71.28 644.63 65.31 638.25 56.75 C 631.86 48.20 621.34 46.22 611.00 46.00 C 600.66 45.78 588.90 53.46 598.92 59.08 C 608.93 64.71 615.05 67.13 623.31 72.69 C 631.56 78.26 642.13 78.55 645.00 88.00 Z"/>
</g>
<g fill="None" fill-opacity="0.0" stroke="#72CDFB" stroke-opacity="1.00" stroke-width="0.3"><path d="
M 636.00 86.00 
C 619.04 76.28 604.30 68.12 586.70 58.30 C 569.09 48.49 541.84 57.28 523.00 60.00
C 534.45 66.33 543.54 74.75 555.31 80.70 C 567.07 86.64 577.54 97.67 591.78 93.78 C 606.02 89.88 621.63 89.65 636.00 86.00 Z"/>
</g>
<g fill="None" fill-opacity="0.0" stroke="#29B4FB" stroke-opacity="1.00" stroke-width="0.3"><path d="
M 578.00 100.00 
C 559.17 86.25 538.56 75.60 519.00 63.00
C 515.22 73.49 517.80 84.14 515.00 95.00 C 512.19 105.86 517.54 112.94 526.92 117.08 C 536.31 121.21 541.05 126.22 549.77 130.23 C 558.49 134.24 564.20 139.92 573.00 143.00
C 572.76 128.19 574.57 113.86 578.00 100.00 Z"/>
</g>
<g fill="None" fill-opacity="0.0" stroke="#5E666E" stroke-opacity="1.00" stroke-width="0.3"><path d="
M 645.00 95.00 
C 645.24 92.51 645.83 90.74 645.00 88.00
C 645.34 90.21 645.00 92.76 645.00 95.00 Z"/>
</g>
<g fill="None" fill-opacity="0.0" stroke="#0F5882" stroke-opacity="1.00" stroke-width="0.3"><path d="
M 642.00 89.00 
C 621.76 93.05 601.17 95.72 581.00 100.00
C 580.16 115.47 577.72 130.52 577.00 146.00
C 587.54 143.04 600.73 142.20 610.98 138.98 C 621.22 135.75 635.48 135.98 637.02 124.02 C 638.57 112.07 642.85 101.49 642.00 89.00
M 638.00 92.00 
C 641.63 94.28 635.89 104.31 635.07 109.07 C 634.26 113.83 635.82 122.60 632.67 128.67 C 629.52 134.74 621.28 129.10 625.00 123.00 C 628.72 116.90 627.24 109.14 628.00 104.00 C 628.76 98.86 631.75 88.08 638.00 92.00
M 626.00 95.00 
C 624.89 101.80 624.06 110.32 623.00 117.00 C 621.94 123.68 621.88 134.59 613.00 133.00
C 612.70 125.60 614.82 117.42 615.33 110.33 C 615.84 103.24 616.53 93.02 626.00 95.00
M 614.00 97.00 
C 611.77 103.82 612.68 113.21 611.01 120.01 C 609.34 126.80 611.82 137.62 602.00 137.00
C 602.16 129.55 603.73 119.12 604.00 112.00 C 604.27 104.88 605.92 94.65 614.00 97.00
M 603.00 100.00 
C 601.83 106.49 600.96 114.59 600.00 121.00 C 599.05 127.42 600.11 138.17 591.00 137.00
C 591.26 130.10 592.59 122.29 593.78 115.78 C 594.97 109.27 593.50 98.44 603.00 100.00
M 580.00 141.00 
C 582.40 135.78 580.02 127.13 582.00 122.00 C 583.98 116.87 580.48 107.53 584.78 103.78 C 589.07 100.03 595.07 99.77 591.22 109.22 C 587.38 118.68 592.96 139.31 580.00 141.00 Z"/>
</g>
<g fill="None" fill-opacity="0.0" stroke="#04426C" stroke-opacity="1.00" stroke-width="0.3"><path d="
M 638.00 92.00 
C 631.75 88.08 628.76 98.86 628.00 104.00 C 627.24 109.14 628.72 116.90 625.00 123.00 C 621.28 129.10 629.52 134.74 632.67 128.67 C 635.82 122.60 634.26 113.83 635.07 109.07 C 635.89 104.31 641.63 94.28 638.00 92.00
M 636.00 95.00 
C 634.46 100.48 634.44 107.30 632.67 112.67 C 630.90 118.04 633.71 128.04 627.00 129.00
C 627.42 123.16 628.83 116.57 629.99 110.99 C 631.16 105.41 629.31 95.26 636.00 95.00 Z"/>
</g>
<g fill="None" fill-opacity="0.0" stroke="#04436C" stroke-opacity="1.00" stroke-width="0.3"><path d="
M 626.00 95.00 
C 616.53 93.02 615.84 103.24 615.33 110.33 C 614.82 117.42 612.70 125.60 613.00 133.00
C 621.88 134.59 621.94 123.68 623.00 117.00 C 624.06 110.32 624.89 101.80 626.00 95.00
M 624.00 97.00 
C 620.79 108.37 622.13 122.12 616.00 132.00
C 614.91 126.96 616.42 119.31 617.78 113.78 C 619.13 108.25 616.00 96.57 624.00 97.00 Z"/>
</g>
<g fill="None" fill-opacity="0.0" stroke="#0F5B86" stroke-opacity="1.00" stroke-width="0.3"><path d="
M 636.00 95.00 
C 629.31 95.26 631.16 105.41 629.99 110.99 C 628.83 116.57 627.42 123.16 627.00 129.00
C 633.71 128.04 630.90 118.04 632.67 112.67 C 634.44 107.30 634.46 100.48 636.00 95.00 Z"/>
</g>
<g fill="None" fill-opacity="0.0" stroke="#04426B" stroke-opacity="1.00" stroke-width="0.3"><path d="
M 614.00 97.00 
C 605.92 94.65 604.27 104.88 604.00 112.00 C 603.73 119.12 602.16 129.55 602.00 137.00
C 611.82 137.62 609.34 126.80 611.01 120.01 C 612.68 113.21 611.77 103.82 614.00 97.00
M 603.00 135.00 
C 606.72 123.53 605.16 110.05 609.00 99.00
C 613.10 102.60 609.59 112.35 609.01 118.01 C 608.43 123.67 610.36 134.38 603.00 135.00 Z"/>
</g>
<g fill="None" fill-opacity="0.0" stroke="#0F5B86" stroke-opacity="1.00" stroke-width="0.3"><path d="
M 624.00 97.00 
C 616.00 96.57 619.13 108.25 617.78 113.78 C 616.42 119.31 614.91 126.96 616.00 132.00
C 622.13 122.12 620.79 108.37 624.00 97.00 Z"/>
</g>
<g fill="None" fill-opacity="0.0" stroke="#0F5B85" stroke-opacity="1.00" stroke-width="0.3"><path d="
M 603.00 135.00 
C 610.36 134.38 608.43 123.67 609.01 118.01 C 609.59 112.35 613.10 102.60 609.00 99.00
C 605.16 110.05 606.72 123.53 603.00 135.00 Z"/>
</g>
<g fill="None" fill-opacity="0.0" stroke="#04426B" stroke-opacity="1.00" stroke-width="0.3"><path d="
M 603.00 100.00 
C 593.50 98.44 594.97 109.27 593.78 115.78 C 592.59 122.29 591.26 130.10 591.00 137.00
C 600.11 138.17 599.05 127.42 600.00 121.00 C 600.96 114.59 601.83 106.49 603.00 100.00
M 593.00 135.00 
C 595.15 123.84 593.74 109.93 600.00 101.00
C 600.92 105.72 598.58 112.50 598.00 118.00 C 597.43 123.51 598.86 133.59 593.00 135.00 Z"/>
</g>
<g fill="None" fill-opacity="0.0" stroke="#05446D" stroke-opacity="1.00" stroke-width="0.3"><path d="
M 580.00 141.00 
C 592.96 139.31 587.38 118.68 591.22 109.22 C 595.07 99.77 589.07 100.03 584.78 103.78 C 580.48 107.53 583.98 116.87 582.00 122.00 C 580.02 127.13 582.40 135.78 580.00 141.00
M 590.00 104.00 
C 587.42 115.28 589.14 130.79 582.00 139.00
C 583.46 133.23 583.35 125.87 584.00 120.00 C 584.65 114.13 583.97 105.68 590.00 104.00 Z"/>
</g>
<g fill="None" fill-opacity="0.0" stroke="#0F5A85" stroke-opacity="1.00" stroke-width="0.3"><path d="
M 593.00 135.00 
C 598.86 133.59 597.43 123.51 598.00 118.00 C 598.58 112.50 600.92 105.72 600.00 101.00
C 593.74 109.93 595.15 123.84 593.00 135.00 Z"/>
</g>
<g fill="None" fill-opacity="0.0" stroke="#0F5B86" stroke-opacity="1.00" stroke-width="0.3"><path d="
M 590.00 104.00 
C 583.97 105.68 584.65 114.13 584.00 120.00 C 583.35 125.87 583.46 133.23 582.00 139.00
C 589.14 130.79 587.42 115.28 590.00 104.00 Z"/>
</g>
<g fill="None" fill-opacity="0.0" stroke="#B7C6D5" stroke-opacity="1.00" stroke-width="0.3"><path d="
M 598.00 271.00 
C 600.03 272.49 605.27 258.96 605.00 256.00
C 597.14 243.06 586.66 234.34 576.77 222.23 C 566.88 210.12 559.14 200.27 550.31 186.69 C 541.47 173.12 552.19 153.44 564.00 145.00
C 553.24 138.86 542.26 132.04 531.23 140.23 C 520.20 148.42 514.34 154.36 511.98 166.98 C 509.61 179.59 510.82 197.16 523.92 201.08 C 537.03 205.00 543.70 212.41 554.25 218.75 C 564.81 225.08 571.38 232.79 579.25 241.75 C 587.11 250.71 593.95 260.02 598.00 271.00 Z"/>
</g>
<g fill="None" fill-opacity="0.0" stroke="#60666B" stroke-opacity="1.00" stroke-width="0.3"><path d="
M 442.00 195.00 
C 447.06 194.81 453.73 194.01 458.00 194.00
C 452.62 193.50 446.68 194.33 442.00 195.00 Z"/>
</g>
<g fill="None" fill-opacity="0.0" stroke="#B9C7D7" stroke-opacity="1.00" stroke-width="0.3"><path d="
M 442.00 195.00 
C 421.41 195.79 400.52 201.60 383.00 212.00
C 384.43 211.95 394.19 217.40 395.92 223.08 C 397.66 228.75 397.45 240.43 394.22 246.22 C 391.00 252.02 388.34 258.05 383.75 262.75 C 379.15 267.44 375.37 271.73 369.77 274.77 C 364.17 277.81 354.57 281.32 348.00 280.00 C 341.43 278.68 336.02 270.70 336.00 265.00
C 324.80 292.21 320.54 327.28 334.02 353.98 C 347.51 380.67 359.23 394.67 378.08 417.92 C 396.93 441.17 394.59 474.04 369.90 492.90 C 345.21 511.76 318.75 519.47 287.00 514.00
C 283.63 513.42 281.63 512.20 279.00 511.00
C 263.21 505.94 248.27 492.05 248.00 474.00 C 247.74 455.95 255.01 437.14 264.00 422.00
C 262.99 415.46 251.63 410.62 250.00 404.00
C 248.33 404.24 249.83 406.85 248.00 407.00
C 248.94 420.02 235.02 429.58 231.08 442.08 C 227.14 454.57 221.28 469.84 221.00 484.00
C 220.89 489.29 220.71 494.72 221.00 500.00
C 221.60 511.04 226.97 520.85 235.75 528.25 C 244.53 535.65 253.18 539.65 264.22 543.78 C 275.27 547.91 291.24 548.52 303.67 547.67 C 316.10 546.82 328.68 543.13 340.67 540.67 C 352.66 538.21 359.91 532.97 371.08 528.08 C 382.26 523.19 374.14 506.76 380.32 497.32 C 386.51 487.88 392.37 480.30 402.08 475.08 C 411.80 469.87 425.00 462.15 437.00 466.00
C 438.61 466.09 440.97 468.11 442.00 469.00
C 439.95 468.88 437.30 468.50 436.00 467.00
C 422.30 468.97 408.72 470.11 398.75 480.75 C 388.79 491.40 381.79 499.05 383.93 513.08 C 386.06 527.10 389.27 543.32 390.78 557.22 C 392.29 571.12 388.97 585.20 376.92 592.92 C 364.87 600.64 347.70 601.43 333.93 599.07 C 320.15 596.72 309.18 591.04 297.77 584.23 C 286.36 577.42 277.75 569.74 265.32 564.68 C 252.89 559.62 236.56 557.43 224.92 565.92 C 213.28 574.40 208.29 583.45 205.22 597.22 C 202.15 610.99 212.29 623.83 220.75 633.25 C 229.21 642.67 251.07 646.22 251.00 630.00 C 250.93 613.78 229.02 617.60 230.00 600.00 C 230.98 582.40 250.08 585.43 262.00 592.00
C 264.72 593.50 266.77 595.11 269.00 597.00
C 269.96 597.82 270.79 598.29 272.00 599.00
C 280.53 603.98 289.13 611.38 297.00 617.00
C 293.86 610.53 298.90 605.26 304.74 602.74 C 310.59 600.23 319.64 603.67 324.69 606.31 C 329.75 608.94 333.72 614.94 336.25 618.75 C 338.78 622.55 343.68 635.51 338.00 638.00
C 363.77 646.15 398.10 645.80 414.25 620.25 C 430.39 594.69 411.07 563.02 409.00 536.00
C 408.68 534.04 407.84 531.62 408.00 529.00
C 407.69 511.16 421.77 498.22 437.00 492.00
C 438.11 491.55 439.25 489.45 441.00 490.00
C 439.57 492.12 436.96 493.32 435.00 495.00
C 432.77 498.03 431.50 500.71 430.00 504.00
C 438.63 504.04 447.58 512.00 449.78 520.22 C 451.97 528.45 449.37 530.87 447.69 535.69 C 446.02 540.52 441.81 543.30 438.92 544.92 C 436.03 546.54 427.53 551.64 425.00 550.00
C 427.36 576.65 445.52 600.54 467.00 616.00
C 478.36 614.26 491.92 603.37 503.98 606.02 C 516.03 608.68 525.70 613.86 536.77 619.23 C 547.84 624.60 557.89 617.52 567.92 610.92 C 577.94 604.32 583.69 596.08 588.23 585.23 C 592.77 574.38 594.84 557.01 591.78 545.22 C 588.71 533.44 582.68 524.23 574.25 515.75 C 565.81 507.28 556.58 502.57 546.22 497.78 C 535.87 492.99 518.15 488.98 507.23 494.23 C 496.31 499.48 489.13 512.00 498.75 522.25 C 508.37 532.50 524.92 526.68 519.00 510.00
C 517.32 509.30 515.83 507.49 515.00 506.00
C 517.52 506.56 521.30 504.81 523.00 507.00
C 557.85 514.22 577.69 556.52 550.75 581.75 C 523.81 606.99 482.20 601.97 464.00 571.00
C 459.54 569.77 451.78 576.10 446.78 571.22 C 441.77 566.34 441.35 561.47 443.33 555.33 C 445.30 549.19 449.95 546.58 456.00 546.00
C 456.52 543.81 454.86 540.38 457.00 539.00
C 456.55 522.37 469.41 509.69 470.00 494.00
C 470.93 510.45 474.15 528.57 485.25 541.75 C 496.35 554.93 511.45 559.38 527.00 563.00
C 525.24 559.58 531.74 553.18 530.00 549.00 C 528.25 544.81 532.05 536.16 529.67 532.33 C 527.29 528.50 527.32 522.52 526.00 520.00
C 525.37 518.54 523.77 516.79 522.00 517.00
C 523.21 528.68 510.86 532.82 502.08 527.92 C 493.30 523.02 490.43 515.40 492.02 506.03 C 493.62 496.65 505.68 493.94 501.00 485.00
C 503.21 485.76 504.03 488.15 505.00 490.00
C 525.06 487.10 538.86 469.14 553.00 455.00
C 547.45 455.91 538.75 450.61 532.00 452.00 C 525.25 453.39 516.21 451.02 510.33 454.33 C 504.45 457.63 499.27 458.54 495.00 464.00
C 494.00 466.68 491.70 468.94 492.00 472.00
C 498.02 431.94 533.82 415.86 562.25 388.25 C 590.68 360.64 604.60 312.79 589.99 275.01 C 575.38 237.22 540.98 219.43 507.00 203.00
C 502.83 201.95 498.73 200.13 495.00 199.00
C 482.90 196.54 470.40 195.16 458.00 194.00
C 453.73 194.01 447.06 194.81 442.00 195.00
M 443.00 205.00 
C 454.20 207.32 455.98 222.68 447.25 229.25 C 438.52 235.82 430.38 242.88 418.33 240.67 C 406.28 238.46 406.85 224.92 414.25 217.25 C 421.65 209.58 430.87 202.49 443.00 205.00
M 406.00 379.00 
C 406.44 378.04 408.03 377.45 409.00 377.00
C 426.76 368.70 447.02 382.62 444.67 401.67 C 442.32 420.72 420.88 431.34 403.78 422.22 C 386.68 413.11 391.83 388.04 406.00 379.00
M 478.00 382.00 
C 496.52 384.65 504.70 409.16 492.75 422.75 C 480.80 436.34 454.99 437.78 448.03 418.97 C 441.06 400.17 458.10 379.16 478.00 382.00 Z"/>
</g>
<g fill="None" fill-opacity="0.0" stroke="#63686C" stroke-opacity="1.00" stroke-width="0.3"><path d="
M 507.00 203.00 
C 502.97 201.05 499.77 199.97 495.00 199.00
C 498.73 200.13 502.83 201.95 507.00 203.00 Z"/>
</g>
<g fill="None" fill-opacity="0.0" stroke="#9CB4CE" stroke-opacity="1.00" stroke-width="0.3"><path d="
M 443.00 205.00 
C 430.87 202.49 421.65 209.58 414.25 217.25 C 406.85 224.92 406.28 238.46 418.33 240.67 C 430.38 242.88 438.52 235.82 447.25 229.25 C 455.98 222.68 454.20 207.32 443.00 205.00 Z"/>
</g>
<g fill="None" fill-opacity="0.0" stroke="#9BB2CD" stroke-opacity="1.00" stroke-width="0.3"><path d="
M 336.00 265.00 
C 336.02 270.70 341.43 278.68 348.00 280.00 C 354.57 281.32 364.17 277.81 369.77 274.77 C 375.37 271.73 379.15 267.44 383.75 262.75 C 388.34 258.05 391.00 252.02 394.22 246.22 C 397.45 240.43 397.66 228.75 395.92 223.08 C 394.19 217.40 384.43 211.95 383.00 212.00
C 362.21 224.35 345.16 242.74 336.00 265.00 Z"/>
</g>
<g fill="None" fill-opacity="0.0" stroke="#8797A7" stroke-opacity="1.00" stroke-width="0.3"><path d="
M 598.00 271.00 
C 613.29 312.41 601.44 355.86 575.75 387.75 C 550.06 419.64 514.82 428.04 495.00 464.00
C 499.27 458.54 504.45 457.63 510.33 454.33 C 516.21 451.02 525.25 453.39 532.00 452.00 C 538.75 450.61 547.45 455.91 553.00 455.00
C 571.02 436.98 586.18 422.96 601.23 402.23 C 616.28 381.50 628.45 358.10 630.00 331.00 C 631.55 303.90 620.39 277.33 605.00 256.00
C 605.27 258.96 600.03 272.49 598.00 271.00 Z"/>
</g>
<g fill="None" fill-opacity="0.0" stroke="#72CDFA" stroke-opacity="1.00" stroke-width="0.3"><path d="
M 302.00 307.00 
C 287.34 303.56 271.77 291.43 256.02 296.02 C 240.28 300.62 226.42 304.58 212.00 311.00
C 222.19 316.32 231.72 318.88 241.31 325.69 C 250.89 332.51 261.76 325.11 271.78 320.78 C 281.79 316.45 293.20 313.25 302.00 307.00 Z"/>
</g>
<g fill="None" fill-opacity="0.0" stroke="#29B4FA" stroke-opacity="1.00" stroke-width="0.3"><path d="
M 304.00 311.00 
C 296.65 312.94 290.45 316.79 283.23 319.23 C 276.01 321.67 271.75 325.97 264.02 328.02 C 256.29 330.08 247.78 332.70 250.00 343.00 C 252.22 353.30 248.34 360.95 250.00 371.00
C 258.65 366.67 269.04 363.51 276.92 357.92 C 284.81 352.34 295.16 351.16 301.75 343.75 C 308.34 336.34 300.66 320.37 304.00 311.00 Z"/>
</g>
<g fill="None" fill-opacity="0.0" stroke="#0B517B" stroke-opacity="1.00" stroke-width="0.3"><path d="
M 247.00 372.00 
C 247.11 361.58 246.46 349.96 248.00 340.00 C 249.54 330.04 237.72 328.90 231.08 324.92 C 224.43 320.95 216.41 318.21 210.00 314.00
C 212.07 326.02 207.61 346.61 217.77 354.23 C 227.93 361.85 237.40 363.97 247.00 372.00 Z"/>
</g>
<g fill="None" fill-opacity="0.0" stroke="#B6C5D4" stroke-opacity="1.00" stroke-width="0.3"><path d="
M 223.00 371.00 
C 221.38 369.38 218.68 361.78 216.00 359.00
C 201.77 351.18 208.27 331.63 206.00 318.00
C 192.82 323.32 192.80 338.90 195.07 351.93 C 197.34 364.95 212.42 367.92 223.00 371.00 Z"/>
</g>
<g fill="None" fill-opacity="0.0" stroke="#8696A6" stroke-opacity="1.00" stroke-width="0.3"><path d="
M 223.00 371.00 
C 228.67 372.65 237.53 377.89 241.75 382.25 C 245.98 386.61 252.72 398.89 248.00 404.00
C 247.76 404.26 247.06 404.65 247.00 405.00
C 247.11 404.45 247.99 406.88 248.00 407.00
C 249.83 406.85 248.33 404.24 250.00 404.00
C 251.63 410.62 262.99 415.46 264.00 422.00
C 268.30 414.75 277.13 404.18 279.01 396.01 C 280.88 387.84 279.22 368.12 270.03 369.03 C 260.83 369.93 250.28 381.26 241.08 373.92 C 231.89 366.58 225.59 364.94 216.00 359.00
C 218.68 361.78 221.38 369.38 223.00 371.00 Z"/>
</g>
<g fill="None" fill-opacity="0.0" stroke="#0C0D0D" stroke-opacity="1.00" stroke-width="0.3"><path d="
M 409.00 377.00 
C 408.78 377.13 409.00 378.00 409.00 378.00
C 411.73 377.80 414.09 376.56 417.00 377.00
C 410.82 387.40 432.85 391.28 430.00 379.00
C 447.59 390.71 442.73 416.00 421.99 420.99 C 401.25 425.98 385.51 401.05 401.00 384.00
C 401.74 383.05 402.06 382.70 403.00 382.00
C 403.97 381.28 405.01 380.61 406.00 380.00
C 406.25 379.73 406.00 379.00 406.00 379.00
C 391.83 388.04 386.68 413.11 403.78 422.22 C 420.88 431.34 442.32 420.72 444.67 401.67 C 447.02 382.62 426.76 368.70 409.00 377.00 Z"/>
</g>
<g fill="None" fill-opacity="0.0" stroke="#444649" stroke-opacity="1.00" stroke-width="0.3"><path d="
M 406.00 379.00 
C 406.00 379.00 406.25 379.73 406.00 380.00
C 407.11 379.31 408.43 379.23 409.00 378.00
C 409.00 378.00 408.78 377.13 409.00 377.00
C 408.03 377.45 406.44 378.04 406.00 379.00 Z"/>
</g>
<g fill="None" fill-opacity="0.0" stroke="#FAFAFA" stroke-opacity="1.00" stroke-width="0.3"><path d="
M 409.00 378.00 
C 408.43 379.23 407.11 379.31 406.00 380.00
C 405.01 380.61 403.97 381.28 403.00 382.00
C 402.37 382.61 401.60 383.42 401.00 384.00
C 385.51 401.05 401.25 425.98 421.99 420.99 C 442.73 416.00 447.59 390.71 430.00 379.00
C 432.85 391.28 410.82 387.40 417.00 377.00
C 414.09 376.56 411.73 377.80 409.00 378.00 Z"/>
</g>
<g fill="None" fill-opacity="0.0" stroke="#787877" stroke-opacity="1.00" stroke-width="0.3"><path d="
M 401.00 384.00 
C 401.60 383.42 402.37 382.61 403.00 382.00
C 402.06 382.70 401.74 383.05 401.00 384.00 Z"/>
</g>
<g fill="None" fill-opacity="0.0" stroke="#0C0D0D" stroke-opacity="1.00" stroke-width="0.3"><path d="
M 478.00 382.00 
C 458.10 379.16 441.06 400.17 448.03 418.97 C 454.99 437.78 480.80 436.34 492.75 422.75 C 504.70 409.16 496.52 384.65 478.00 382.00
M 474.00 429.00 
C 471.39 429.47 469.53 429.41 467.00 429.00
C 440.07 427.66 445.05 383.15 471.00 385.00
C 464.30 395.16 484.33 398.86 485.00 388.00
C 502.62 398.64 494.07 428.50 474.00 429.00 Z"/>
</g>
<g fill="None" fill-opacity="0.0" stroke="#FAFBFA" stroke-opacity="1.00" stroke-width="0.3"><path d="
M 467.00 429.00 
C 469.28 429.11 471.72 429.14 474.00 429.00
C 494.07 428.50 502.62 398.64 485.00 388.00
C 484.33 398.86 464.30 395.16 471.00 385.00
C 445.05 383.15 440.07 427.66 467.00 429.00 Z"/>
</g>
<g fill="None" fill-opacity="0.0" stroke="#0C0C0C" stroke-opacity="1.00" stroke-width="0.3"><path d="
M 381.00 553.00 
C 381.23 554.30 381.92 556.11 382.00 558.00
C 382.54 571.58 378.55 584.87 365.07 589.07 C 351.59 593.27 336.55 592.56 324.23 587.77 C 311.91 582.98 303.54 577.97 292.75 571.25 C 281.95 564.54 273.27 558.52 261.02 554.98 C 248.78 551.43 232.58 553.12 222.23 560.23 C 211.88 567.34 204.95 575.27 200.93 586.93 C 196.90 598.59 197.95 614.37 205.08 624.92 C 212.22 635.46 218.52 642.59 231.00 647.00 C 243.47 651.41 260.39 643.48 257.98 628.03 C 255.56 612.57 238.75 618.61 235.33 602.67 C 231.91 586.73 251.27 587.69 262.00 593.00
C 261.75 592.72 262.00 592.00 262.00 592.00
C 250.08 585.43 230.98 582.40 230.00 600.00 C 229.02 617.60 250.93 613.78 251.00 630.00 C 251.07 646.22 229.21 642.67 220.75 633.25 C 212.29 623.83 202.15 610.99 205.22 597.22 C 208.29 583.45 213.28 574.40 224.92 565.92 C 236.56 557.43 252.89 559.62 265.32 564.68 C 277.75 569.74 286.36 577.42 297.77 584.23 C 309.18 591.04 320.15 596.72 333.93 599.07 C 347.70 601.43 364.87 600.64 376.92 592.92 C 388.97 585.20 392.29 571.12 390.78 557.22 C 389.27 543.32 386.06 527.10 383.93 513.08 C 381.79 499.05 388.79 491.40 398.75 480.75 C 408.72 470.11 422.30 468.97 436.00 467.00
C 436.35 466.95 436.85 465.99 437.00 466.00
C 425.00 462.15 411.80 469.87 402.08 475.08 C 392.37 480.30 386.51 487.88 380.32 497.32 C 374.14 506.76 382.26 523.19 371.08 528.08 C 359.91 532.97 352.66 538.21 340.67 540.67 C 328.68 543.13 316.10 546.82 303.67 547.67 C 291.24 548.52 275.27 547.91 264.22 543.78 C 253.18 539.65 244.53 535.65 235.75 528.25 C 226.97 520.85 221.60 511.04 221.00 500.00
C 220.16 494.83 220.39 489.07 221.00 484.00
C 221.28 469.84 227.14 454.57 231.08 442.08 C 235.02 429.58 248.94 420.02 248.00 407.00
C 247.99 406.88 247.11 404.45 247.00 405.00
C 238.58 427.68 222.82 444.59 216.98 468.98 C 211.14 493.36 212.80 523.82 235.30 538.70 C 257.81 553.57 281.83 558.15 307.99 555.99 C 334.15 553.83 355.88 542.72 379.00 533.00
C 379.59 539.74 380.52 546.24 381.00 553.00 Z"/>
</g>
<g fill="None" fill-opacity="0.0" stroke="#B7C6D5" stroke-opacity="1.00" stroke-width="0.3"><path d="
M 598.00 571.00 
C 630.17 565.72 671.37 557.84 691.70 528.70 C 712.02 499.55 706.70 453.28 683.25 427.75 C 659.79 402.23 603.59 404.32 595.00 442.00
C 613.03 438.29 633.54 426.12 650.77 436.23 C 668.00 446.34 676.76 461.69 677.00 481.00 C 677.24 500.31 668.23 517.20 652.75 528.75 C 637.27 540.30 615.97 543.03 597.00 542.00
C 599.67 550.95 599.87 561.74 598.00 571.00 Z"/>
</g>
<g fill="None" fill-opacity="0.0" stroke="#7C7C7C" stroke-opacity="1.00" stroke-width="0.3"><path d="
M 474.00 429.00 
C 471.72 429.14 469.28 429.11 467.00 429.00
C 469.53 429.41 471.39 429.47 474.00 429.00 Z"/>
</g>
<g fill="None" fill-opacity="0.0" stroke="#72CDFA" stroke-opacity="1.00" stroke-width="0.3"><path d="
M 664.00 455.00 
C 657.70 443.31 644.07 431.34 630.07 436.07 C 616.08 440.80 599.63 443.99 585.00 447.00
C 596.66 455.36 610.10 456.03 622.98 463.02 C 635.85 470.02 651.09 455.48 664.00 455.00 Z"/>
</g>
<g fill="None" fill-opacity="0.0" stroke="#6ABFE4" stroke-opacity="1.00" stroke-width="0.3"><path d="
M 705.00 439.00 
C 704.83 435.60 700.03 436.91 698.00 435.00
C 697.95 439.05 701.68 441.11 705.00 439.00 Z"/>
</g>
<g fill="None" fill-opacity="0.0" stroke="#27ABEB" stroke-opacity="1.00" stroke-width="0.3"><path d="
M 708.00 440.00 
C 706.02 440.76 704.33 442.44 702.00 442.00
C 703.19 446.50 705.98 450.47 707.00 455.00
C 709.31 450.99 707.35 444.83 708.00 440.00 Z"/>
</g>
<g fill="None" fill-opacity="0.0" stroke="#0B527C" stroke-opacity="1.00" stroke-width="0.3"><path d="
M 632.00 468.00 
C 615.36 464.36 599.37 458.44 584.00 451.00
C 583.85 462.87 585.26 474.36 586.00 486.00
C 600.37 494.99 616.55 500.42 632.00 507.00
C 632.00 494.00 632.00 481.00 632.00 468.00 Z"/>
</g>
<g fill="None" fill-opacity="0.0" stroke="#29B3F9" stroke-opacity="1.00" stroke-width="0.3"><path d="
M 671.00 483.00 
C 671.16 480.08 671.20 476.92 671.00 474.00
C 670.74 467.90 668.71 462.36 666.00 457.00
C 655.51 461.18 644.98 465.45 634.00 468.00
C 634.00 481.00 634.00 494.00 634.00 507.00
C 646.27 505.01 656.78 497.17 669.00 495.00
C 669.72 490.86 670.77 487.27 671.00 483.00 Z"/>
</g>
<g fill="None" fill-opacity="0.0" stroke="#707983" stroke-opacity="1.00" stroke-width="0.3"><path d="
M 436.00 467.00 
C 437.30 468.50 439.95 468.88 442.00 469.00
C 440.97 468.11 438.61 466.09 437.00 466.00
C 436.85 465.99 436.35 466.95 436.00 467.00 Z"/>
</g>
<g fill="None" fill-opacity="0.0" stroke="#1B5F83" stroke-opacity="1.00" stroke-width="0.3"><path d="
M 671.00 483.00 
C 671.51 479.89 671.57 477.19 671.00 474.00
C 671.20 476.92 671.16 480.08 671.00 483.00 Z"/>
</g>
<g fill="None" fill-opacity="0.0" stroke="#52585F" stroke-opacity="1.00" stroke-width="0.3"><path d="
M 221.00 500.00 
C 220.71 494.72 220.89 489.29 221.00 484.00
C 220.39 489.07 220.16 494.83 221.00 500.00 Z"/>
</g>
<g fill="None" fill-opacity="0.0" stroke="#8B97A3" stroke-opacity="1.00" stroke-width="0.3"><path d="
M 437.00 492.00 
C 436.29 492.69 435.63 494.14 435.00 495.00
C 436.96 493.32 439.57 492.12 441.00 490.00
C 439.25 489.45 438.11 491.55 437.00 492.00 Z"/>
</g>
<g fill="None" fill-opacity="0.0" stroke="#E5E5E5" stroke-opacity="1.00" stroke-width="0.3"><path d="
M 432.00 496.00 
C 415.53 503.19 409.50 523.32 414.00 540.00
C 417.92 525.42 421.44 508.63 432.00 496.00 Z"/>
</g>
<g fill="None" fill-opacity="0.0" stroke="#9CB4CE" stroke-opacity="1.00" stroke-width="0.3"><path d="
M 424.00 530.00 
C 424.00 534.32 423.84 538.68 424.00 543.00
C 424.09 545.47 424.80 547.82 425.00 550.00
C 427.53 551.64 436.03 546.54 438.92 544.92 C 441.81 543.30 446.02 540.52 447.69 535.69 C 449.37 530.87 451.97 528.45 449.78 520.22 C 447.58 512.00 438.63 504.04 430.00 504.00
C 426.27 512.17 424.00 520.38 424.00 530.00 Z"/>
</g>
<g fill="None" fill-opacity="0.0" stroke="#44474A" stroke-opacity="1.00" stroke-width="0.3"><path d="
M 519.00 510.00 
C 519.00 510.00 519.19 509.42 519.00 509.00
C 517.46 505.57 521.09 507.56 523.00 508.00
C 523.00 508.00 523.25 507.26 523.00 507.00
C 521.30 504.81 517.52 506.56 515.00 506.00
C 515.83 507.49 517.32 509.30 519.00 510.00 Z"/>
</g>
<g fill="None" fill-opacity="0.0" stroke="#E2E2E2" stroke-opacity="1.00" stroke-width="0.3"><path d="
M 519.00 509.00 
C 528.09 515.61 537.34 522.41 548.00 526.00
C 543.08 516.75 532.66 510.78 523.00 508.00
C 521.09 507.56 517.46 505.57 519.00 509.00 Z"/>
</g>
<g fill="None" fill-opacity="0.0" stroke="#F2F2F2" stroke-opacity="1.00" stroke-width="0.3"><path d="
M 471.00 571.00 
C 473.41 573.77 477.25 577.69 480.00 580.00
C 499.24 596.36 528.42 591.00 546.00 575.00
C 527.65 572.46 508.38 569.82 491.75 558.25 C 475.12 546.69 470.84 526.18 468.00 508.00
C 456.68 527.67 457.32 552.60 471.00 571.00 Z"/>
</g>
<g fill="None" fill-opacity="0.0" stroke="#595E64" stroke-opacity="1.00" stroke-width="0.3"><path d="
M 287.00 514.00 
C 284.72 513.34 281.57 511.82 279.00 511.00
C 281.63 512.20 283.63 513.42 287.00 514.00 Z"/>
</g>
<g fill="None" fill-opacity="0.0" stroke="#8797A8" stroke-opacity="1.00" stroke-width="0.3"><path d="
M 527.00 563.00 
C 530.81 563.89 534.47 564.91 539.00 565.00
C 541.66 565.05 546.19 566.07 548.00 566.00
C 558.07 564.63 560.19 541.98 553.92 535.08 C 547.66 528.17 534.52 526.32 526.00 520.00
C 527.32 522.52 527.29 528.50 529.67 532.33 C 532.05 536.16 528.25 544.81 530.00 549.00 C 531.74 553.18 525.24 559.58 527.00 563.00 Z"/>
</g>
<g fill="None" fill-opacity="0.0" stroke="#626A72" stroke-opacity="1.00" stroke-width="0.3"><path d="
M 409.00 536.00 
C 408.84 533.96 408.02 530.37 408.00 529.00
C 407.84 531.62 408.68 534.04 409.00 536.00 Z"/>
</g>
<g fill="None" fill-opacity="0.0" stroke="#576472" stroke-opacity="1.00" stroke-width="0.3"><path d="
M 424.00 543.00 
C 423.84 538.68 424.00 534.32 424.00 530.00
C 423.60 534.10 423.40 538.78 424.00 543.00 Z"/>
</g>
<g fill="None" fill-opacity="0.0" stroke="#737373" stroke-opacity="1.00" stroke-width="0.3"><path d="
M 606.00 536.00 
C 608.19 535.94 610.42 535.25 612.00 535.00
C 609.98 535.13 607.42 535.84 606.00 536.00 Z"/>
</g>
<g fill="None" fill-opacity="0.0" stroke="#9CB3CD" stroke-opacity="1.00" stroke-width="0.3"><path d="
M 464.00 571.00 
C 458.48 561.61 456.23 550.28 457.00 539.00
C 454.86 540.38 456.52 543.81 456.00 546.00
C 449.95 546.58 445.30 549.19 443.33 555.33 C 441.35 561.47 441.77 566.34 446.78 571.22 C 451.78 576.10 459.54 569.77 464.00 571.00 Z"/>
</g>
<g fill="None" fill-opacity="0.0" stroke="#7A7A7A" stroke-opacity="1.00" stroke-width="0.3"><path d="
M 382.00 558.00 
C 381.92 556.11 381.23 554.30 381.00 553.00
C 381.12 554.75 381.84 556.84 382.00 558.00 Z"/>
</g>
<g fill="None" fill-opacity="0.0" stroke="#505962" stroke-opacity="1.00" stroke-width="0.3"><path d="
M 548.00 566.00 
C 546.19 566.07 541.66 565.05 539.00 565.00
C 541.44 565.29 544.79 566.44 548.00 566.00 Z"/>
</g>
<g fill="None" fill-opacity="0.0" stroke="#787878" stroke-opacity="1.00" stroke-width="0.3"><path d="
M 480.00 580.00 
C 477.25 577.69 473.41 573.77 471.00 571.00
C 473.42 574.25 476.64 577.60 480.00 580.00 Z"/>
</g>
<g fill="None" fill-opacity="0.0" stroke="#585C61" stroke-opacity="1.00" stroke-width="0.3"><path d="
M 262.00 593.00 
C 263.76 594.97 266.70 595.53 269.00 597.00
C 266.77 595.11 264.72 593.50 262.00 592.00
C 262.00 592.00 261.75 592.72 262.00 593.00 Z"/>
</g>
<g fill="None" fill-opacity="0.0" stroke="#9CB3CE" stroke-opacity="1.00" stroke-width="0.3"><path d="
M 297.00 617.00 
C 309.99 626.28 322.64 633.14 338.00 638.00
C 343.68 635.51 338.78 622.55 336.25 618.75 C 333.72 614.94 329.75 608.94 324.69 606.31 C 319.64 603.67 310.59 600.23 304.74 602.74 C 298.90 605.26 293.86 610.53 297.00 617.00 Z"/>
</g>
<g fill="None" fill-opacity="0.0" stroke="#72CDFB" stroke-opacity="1.00" stroke-width="0.3"><path d="
M 569.00 640.00 
C 556.71 636.30 545.38 627.46 533.08 623.92 C 520.77 620.39 510.79 607.12 498.07 609.07 C 485.35 611.03 471.73 619.15 459.00 622.00
C 465.07 627.59 472.58 630.98 479.92 635.08 C 487.27 639.17 495.37 642.36 502.75 646.25 C 510.14 650.13 517.52 653.75 524.77 658.23 C 532.02 662.71 539.37 655.36 546.75 651.75 C 554.14 648.14 562.04 643.77 569.00 640.00 Z"/>
</g>
<g fill="None" fill-opacity="0.0" stroke="#29B4FA" stroke-opacity="1.00" stroke-width="0.3"><path d="
M 529.00 702.00 
C 525.83 689.33 533.12 666.69 520.23 660.77 C 507.34 654.86 499.22 649.31 487.25 643.75 C 475.27 638.20 468.36 631.04 457.00 625.00
C 455.77 638.85 456.75 656.45 468.75 663.25 C 480.76 670.04 487.54 676.90 498.77 683.23 C 510.00 689.56 517.66 696.29 529.00 702.00 Z"/>
</g>
<g fill="None" fill-opacity="0.0" stroke="#767676" stroke-opacity="1.00" stroke-width="0.3"><path d="
M 411.00 637.00 
C 413.32 635.27 415.02 633.12 417.00 631.00
C 415.06 632.78 412.99 635.27 411.00 637.00 Z"/>
</g>
<g fill="None" fill-opacity="0.0" stroke="#0B527B" stroke-opacity="1.00" stroke-width="0.3"><path d="
M 576.00 642.00 
C 561.60 646.04 555.68 653.62 541.08 659.08 C 526.47 664.53 533.09 685.64 532.00 700.00
C 544.62 694.14 549.87 685.61 563.77 680.77 C 577.67 675.93 576.09 655.15 576.00 642.00 Z"/>
</g>
<g fill="None" fill-opacity="0.0" stroke="#7F7F7F" stroke-opacity="1.00" stroke-width="0.3"><path d="
M 367.00 651.00 
C 365.36 650.87 363.65 651.00 362.00 651.00
C 363.26 651.11 365.76 651.04 367.00 651.00 Z"/>
</g>
<g fill="None" fill-opacity="0.0" stroke="#7F7F7F" stroke-opacity="1.00" stroke-width="0.3"><path d="
M 580.00 656.00 
C 580.17 654.82 580.93 652.84 581.00 651.00
C 580.83 652.19 580.07 654.16 580.00 656.00 Z"/>
</g>
<g fill="None" fill-opacity="0.0" stroke="#777777" stroke-opacity="1.00" stroke-width="0.3"><path d="
M 579.00 672.00 
C 579.33 670.34 579.94 668.30 580.00 666.00
C 579.85 667.31 579.20 670.06 579.00 672.00 Z"/>
</g>
<g fill="#F7F7F7" fill-opacity="1.00" stroke="None">
<path d="
M 0.00 747.00 
L 900.00 747.00
L 900.00 0.00
L 0.00 0.00
L 0.00 747.00
M 606.00 536.00 
C 607.42 535.84 609.98 535.13 612.00 535.00
C 634.33 533.57 658.25 523.49 666.00 501.00
C 655.26 502.28 644.11 513.94 632.98 512.98 C 621.85 512.01 611.87 503.06 600.92 500.08 C 589.98 497.09 578.51 488.41 580.00 476.00 C 581.49 463.59 572.00 443.27 591.00 443.00
C 593.31 431.38 602.72 422.22 612.70 415.70 C 622.67 409.18 640.46 405.05 652.22 407.78 C 663.99 410.50 678.43 412.26 686.23 422.77 C 694.03 433.28 713.44 431.30 712.00 446.00 C 710.56 460.70 711.99 477.82 711.67 491.67 C 711.35 505.52 707.47 518.71 701.07 530.07 C 694.68 541.44 686.45 547.02 675.92 553.92 C 665.39 560.82 653.74 564.59 640.99 567.99 C 628.24 571.39 611.32 575.31 597.00 574.00
C 590.94 596.53 571.85 617.03 549.00 623.00
C 556.64 634.45 584.34 631.85 581.00 651.00
C 580.93 652.84 580.17 654.82 580.00 656.00
C 579.87 659.33 580.09 662.67 580.00 666.00
C 579.94 668.30 579.33 670.34 579.00 672.00
C 576.84 682.79 560.81 687.75 551.75 693.75 C 542.70 699.76 529.70 710.38 519.75 703.25 C 509.81 696.11 499.11 691.01 489.25 683.75 C 479.40 676.48 469.62 672.05 461.08 662.92 C 452.55 653.78 452.73 634.53 454.00 622.00
C 457.26 619.96 460.54 618.64 464.00 617.00
C 451.38 610.05 438.56 599.54 430.00 588.00
C 428.67 602.65 429.55 620.50 417.00 631.00
C 415.02 633.12 413.32 635.27 411.00 637.00
C 398.48 646.31 382.27 652.23 367.00 651.00
C 365.76 651.04 363.26 651.11 362.00 651.00
C 323.66 650.99 300.03 620.81 272.00 599.00
C 270.79 598.29 269.96 597.82 269.00 597.00
C 266.70 595.53 263.76 594.97 262.00 593.00
C 251.27 587.69 231.91 586.73 235.33 602.67 C 238.75 618.61 255.56 612.57 257.98 628.03 C 260.39 643.48 243.47 651.41 231.00 647.00 C 218.52 642.59 212.22 635.46 205.08 624.92 C 197.95 614.37 196.90 598.59 200.93 586.93 C 204.95 575.27 211.88 567.34 222.23 560.23 C 232.58 553.12 248.78 551.43 261.02 554.98 C 273.27 558.52 281.95 564.54 292.75 571.25 C 303.54 577.97 311.91 582.98 324.23 587.77 C 336.55 592.56 351.59 593.27 365.07 589.07 C 378.55 584.87 382.54 571.58 382.00 558.00
C 381.84 556.84 381.12 554.75 381.00 553.00
C 380.52 546.24 379.59 539.74 379.00 533.00
C 355.88 542.72 334.15 553.83 307.99 555.99 C 281.83 558.15 257.81 553.57 235.30 538.70 C 212.80 523.82 211.14 493.36 216.98 468.98 C 222.82 444.59 238.58 427.68 247.00 405.00
C 247.06 404.65 247.76 404.26 248.00 404.00
C 251.54 390.28 230.52 379.93 219.93 377.07 C 209.33 374.21 190.45 367.20 189.22 352.78 C 188.00 338.36 188.53 317.35 206.00 315.00
C 207.43 304.30 219.94 302.80 230.22 299.22 C 240.51 295.65 250.54 293.22 262.02 290.02 C 273.51 286.83 282.41 296.08 294.07 297.93 C 305.74 299.77 312.98 308.82 310.00 321.00 C 307.02 333.18 313.03 346.73 300.92 351.92 C 288.82 357.12 285.72 361.80 274.00 366.00
C 291.76 391.23 273.16 414.64 261.07 438.07 C 248.99 461.51 252.15 495.40 281.68 504.32 C 311.20 513.25 336.19 504.52 361.25 490.25 C 386.30 475.97 394.89 448.46 377.75 426.25 C 360.60 404.05 348.57 391.98 333.08 369.92 C 317.59 347.86 313.66 316.16 318.78 290.78 C 323.90 265.40 333.69 242.27 352.75 223.75 C 371.82 205.23 392.44 195.31 419.22 189.22 C 446.00 183.13 483.12 185.43 509.00 195.00
C 494.34 169.92 509.30 133.55 540.00 132.00
C 526.57 121.95 507.58 115.87 509.93 96.93 C 512.28 77.99 511.43 55.37 533.67 53.67 C 555.91 51.97 570.71 43.30 591.00 54.00
C 595.58 44.95 605.26 42.65 615.00 42.00 C 624.74 41.35 634.70 45.16 641.25 52.75 C 647.79 60.34 651.30 66.12 655.77 75.23 C 660.24 84.34 658.45 94.41 656.02 104.02 C 653.60 113.63 643.14 116.69 641.03 126.03 C 638.91 135.36 629.32 137.95 619.78 140.78 C 610.23 143.60 599.36 144.43 589.93 147.93 C 580.50 151.42 570.12 147.60 562.31 153.30 C 554.49 159.01 548.96 167.57 549.00 177.00 C 549.04 186.43 557.26 193.35 562.77 200.23 C 568.28 207.11 575.49 212.05 581.25 218.75 C 587.00 225.45 593.97 229.33 599.75 236.25 C 605.54 243.17 610.42 249.65 615.92 257.08 C 621.42 264.52 625.25 271.96 629.31 280.69 C 633.36 289.43 635.54 299.72 637.33 309.67 C 639.12 319.62 639.57 333.46 637.22 343.22 C 634.87 352.98 633.59 363.60 629.03 372.03 C 624.46 380.45 621.29 387.37 615.75 394.75 C 610.20 402.12 605.16 408.48 599.23 415.23 C 593.30 421.98 586.86 427.37 580.75 433.75 C 574.64 440.14 568.47 446.06 562.25 452.25 C 556.03 458.43 548.70 463.45 542.30 469.30 C 535.91 475.16 527.81 480.49 523.00 487.00
C 534.98 485.95 547.66 491.27 557.70 496.31 C 567.73 501.34 574.51 507.67 582.75 515.25 C 591.00 522.83 591.31 540.10 606.00 536.00 Z"/>
</g>
<g fill="#0A0B0B" fill-opacity="1.00" stroke="None">
<path d="
M 248.00 404.00 
C 252.72 398.89 245.98 386.61 241.75 382.25 C 237.53 377.89 228.67 372.65 223.00 371.00
C 212.42 367.92 197.34 364.95 195.07 351.93 C 192.80 338.90 192.82 323.32 206.00 318.00
C 208.27 331.63 201.77 351.18 216.00 359.00
C 225.59 364.94 231.89 366.58 241.08 373.92 C 250.28 381.26 260.83 369.93 270.03 369.03 C 279.22 368.12 280.88 387.84 279.01 396.01 C 277.13 404.18 268.30 414.75 264.00 422.00
C 255.01 437.14 247.74 455.95 248.00 474.00 C 248.27 492.05 263.21 505.94 279.00 511.00
C 281.57 511.82 284.72 513.34 287.00 514.00
C 318.75 519.47 345.21 511.76 369.90 492.90 C 394.59 474.04 396.93 441.17 378.08 417.92 C 359.23 394.67 347.51 380.67 334.02 353.98 C 320.54 327.28 324.80 292.21 336.00 265.00
C 345.16 242.74 362.21 224.35 383.00 212.00
C 400.52 201.60 421.41 195.79 442.00 195.00
C 446.68 194.33 452.62 193.50 458.00 194.00
C 470.40 195.16 482.90 196.54 495.00 199.00
C 499.77 199.97 502.97 201.05 507.00 203.00
C 540.98 219.43 575.38 237.22 589.99 275.01 C 604.60 312.79 590.68 360.64 562.25 388.25 C 533.82 415.86 498.02 431.94 492.00 472.00
C 491.70 468.94 494.00 466.68 495.00 464.00
C 514.82 428.04 550.06 419.64 575.75 387.75 C 601.44 355.86 613.29 312.41 598.00 271.00
C 593.95 260.02 587.11 250.71 579.25 241.75 C 571.38 232.79 564.81 225.08 554.25 218.75 C 543.70 212.41 537.03 205.00 523.92 201.08 C 510.82 197.16 509.61 179.59 511.98 166.98 C 514.34 154.36 520.20 148.42 531.23 140.23 C 542.26 132.04 553.24 138.86 564.00 145.00
C 552.19 153.44 541.47 173.12 550.31 186.69 C 559.14 200.27 566.88 210.12 576.77 222.23 C 586.66 234.34 597.14 243.06 605.00 256.00
C 620.39 277.33 631.55 303.90 630.00 331.00 C 628.45 358.10 616.28 381.50 601.23 402.23 C 586.18 422.96 571.02 436.98 553.00 455.00
C 538.86 469.14 525.06 487.10 505.00 490.00
C 504.03 488.15 503.21 485.76 501.00 485.00
C 505.68 493.94 493.62 496.65 492.02 506.03 C 490.43 515.40 493.30 523.02 502.08 527.92 C 510.86 532.82 523.21 528.68 522.00 517.00
C 523.77 516.79 525.37 518.54 526.00 520.00
C 534.52 526.32 547.66 528.17 553.92 535.08 C 560.19 541.98 558.07 564.63 548.00 566.00
C 544.79 566.44 541.44 565.29 539.00 565.00
C 534.47 564.91 530.81 563.89 527.00 563.00
C 511.45 559.38 496.35 554.93 485.25 541.75 C 474.15 528.57 470.93 510.45 470.00 494.00
C 469.41 509.69 456.55 522.37 457.00 539.00
C 456.23 550.28 458.48 561.61 464.00 571.00
C 482.20 601.97 523.81 606.99 550.75 581.75 C 577.69 556.52 557.85 514.22 523.00 507.00
C 523.25 507.26 523.00 508.00 523.00 508.00
C 532.66 510.78 543.08 516.75 548.00 526.00
C 537.34 522.41 528.09 515.61 519.00 509.00
C 519.19 509.42 519.00 510.00 519.00 510.00
C 524.92 526.68 508.37 532.50 498.75 522.25 C 489.13 512.00 496.31 499.48 507.23 494.23 C 518.15 488.98 535.87 492.99 546.22 497.78 C 556.58 502.57 565.81 507.28 574.25 515.75 C 582.68 524.23 588.71 533.44 591.78 545.22 C 594.84 557.01 592.77 574.38 588.23 585.23 C 583.69 596.08 577.94 604.32 567.92 610.92 C 557.89 617.52 547.84 624.60 536.77 619.23 C 525.70 613.86 516.03 608.68 503.98 606.02 C 491.92 603.37 478.36 614.26 467.00 616.00
C 445.52 600.54 427.36 576.65 425.00 550.00
C 424.80 547.82 424.09 545.47 424.00 543.00
C 423.40 538.78 423.60 534.10 424.00 530.00
C 424.00 520.38 426.27 512.17 430.00 504.00
C 431.50 500.71 432.77 498.03 435.00 495.00
C 435.63 494.14 436.29 492.69 437.00 492.00
C 421.77 498.22 407.69 511.16 408.00 529.00
C 408.02 530.37 408.84 533.96 409.00 536.00
C 411.07 563.02 430.39 594.69 414.25 620.25 C 398.10 645.80 363.77 646.15 338.00 638.00
C 322.64 633.14 309.99 626.28 297.00 617.00
C 289.13 611.38 280.53 603.98 272.00 599.00
C 300.03 620.81 323.66 650.99 362.00 651.00
C 363.65 651.00 365.36 650.87 367.00 651.00
C 382.27 652.23 398.48 646.31 411.00 637.00
C 412.99 635.27 415.06 632.78 417.00 631.00
C 429.55 620.50 428.67 602.65 430.00 588.00
C 438.56 599.54 451.38 610.05 464.00 617.00
C 460.54 618.64 457.26 619.96 454.00 622.00
C 452.73 634.53 452.55 653.78 461.08 662.92 C 469.62 672.05 479.40 676.48 489.25 683.75 C 499.11 691.01 509.81 696.11 519.75 703.25 C 529.70 710.38 542.70 699.76 551.75 693.75 C 560.81 687.75 576.84 682.79 579.00 672.00
C 579.20 670.06 579.85 667.31 580.00 666.00
C 580.09 662.67 579.87 659.33 580.00 656.00
C 580.07 654.16 580.83 652.19 581.00 651.00
C 584.34 631.85 556.64 634.45 549.00 623.00
C 571.85 617.03 590.94 596.53 597.00 574.00
C 611.32 575.31 628.24 571.39 640.99 567.99 C 653.74 564.59 665.39 560.82 675.92 553.92 C 686.45 547.02 694.68 541.44 701.07 530.07 C 707.47 518.71 711.35 505.52 711.67 491.67 C 711.99 477.82 710.56 460.70 712.00 446.00 C 713.44 431.30 694.03 433.28 686.23 422.77 C 678.43 412.26 663.99 410.50 652.22 407.78 C 640.46 405.05 622.67 409.18 612.70 415.70 C 602.72 422.22 593.31 431.38 591.00 443.00
C 572.00 443.27 581.49 463.59 580.00 476.00 C 578.51 488.41 589.98 497.09 600.92 500.08 C 611.87 503.06 621.85 512.01 632.98 512.98 C 644.11 513.94 655.26 502.28 666.00 501.00
C 658.25 523.49 634.33 533.57 612.00 535.00
C 610.42 535.25 608.19 535.94 606.00 536.00
C 591.31 540.10 591.00 522.83 582.75 515.25 C 574.51 507.67 567.73 501.34 557.70 496.31 C 547.66 491.27 534.98 485.95 523.00 487.00
C 527.81 480.49 535.91 475.16 542.30 469.30 C 548.70 463.45 556.03 458.43 562.25 452.25 C 568.47 446.06 574.64 440.14 580.75 433.75 C 586.86 427.37 593.30 421.98 599.23 415.23 C 605.16 408.48 610.20 402.12 615.75 394.75 C 621.29 387.37 624.46 380.45 629.03 372.03 C 633.59 363.60 634.87 352.98 637.22 343.22 C 639.57 333.46 639.12 319.62 637.33 309.67 C 635.54 299.72 633.36 289.43 629.31 280.69 C 625.25 271.96 621.42 264.52 615.92 257.08 C 610.42 249.65 605.54 243.17 599.75 236.25 C 593.97 229.33 587.00 225.45 581.25 218.75 C 575.49 212.05 568.28 207.11 562.77 200.23 C 557.26 193.35 549.04 186.43 549.00 177.00 C 548.96 167.57 554.49 159.01 562.31 153.30 C 570.12 147.60 580.50 151.42 589.93 147.93 C 599.36 144.43 610.23 143.60 619.78 140.78 C 629.32 137.95 638.91 135.36 641.03 126.03 C 643.14 116.69 653.60 113.63 656.02 104.02 C 658.45 94.41 660.24 84.34 655.77 75.23 C 651.30 66.12 647.79 60.34 641.25 52.75 C 634.70 45.16 624.74 41.35 615.00 42.00 C 605.26 42.65 595.58 44.95 591.00 54.00
C 570.71 43.30 555.91 51.97 533.67 53.67 C 511.43 55.37 512.28 77.99 509.93 96.93 C 507.58 115.87 526.57 121.95 540.00 132.00
C 509.30 133.55 494.34 169.92 509.00 195.00
C 483.12 185.43 446.00 183.13 419.22 189.22 C 392.44 195.31 371.82 205.23 352.75 223.75 C 333.69 242.27 323.90 265.40 318.78 290.78 C 313.66 316.16 317.59 347.86 333.08 369.92 C 348.57 391.98 360.60 404.05 377.75 426.25 C 394.89 448.46 386.30 475.97 361.25 490.25 C 336.19 504.52 311.20 513.25 281.68 504.32 C 252.15 495.40 248.99 461.51 261.07 438.07 C 273.16 414.64 291.76 391.23 274.00 366.00
C 285.72 361.80 288.82 357.12 300.92 351.92 C 313.03 346.73 307.02 333.18 310.00 321.00 C 312.98 308.82 305.74 299.77 294.07 297.93 C 282.41 296.08 273.51 286.83 262.02 290.02 C 250.54 293.22 240.51 295.65 230.22 299.22 C 219.94 302.80 207.43 304.30 206.00 315.00
C 188.53 317.35 188.00 338.36 189.22 352.78 C 190.45 367.20 209.33 374.21 219.93 377.07 C 230.52 379.93 251.54 390.28 248.00 404.00
M 645.00 95.00 
C 645.00 92.76 645.34 90.21 645.00 88.00
C 642.13 78.55 631.56 78.26 623.31 72.69 C 615.05 67.13 608.93 64.71 598.92 59.08 C 588.90 53.46 600.66 45.78 611.00 46.00 C 621.34 46.22 631.86 48.20 638.25 56.75 C 644.63 65.31 647.80 71.28 650.98 81.02 C 654.15 90.77 650.23 102.67 644.00 110.00
C 645.19 105.24 645.09 100.09 645.00 95.00
M 636.00 86.00 
C 621.63 89.65 606.02 89.88 591.78 93.78 C 577.54 97.67 567.07 86.64 555.31 80.70 C 543.54 74.75 534.45 66.33 523.00 60.00
C 541.84 57.28 569.09 48.49 586.70 58.30 C 604.30 68.12 619.04 76.28 636.00 86.00
M 578.00 100.00 
C 574.57 113.86 572.76 128.19 573.00 143.00
C 564.20 139.92 558.49 134.24 549.77 130.23 C 541.05 126.22 536.31 121.21 526.92 117.08 C 517.54 112.94 512.19 105.86 515.00 95.00 C 517.80 84.14 515.22 73.49 519.00 63.00
C 538.56 75.60 559.17 86.25 578.00 100.00
M 642.00 89.00 
C 642.85 101.49 638.57 112.07 637.02 124.02 C 635.48 135.98 621.22 135.75 610.98 138.98 C 600.73 142.20 587.54 143.04 577.00 146.00
C 577.72 130.52 580.16 115.47 581.00 100.00
C 601.17 95.72 621.76 93.05 642.00 89.00
M 302.00 307.00 
C 293.20 313.25 281.79 316.45 271.78 320.78 C 261.76 325.11 250.89 332.51 241.31 325.69 C 231.72 318.88 222.19 316.32 212.00 311.00
C 226.42 304.58 240.28 300.62 256.02 296.02 C 271.77 291.43 287.34 303.56 302.00 307.00
M 304.00 311.00 
C 300.66 320.37 308.34 336.34 301.75 343.75 C 295.16 351.16 284.81 352.34 276.92 357.92 C 269.04 363.51 258.65 366.67 250.00 371.00
C 248.34 360.95 252.22 353.30 250.00 343.00 C 247.78 332.70 256.29 330.08 264.02 328.02 C 271.75 325.97 276.01 321.67 283.23 319.23 C 290.45 316.79 296.65 312.94 304.00 311.00
M 247.00 372.00 
C 237.40 363.97 227.93 361.85 217.77 354.23 C 207.61 346.61 212.07 326.02 210.00 314.00
C 216.41 318.21 224.43 320.95 231.08 324.92 C 237.72 328.90 249.54 330.04 248.00 340.00 C 246.46 349.96 247.11 361.58 247.00 372.00
M 598.00 571.00 
C 599.87 561.74 599.67 550.95 597.00 542.00
C 615.97 543.03 637.27 540.30 652.75 528.75 C 668.23 517.20 677.24 500.31 677.00 481.00 C 676.76 461.69 668.00 446.34 650.77 436.23 C 633.54 426.12 613.03 438.29 595.00 442.00
C 603.59 404.32 659.79 402.23 683.25 427.75 C 706.70 453.28 712.02 499.55 691.70 528.70 C 671.37 557.84 630.17 565.72 598.00 571.00
M 664.00 455.00 
C 651.09 455.48 635.85 470.02 622.98 463.02 C 610.10 456.03 596.66 455.36 585.00 447.00
C 599.63 443.99 616.08 440.80 630.07 436.07 C 644.07 431.34 657.70 443.31 664.00 455.00
M 705.00 439.00 
C 701.68 441.11 697.95 439.05 698.00 435.00
C 700.03 436.91 704.83 435.60 705.00 439.00
M 708.00 440.00 
C 707.35 444.83 709.31 450.99 707.00 455.00
C 705.98 450.47 703.19 446.50 702.00 442.00
C 704.33 442.44 706.02 440.76 708.00 440.00
M 632.00 468.00 
C 632.00 481.00 632.00 494.00 632.00 507.00
C 616.55 500.42 600.37 494.99 586.00 486.00
C 585.26 474.36 583.85 462.87 584.00 451.00
C 599.37 458.44 615.36 464.36 632.00 468.00
M 671.00 474.00 
C 671.57 477.19 671.51 479.89 671.00 483.00
C 670.77 487.27 669.72 490.86 669.00 495.00
C 656.78 497.17 646.27 505.01 634.00 507.00
C 634.00 494.00 634.00 481.00 634.00 468.00
C 644.98 465.45 655.51 461.18 666.00 457.00
C 668.71 462.36 670.74 467.90 671.00 474.00
M 432.00 496.00 
C 421.44 508.63 417.92 525.42 414.00 540.00
C 409.50 523.32 415.53 503.19 432.00 496.00
M 480.00 580.00 
C 476.64 577.60 473.42 574.25 471.00 571.00
C 457.32 552.60 456.68 527.67 468.00 508.00
C 470.84 526.18 475.12 546.69 491.75 558.25 C 508.38 569.82 527.65 572.46 546.00 575.00
C 528.42 591.00 499.24 596.36 480.00 580.00
M 569.00 640.00 
C 562.04 643.77 554.14 648.14 546.75 651.75 C 539.37 655.36 532.02 662.71 524.77 658.23 C 517.52 653.75 510.14 650.13 502.75 646.25 C 495.37 642.36 487.27 639.17 479.92 635.08 C 472.58 630.98 465.07 627.59 459.00 622.00
C 471.73 619.15 485.35 611.03 498.07 609.07 C 510.79 607.12 520.77 620.39 533.08 623.92 C 545.38 627.46 556.71 636.30 569.00 640.00
M 529.00 702.00 
C 517.66 696.29 510.00 689.56 498.77 683.23 C 487.54 676.90 480.76 670.04 468.75 663.25 C 456.75 656.45 455.77 638.85 457.00 625.00
C 468.36 631.04 475.27 638.20 487.25 643.75 C 499.22 649.31 507.34 654.86 520.23 660.77 C 533.12 666.69 525.83 689.33 529.00 702.00
M 576.00 642.00 
C 576.09 655.15 577.67 675.93 563.77 680.77 C 549.87 685.61 544.62 694.14 532.00 700.00
C 533.09 685.64 526.47 664.53 541.08 659.08 C 555.68 653.62 561.60 646.04 576.00 642.00 Z"/>
</g>
<g fill="#B7C5D5" fill-opacity="1.00" stroke="None">
<path d="
M 645.00 88.00 
C 645.83 90.74 645.24 92.51 645.00 95.00
C 645.09 100.09 645.19 105.24 644.00 110.00
C 650.23 102.67 654.15 90.77 650.98 81.02 C 647.80 71.28 644.63 65.31 638.25 56.75 C 631.86 48.20 621.34 46.22 611.00 46.00 C 600.66 45.78 588.90 53.46 598.92 59.08 C 608.93 64.71 615.05 67.13 623.31 72.69 C 631.56 78.26 642.13 78.55 645.00 88.00 Z"/>
</g>
<g fill="#72CDFB" fill-opacity="1.00" stroke="None">
<path d="
M 636.00 86.00 
C 619.04 76.28 604.30 68.12 586.70 58.30 C 569.09 48.49 541.84 57.28 523.00 60.00
C 534.45 66.33 543.54 74.75 555.31 80.70 C 567.07 86.64 577.54 97.67 591.78 93.78 C 606.02 89.88 621.63 89.65 636.00 86.00 Z"/>
</g>
<g fill="#29B4FB" fill-opacity="1.00" stroke="None">
<path d="
M 578.00 100.00 
C 559.17 86.25 538.56 75.60 519.00 63.00
C 515.22 73.49 517.80 84.14 515.00 95.00 C 512.19 105.86 517.54 112.94 526.92 117.08 C 536.31 121.21 541.05 126.22 549.77 130.23 C 558.49 134.24 564.20 139.92 573.00 143.00
C 572.76 128.19 574.57 113.86 578.00 100.00 Z"/>
</g>
<g fill="#5E666E" fill-opacity="1.00" stroke="None">
<path d="
M 645.00 95.00 
C 645.24 92.51 645.83 90.74 645.00 88.00
C 645.34 90.21 645.00 92.76 645.00 95.00 Z"/>
</g>
<g fill="#0F5882" fill-opacity="1.00" stroke="None">
<path d="
M 642.00 89.00 
C 621.76 93.05 601.17 95.72 581.00 100.00
C 580.16 115.47 577.72 130.52 577.00 146.00
C 587.54 143.04 600.73 142.20 610.98 138.98 C 621.22 135.75 635.48 135.98 637.02 124.02 C 638.57 112.07 642.85 101.49 642.00 89.00
M 638.00 92.00 
C 641.63 94.28 635.89 104.31 635.07 109.07 C 634.26 113.83 635.82 122.60 632.67 128.67 C 629.52 134.74 621.28 129.10 625.00 123.00 C 628.72 116.90 627.24 109.14 628.00 104.00 C 628.76 98.86 631.75 88.08 638.00 92.00
M 626.00 95.00 
C 624.89 101.80 624.06 110.32 623.00 117.00 C 621.94 123.68 621.88 134.59 613.00 133.00
C 612.70 125.60 614.82 117.42 615.33 110.33 C 615.84 103.24 616.53 93.02 626.00 95.00
M 614.00 97.00 
C 611.77 103.82 612.68 113.21 611.01 120.01 C 609.34 126.80 611.82 137.62 602.00 137.00
C 602.16 129.55 603.73 119.12 604.00 112.00 C 604.27 104.88 605.92 94.65 614.00 97.00
M 603.00 100.00 
C 601.83 106.49 600.96 114.59 600.00 121.00 C 599.05 127.42 600.11 138.17 591.00 137.00
C 591.26 130.10 592.59 122.29 593.78 115.78 C 594.97 109.27 593.50 98.44 603.00 100.00
M 580.00 141.00 
C 582.40 135.78 580.02 127.13 582.00 122.00 C 583.98 116.87 580.48 107.53 584.78 103.78 C 589.07 100.03 595.07 99.77 591.22 109.22 C 587.38 118.68 592.96 139.31 580.00 141.00 Z"/>
</g>
<g fill="#04426C" fill-opacity="1.00" stroke="None">
<path d="
M 638.00 92.00 
C 631.75 88.08 628.76 98.86 628.00 104.00 C 627.24 109.14 628.72 116.90 625.00 123.00 C 621.28 129.10 629.52 134.74 632.67 128.67 C 635.82 122.60 634.26 113.83 635.07 109.07 C 635.89 104.31 641.63 94.28 638.00 92.00
M 636.00 95.00 
C 634.46 100.48 634.44 107.30 632.67 112.67 C 630.90 118.04 633.71 128.04 627.00 129.00
C 627.42 123.16 628.83 116.57 629.99 110.99 C 631.16 105.41 629.31 95.26 636.00 95.00 Z"/>
</g>
<g fill="#04436C" fill-opacity="1.00" stroke="None">
<path d="
M 626.00 95.00 
C 616.53 93.02 615.84 103.24 615.33 110.33 C 614.82 117.42 612.70 125.60 613.00 133.00
C 621.88 134.59 621.94 123.68 623.00 117.00 C 624.06 110.32 624.89 101.80 626.00 95.00
M 624.00 97.00 
C 620.79 108.37 622.13 122.12 616.00 132.00
C 614.91 126.96 616.42 119.31 617.78 113.78 C 619.13 108.25 616.00 96.57 624.00 97.00 Z"/>
</g>
<g fill="#0F5B86" fill-opacity="1.00" stroke="None">
<path d="
M 636.00 95.00 
C 629.31 95.26 631.16 105.41 629.99 110.99 C 628.83 116.57 627.42 123.16 627.00 129.00
C 633.71 128.04 630.90 118.04 632.67 112.67 C 634.44 107.30 634.46 100.48 636.00 95.00 Z"/>
</g>
<g fill="#04426B" fill-opacity="1.00" stroke="None">
<path d="
M 614.00 97.00 
C 605.92 94.65 604.27 104.88 604.00 112.00 C 603.73 119.12 602.16 129.55 602.00 137.00
C 611.82 137.62 609.34 126.80 611.01 120.01 C 612.68 113.21 611.77 103.82 614.00 97.00
M 603.00 135.00 
C 606.72 123.53 605.16 110.05 609.00 99.00
C 613.10 102.60 609.59 112.35 609.01 118.01 C 608.43 123.67 610.36 134.38 603.00 135.00 Z"/>
</g>
<g fill="#0F5B86" fill-opacity="1.00" stroke="None">
<path d="
M 624.00 97.00 
C 616.00 96.57 619.13 108.25 617.78 113.78 C 616.42 119.31 614.91 126.96 616.00 132.00
C 622.13 122.12 620.79 108.37 624.00 97.00 Z"/>
</g>
<g fill="#0F5B85" fill-opacity="1.00" stroke="None">
<path d="
M 603.00 135.00 
C 610.36 134.38 608.43 123.67 609.01 118.01 C 609.59 112.35 613.10 102.60 609.00 99.00
C 605.16 110.05 606.72 123.53 603.00 135.00 Z"/>
</g>
<g fill="#04426B" fill-opacity="1.00" stroke="None">
<path d="
M 603.00 100.00 
C 593.50 98.44 594.97 109.27 593.78 115.78 C 592.59 122.29 591.26 130.10 591.00 137.00
C 600.11 138.17 599.05 127.42 600.00 121.00 C 600.96 114.59 601.83 106.49 603.00 100.00
M 593.00 135.00 
C 595.15 123.84 593.74 109.93 600.00 101.00
C 600.92 105.72 598.58 112.50 598.00 118.00 C 597.43 123.51 598.86 133.59 593.00 135.00 Z"/>
</g>
<g fill="#05446D" fill-opacity="1.00" stroke="None">
<path d="
M 580.00 141.00 
C 592.96 139.31 587.38 118.68 591.22 109.22 C 595.07 99.77 589.07 100.03 584.78 103.78 C 580.48 107.53 583.98 116.87 582.00 122.00 C 580.02 127.13 582.40 135.78 580.00 141.00
M 590.00 104.00 
C 587.42 115.28 589.14 130.79 582.00 139.00
C 583.46 133.23 583.35 125.87 584.00 120.00 C 584.65 114.13 583.97 105.68 590.00 104.00 Z"/>
</g>
<g fill="#0F5A85" fill-opacity="1.00" stroke="None">
<path d="
M 593.00 135.00 
C 598.86 133.59 597.43 123.51 598.00 118.00 C 598.58 112.50 600.92 105.72 600.00 101.00
C 593.74 109.93 595.15 123.84 593.00 135.00 Z"/>
</g>
<g fill="#0F5B86" fill-opacity="1.00" stroke="None">
<path d="
M 590.00 104.00 
C 583.97 105.68 584.65 114.13 584.00 120.00 C 583.35 125.87 583.46 133.23 582.00 139.00
C 589.14 130.79 587.42 115.28 590.00 104.00 Z"/>
</g>
<g fill="#B7C6D5" fill-opacity="1.00" stroke="None">
<path d="
M 598.00 271.00 
C 600.03 272.49 605.27 258.96 605.00 256.00
C 597.14 243.06 586.66 234.34 576.77 222.23 C 566.88 210.12 559.14 200.27 550.31 186.69 C 541.47 173.12 552.19 153.44 564.00 145.00
C 553.24 138.86 542.26 132.04 531.23 140.23 C 520.20 148.42 514.34 154.36 511.98 166.98 C 509.61 179.59 510.82 197.16 523.92 201.08 C 537.03 205.00 543.70 212.41 554.25 218.75 C 564.81 225.08 571.38 232.79 579.25 241.75 C 587.11 250.71 593.95 260.02 598.00 271.00 Z"/>
</g>
<g fill="#60666B" fill-opacity="1.00" stroke="None">
<path d="
M 442.00 195.00 
C 447.06 194.81 453.73 194.01 458.00 194.00
C 452.62 193.50 446.68 194.33 442.00 195.00 Z"/>
</g>
<g fill="#B9C7D7" fill-opacity="1.00" stroke="None">
<path d="
M 442.00 195.00 
C 421.41 195.79 400.52 201.60 383.00 212.00
C 384.43 211.95 394.19 217.40 395.92 223.08 C 397.66 228.75 397.45 240.43 394.22 246.22 C 391.00 252.02 388.34 258.05 383.75 262.75 C 379.15 267.44 375.37 271.73 369.77 274.77 C 364.17 277.81 354.57 281.32 348.00 280.00 C 341.43 278.68 336.02 270.70 336.00 265.00
C 324.80 292.21 320.54 327.28 334.02 353.98 C 347.51 380.67 359.23 394.67 378.08 417.92 C 396.93 441.17 394.59 474.04 369.90 492.90 C 345.21 511.76 318.75 519.47 287.00 514.00
C 283.63 513.42 281.63 512.20 279.00 511.00
C 263.21 505.94 248.27 492.05 248.00 474.00 C 247.74 455.95 255.01 437.14 264.00 422.00
C 262.99 415.46 251.63 410.62 250.00 404.00
C 248.33 404.24 249.83 406.85 248.00 407.00
C 248.94 420.02 235.02 429.58 231.08 442.08 C 227.14 454.57 221.28 469.84 221.00 484.00
C 220.89 489.29 220.71 494.72 221.00 500.00
C 221.60 511.04 226.97 520.85 235.75 528.25 C 244.53 535.65 253.18 539.65 264.22 543.78 C 275.27 547.91 291.24 548.52 303.67 547.67 C 316.10 546.82 328.68 543.13 340.67 540.67 C 352.66 538.21 359.91 532.97 371.08 528.08 C 382.26 523.19 374.14 506.76 380.32 497.32 C 386.51 487.88 392.37 480.30 402.08 475.08 C 411.80 469.87 425.00 462.15 437.00 466.00
C 438.61 466.09 440.97 468.11 442.00 469.00
C 439.95 468.88 437.30 468.50 436.00 467.00
C 422.30 468.97 408.72 470.11 398.75 480.75 C 388.79 491.40 381.79 499.05 383.93 513.08 C 386.06 527.10 389.27 543.32 390.78 557.22 C 392.29 571.12 388.97 585.20 376.92 592.92 C 364.87 600.64 347.70 601.43 333.93 599.07 C 320.15 596.72 309.18 591.04 297.77 584.23 C 286.36 577.42 277.75 569.74 265.32 564.68 C 252.89 559.62 236.56 557.43 224.92 565.92 C 213.28 574.40 208.29 583.45 205.22 597.22 C 202.15 610.99 212.29 623.83 220.75 633.25 C 229.21 642.67 251.07 646.22 251.00 630.00 C 250.93 613.78 229.02 617.60 230.00 600.00 C 230.98 582.40 250.08 585.43 262.00 592.00
C 264.72 593.50 266.77 595.11 269.00 597.00
C 269.96 597.82 270.79 598.29 272.00 599.00
C 280.53 603.98 289.13 611.38 297.00 617.00
C 293.86 610.53 298.90 605.26 304.74 602.74 C 310.59 600.23 319.64 603.67 324.69 606.31 C 329.75 608.94 333.72 614.94 336.25 618.75 C 338.78 622.55 343.68 635.51 338.00 638.00
C 363.77 646.15 398.10 645.80 414.25 620.25 C 430.39 594.69 411.07 563.02 409.00 536.00
C 408.68 534.04 407.84 531.62 408.00 529.00
C 407.69 511.16 421.77 498.22 437.00 492.00
C 438.11 491.55 439.25 489.45 441.00 490.00
C 439.57 492.12 436.96 493.32 435.00 495.00
C 432.77 498.03 431.50 500.71 430.00 504.00
C 438.63 504.04 447.58 512.00 449.78 520.22 C 451.97 528.45 449.37 530.87 447.69 535.69 C 446.02 540.52 441.81 543.30 438.92 544.92 C 436.03 546.54 427.53 551.64 425.00 550.00
C 427.36 576.65 445.52 600.54 467.00 616.00
C 478.36 614.26 491.92 603.37 503.98 606.02 C 516.03 608.68 525.70 613.86 536.77 619.23 C 547.84 624.60 557.89 617.52 567.92 610.92 C 577.94 604.32 583.69 596.08 588.23 585.23 C 592.77 574.38 594.84 557.01 591.78 545.22 C 588.71 533.44 582.68 524.23 574.25 515.75 C 565.81 507.28 556.58 502.57 546.22 497.78 C 535.87 492.99 518.15 488.98 507.23 494.23 C 496.31 499.48 489.13 512.00 498.75 522.25 C 508.37 532.50 524.92 526.68 519.00 510.00
C 517.32 509.30 515.83 507.49 515.00 506.00
C 517.52 506.56 521.30 504.81 523.00 507.00
C 557.85 514.22 577.69 556.52 550.75 581.75 C 523.81 606.99 482.20 601.97 464.00 571.00
C 459.54 569.77 451.78 576.10 446.78 571.22 C 441.77 566.34 441.35 561.47 443.33 555.33 C 445.30 549.19 449.95 546.58 456.00 546.00
C 456.52 543.81 454.86 540.38 457.00 539.00
C 456.55 522.37 469.41 509.69 470.00 494.00
C 470.93 510.45 474.15 528.57 485.25 541.75 C 496.35 554.93 511.45 559.38 527.00 563.00
C 525.24 559.58 531.74 553.18 530.00 549.00 C 528.25 544.81 532.05 536.16 529.67 532.33 C 527.29 528.50 527.32 522.52 526.00 520.00
C 525.37 518.54 523.77 516.79 522.00 517.00
C 523.21 528.68 510.86 532.82 502.08 527.92 C 493.30 523.02 490.43 515.40 492.02 506.03 C 493.62 496.65 505.68 493.94 501.00 485.00
C 503.21 485.76 504.03 488.15 505.00 490.00
C 525.06 487.10 538.86 469.14 553.00 455.00
C 547.45 455.91 538.75 450.61 532.00 452.00 C 525.25 453.39 516.21 451.02 510.33 454.33 C 504.45 457.63 499.27 458.54 495.00 464.00
C 494.00 466.68 491.70 468.94 492.00 472.00
C 498.02 431.94 533.82 415.86 562.25 388.25 C 590.68 360.64 604.60 312.79 589.99 275.01 C 575.38 237.22 540.98 219.43 507.00 203.00
C 502.83 201.95 498.73 200.13 495.00 199.00
C 482.90 196.54 470.40 195.16 458.00 194.00
C 453.73 194.01 447.06 194.81 442.00 195.00
M 443.00 205.00 
C 454.20 207.32 455.98 222.68 447.25 229.25 C 438.52 235.82 430.38 242.88 418.33 240.67 C 406.28 238.46 406.85 224.92 414.25 217.25 C 421.65 209.58 430.87 202.49 443.00 205.00
M 406.00 379.00 
C 406.44 378.04 408.03 377.45 409.00 377.00
C 426.76 368.70 447.02 382.62 444.67 401.67 C 442.32 420.72 420.88 431.34 403.78 422.22 C 386.68 413.11 391.83 388.04 406.00 379.00
M 478.00 382.00 
C 496.52 384.65 504.70 409.16 492.75 422.75 C 480.80 436.34 454.99 437.78 448.03 418.97 C 441.06 400.17 458.10 379.16 478.00 382.00 Z"/>
</g>
<g fill="#63686C" fill-opacity="1.00" stroke="None">
<path d="
M 507.00 203.00 
C 502.97 201.05 499.77 199.97 495.00 199.00
C 498.73 200.13 502.83 201.95 507.00 203.00 Z"/>
</g>
<g fill="#9CB4CE" fill-opacity="1.00" stroke="None">
<path d="
M 443.00 205.00 
C 430.87 202.49 421.65 209.58 414.25 217.25 C 406.85 224.92 406.28 238.46 418.33 240.67 C 430.38 242.88 438.52 235.82 447.25 229.25 C 455.98 222.68 454.20 207.32 443.00 205.00 Z"/>
</g>
<g fill="#9BB2CD" fill-opacity="1.00" stroke="None">
<path d="
M 336.00 265.00 
C 336.02 270.70 341.43 278.68 348.00 280.00 C 354.57 281.32 364.17 277.81 369.77 274.77 C 375.37 271.73 379.15 267.44 383.75 262.75 C 388.34 258.05 391.00 252.02 394.22 246.22 C 397.45 240.43 397.66 228.75 395.92 223.08 C 394.19 217.40 384.43 211.95 383.00 212.00
C 362.21 224.35 345.16 242.74 336.00 265.00 Z"/>
</g>
<g fill="#8797A7" fill-opacity="1.00" stroke="None">
<path d="
M 598.00 271.00 
C 613.29 312.41 601.44 355.86 575.75 387.75 C 550.06 419.64 514.82 428.04 495.00 464.00
C 499.27 458.54 504.45 457.63 510.33 454.33 C 516.21 451.02 525.25 453.39 532.00 452.00 C 538.75 450.61 547.45 455.91 553.00 455.00
C 571.02 436.98 586.18 422.96 601.23 402.23 C 616.28 381.50 628.45 358.10 630.00 331.00 C 631.55 303.90 620.39 277.33 605.00 256.00
C 605.27 258.96 600.03 272.49 598.00 271.00 Z"/>
</g>
<g fill="#72CDFA" fill-opacity="1.00" stroke="None">
<path d="
M 302.00 307.00 
C 287.34 303.56 271.77 291.43 256.02 296.02 C 240.28 300.62 226.42 304.58 212.00 311.00
C 222.19 316.32 231.72 318.88 241.31 325.69 C 250.89 332.51 261.76 325.11 271.78 320.78 C 281.79 316.45 293.20 313.25 302.00 307.00 Z"/>
</g>
<g fill="#29B4FA" fill-opacity="1.00" stroke="None">
<path d="
M 304.00 311.00 
C 296.65 312.94 290.45 316.79 283.23 319.23 C 276.01 321.67 271.75 325.97 264.02 328.02 C 256.29 330.08 247.78 332.70 250.00 343.00 C 252.22 353.30 248.34 360.95 250.00 371.00
C 258.65 366.67 269.04 363.51 276.92 357.92 C 284.81 352.34 295.16 351.16 301.75 343.75 C 308.34 336.34 300.66 320.37 304.00 311.00 Z"/>
</g>
<g fill="#0B517B" fill-opacity="1.00" stroke="None">
<path d="
M 247.00 372.00 
C 247.11 361.58 246.46 349.96 248.00 340.00 C 249.54 330.04 237.72 328.90 231.08 324.92 C 224.43 320.95 216.41 318.21 210.00 314.00
C 212.07 326.02 207.61 346.61 217.77 354.23 C 227.93 361.85 237.40 363.97 247.00 372.00 Z"/>
</g>
<g fill="#B6C5D4" fill-opacity="1.00" stroke="None">
<path d="
M 223.00 371.00 
C 221.38 369.38 218.68 361.78 216.00 359.00
C 201.77 351.18 208.27 331.63 206.00 318.00
C 192.82 323.32 192.80 338.90 195.07 351.93 C 197.34 364.95 212.42 367.92 223.00 371.00 Z"/>
</g>
<g fill="#8696A6" fill-opacity="1.00" stroke="None">
<path d="
M 223.00 371.00 
C 228.67 372.65 237.53 377.89 241.75 382.25 C 245.98 386.61 252.72 398.89 248.00 404.00
C 247.76 404.26 247.06 404.65 247.00 405.00
C 247.11 404.45 247.99 406.88 248.00 407.00
C 249.83 406.85 248.33 404.24 250.00 404.00
C 251.63 410.62 262.99 415.46 264.00 422.00
C 268.30 414.75 277.13 404.18 279.01 396.01 C 280.88 387.84 279.22 368.12 270.03 369.03 C 260.83 369.93 250.28 381.26 241.08 373.92 C 231.89 366.58 225.59 364.94 216.00 359.00
C 218.68 361.78 221.38 369.38 223.00 371.00 Z"/>
</g>
<g fill="#0C0D0D" fill-opacity="1.00" stroke="None">
<path d="
M 409.00 377.00 
C 408.78 377.13 409.00 378.00 409.00 378.00
C 411.73 377.80 414.09 376.56 417.00 377.00
C 410.82 387.40 432.85 391.28 430.00 379.00
C 447.59 390.71 442.73 416.00 421.99 420.99 C 401.25 425.98 385.51 401.05 401.00 384.00
C 401.74 383.05 402.06 382.70 403.00 382.00
C 403.97 381.28 405.01 380.61 406.00 380.00
C 406.25 379.73 406.00 379.00 406.00 379.00
C 391.83 388.04 386.68 413.11 403.78 422.22 C 420.88 431.34 442.32 420.72 444.67 401.67 C 447.02 382.62 426.76 368.70 409.00 377.00 Z"/>
</g>
<g fill="#444649" fill-opacity="1.00" stroke="None">
<path d="
M 406.00 379.00 
C 406.00 379.00 406.25 379.73 406.00 380.00
C 407.11 379.31 408.43 379.23 409.00 378.00
C 409.00 378.00 408.78 377.13 409.00 377.00
C 408.03 377.45 406.44 378.04 406.00 379.00 Z"/>
</g>
<g fill="#FAFAFA" fill-opacity="1.00" stroke="None">
<path d="
M 409.00 378.00 
C 408.43 379.23 407.11 379.31 406.00 380.00
C 405.01 380.61 403.97 381.28 403.00 382.00
C 402.37 382.61 401.60 383.42 401.00 384.00
C 385.51 401.05 401.25 425.98 421.99 420.99 C 442.73 416.00 447.59 390.71 430.00 379.00
C 432.85 391.28 410.82 387.40 417.00 377.00
C 414.09 376.56 411.73 377.80 409.00 378.00 Z"/>
</g>
<g fill="#787877" fill-opacity="1.00" stroke="None">
<path d="
M 401.00 384.00 
C 401.60 383.42 402.37 382.61 403.00 382.00
C 402.06 382.70 401.74 383.05 401.00 384.00 Z"/>
</g>
<g fill="#0C0D0D" fill-opacity="1.00" stroke="None">
<path d="
M 478.00 382.00 
C 458.10 379.16 441.06 400.17 448.03 418.97 C 454.99 437.78 480.80 436.34 492.75 422.75 C 504.70 409.16 496.52 384.65 478.00 382.00
M 474.00 429.00 
C 471.39 429.47 469.53 429.41 467.00 429.00
C 440.07 427.66 445.05 383.15 471.00 385.00
C 464.30 395.16 484.33 398.86 485.00 388.00
C 502.62 398.64 494.07 428.50 474.00 429.00 Z"/>
</g>
<g fill="#FAFBFA" fill-opacity="1.00" stroke="None">
<path d="
M 467.00 429.00 
C 469.28 429.11 471.72 429.14 474.00 429.00
C 494.07 428.50 502.62 398.64 485.00 388.00
C 484.33 398.86 464.30 395.16 471.00 385.00
C 445.05 383.15 440.07 427.66 467.00 429.00 Z"/>
</g>
<g fill="#0C0C0C" fill-opacity="1.00" stroke="None">
<path d="
M 381.00 553.00 
C 381.23 554.30 381.92 556.11 382.00 558.00
C 382.54 571.58 378.55 584.87 365.07 589.07 C 351.59 593.27 336.55 592.56 324.23 587.77 C 311.91 582.98 303.54 577.97 292.75 571.25 C 281.95 564.54 273.27 558.52 261.02 554.98 C 248.78 551.43 232.58 553.12 222.23 560.23 C 211.88 567.34 204.95 575.27 200.93 586.93 C 196.90 598.59 197.95 614.37 205.08 624.92 C 212.22 635.46 218.52 642.59 231.00 647.00 C 243.47 651.41 260.39 643.48 257.98 628.03 C 255.56 612.57 238.75 618.61 235.33 602.67 C 231.91 586.73 251.27 587.69 262.00 593.00
C 261.75 592.72 262.00 592.00 262.00 592.00
C 250.08 585.43 230.98 582.40 230.00 600.00 C 229.02 617.60 250.93 613.78 251.00 630.00 C 251.07 646.22 229.21 642.67 220.75 633.25 C 212.29 623.83 202.15 610.99 205.22 597.22 C 208.29 583.45 213.28 574.40 224.92 565.92 C 236.56 557.43 252.89 559.62 265.32 564.68 C 277.75 569.74 286.36 577.42 297.77 584.23 C 309.18 591.04 320.15 596.72 333.93 599.07 C 347.70 601.43 364.87 600.64 376.92 592.92 C 388.97 585.20 392.29 571.12 390.78 557.22 C 389.27 543.32 386.06 527.10 383.93 513.08 C 381.79 499.05 388.79 491.40 398.75 480.75 C 408.72 470.11 422.30 468.97 436.00 467.00
C 436.35 466.95 436.85 465.99 437.00 466.00
C 425.00 462.15 411.80 469.87 402.08 475.08 C 392.37 480.30 386.51 487.88 380.32 497.32 C 374.14 506.76 382.26 523.19 371.08 528.08 C 359.91 532.97 352.66 538.21 340.67 540.67 C 328.68 543.13 316.10 546.82 303.67 547.67 C 291.24 548.52 275.27 547.91 264.22 543.78 C 253.18 539.65 244.53 535.65 235.75 528.25 C 226.97 520.85 221.60 511.04 221.00 500.00
C 220.16 494.83 220.39 489.07 221.00 484.00
C 221.28 469.84 227.14 454.57 231.08 442.08 C 235.02 429.58 248.94 420.02 248.00 407.00
C 247.99 406.88 247.11 404.45 247.00 405.00
C 238.58 427.68 222.82 444.59 216.98 468.98 C 211.14 493.36 212.80 523.82 235.30 538.70 C 257.81 553.57 281.83 558.15 307.99 555.99 C 334.15 553.83 355.88 542.72 379.00 533.00
C 379.59 539.74 380.52 546.24 381.00 553.00 Z"/>
</g>
<g fill="#B7C6D5" fill-opacity="1.00" stroke="None">
<path d="
M 598.00 571.00 
C 630.17 565.72 671.37 557.84 691.70 528.70 C 712.02 499.55 706.70 453.28 683.25 427.75 C 659.79 402.23 603.59 404.32 595.00 442.00
C 613.03 438.29 633.54 426.12 650.77 436.23 C 668.00 446.34 676.76 461.69 677.00 481.00 C 677.24 500.31 668.23 517.20 652.75 528.75 C 637.27 540.30 615.97 543.03 597.00 542.00
C 599.67 550.95 599.87 561.74 598.00 571.00 Z"/>
</g>
<g fill="#7C7C7C" fill-opacity="1.00" stroke="None">
<path d="
M 474.00 429.00 
C 471.72 429.14 469.28 429.11 467.00 429.00
C 469.53 429.41 471.39 429.47 474.00 429.00 Z"/>
</g>
<g fill="#72CDFA" fill-opacity="1.00" stroke="None">
<path d="
M 664.00 455.00 
C 657.70 443.31 644.07 431.34 630.07 436.07 C 616.08 440.80 599.63 443.99 585.00 447.00
C 596.66 455.36 610.10 456.03 622.98 463.02 C 635.85 470.02 651.09 455.48 664.00 455.00 Z"/>
</g>
<g fill="#6ABFE4" fill-opacity="1.00" stroke="None">
<path d="
M 705.00 439.00 
C 704.83 435.60 700.03 436.91 698.00 435.00
C 697.95 439.05 701.68 441.11 705.00 439.00 Z"/>
</g>
<g fill="#27ABEB" fill-opacity="1.00" stroke="None">
<path d="
M 708.00 440.00 
C 706.02 440.76 704.33 442.44 702.00 442.00
C 703.19 446.50 705.98 450.47 707.00 455.00
C 709.31 450.99 707.35 444.83 708.00 440.00 Z"/>
</g>
<g fill="#0B527C" fill-opacity="1.00" stroke="None">
<path d="
M 632.00 468.00 
C 615.36 464.36 599.37 458.44 584.00 451.00
C 583.85 462.87 585.26 474.36 586.00 486.00
C 600.37 494.99 616.55 500.42 632.00 507.00
C 632.00 494.00 632.00 481.00 632.00 468.00 Z"/>
</g>
<g fill="#29B3F9" fill-opacity="1.00" stroke="None">
<path d="
M 671.00 483.00 
C 671.16 480.08 671.20 476.92 671.00 474.00
C 670.74 467.90 668.71 462.36 666.00 457.00
C 655.51 461.18 644.98 465.45 634.00 468.00
C 634.00 481.00 634.00 494.00 634.00 507.00
C 646.27 505.01 656.78 497.17 669.00 495.00
C 669.72 490.86 670.77 487.27 671.00 483.00 Z"/>
</g>
<g fill="#707983" fill-opacity="1.00" stroke="None">
<path d="
M 436.00 467.00 
C 437.30 468.50 439.95 468.88 442.00 469.00
C 440.97 468.11 438.61 466.09 437.00 466.00
C 436.85 465.99 436.35 466.95 436.00 467.00 Z"/>
</g>
<g fill="#1B5F83" fill-opacity="1.00" stroke="None">
<path d="
M 671.00 483.00 
C 671.51 479.89 671.57 477.19 671.00 474.00
C 671.20 476.92 671.16 480.08 671.00 483.00 Z"/>
</g>
<g fill="#52585F" fill-opacity="1.00" stroke="None">
<path d="
M 221.00 500.00 
C 220.71 494.72 220.89 489.29 221.00 484.00
C 220.39 489.07 220.16 494.83 221.00 500.00 Z"/>
</g>
<g fill="#8B97A3" fill-opacity="1.00" stroke="None">
<path d="
M 437.00 492.00 
C 436.29 492.69 435.63 494.14 435.00 495.00
C 436.96 493.32 439.57 492.12 441.00 490.00
C 439.25 489.45 438.11 491.55 437.00 492.00 Z"/>
</g>
<g fill="#E5E5E5" fill-opacity="1.00" stroke="None">
<path d="
M 432.00 496.00 
C 415.53 503.19 409.50 523.32 414.00 540.00
C 417.92 525.42 421.44 508.63 432.00 496.00 Z"/>
</g>
<g fill="#9CB4CE" fill-opacity="1.00" stroke="None">
<path d="
M 424.00 530.00 
C 424.00 534.32 423.84 538.68 424.00 543.00
C 424.09 545.47 424.80 547.82 425.00 550.00
C 427.53 551.64 436.03 546.54 438.92 544.92 C 441.81 543.30 446.02 540.52 447.69 535.69 C 449.37 530.87 451.97 528.45 449.78 520.22 C 447.58 512.00 438.63 504.04 430.00 504.00
C 426.27 512.17 424.00 520.38 424.00 530.00 Z"/>
</g>
<g fill="#44474A" fill-opacity="1.00" stroke="None">
<path d="
M 519.00 510.00 
C 519.00 510.00 519.19 509.42 519.00 509.00
C 517.46 505.57 521.09 507.56 523.00 508.00
C 523.00 508.00 523.25 507.26 523.00 507.00
C 521.30 504.81 517.52 506.56 515.00 506.00
C 515.83 507.49 517.32 509.30 519.00 510.00 Z"/>
</g>
<g fill="#E2E2E2" fill-opacity="1.00" stroke="None">
<path d="
M 519.00 509.00 
C 528.09 515.61 537.34 522.41 548.00 526.00
C 543.08 516.75 532.66 510.78 523.00 508.00
C 521.09 507.56 517.46 505.57 519.00 509.00 Z"/>
</g>
<g fill="#F2F2F2" fill-opacity="1.00" stroke="None">
<path d="
M 471.00 571.00 
C 473.41 573.77 477.25 577.69 480.00 580.00
C 499.24 596.36 528.42 591.00 546.00 575.00
C 527.65 572.46 508.38 569.82 491.75 558.25 C 475.12 546.69 470.84 526.18 468.00 508.00
C 456.68 527.67 457.32 552.60 471.00 571.00 Z"/>
</g>
<g fill="#595E64" fill-opacity="1.00" stroke="None">
<path d="
M 287.00 514.00 
C 284.72 513.34 281.57 511.82 279.00 511.00
C 281.63 512.20 283.63 513.42 287.00 514.00 Z"/>
</g>
<g fill="#8797A8" fill-opacity="1.00" stroke="None">
<path d="
M 527.00 563.00 
C 530.81 563.89 534.47 564.91 539.00 565.00
C 541.66 565.05 546.19 566.07 548.00 566.00
C 558.07 564.63 560.19 541.98 553.92 535.08 C 547.66 528.17 534.52 526.32 526.00 520.00
C 527.32 522.52 527.29 528.50 529.67 532.33 C 532.05 536.16 528.25 544.81 530.00 549.00 C 531.74 553.18 525.24 559.58 527.00 563.00 Z"/>
</g>
<g fill="#626A72" fill-opacity="1.00" stroke="None">
<path d="
M 409.00 536.00 
C 408.84 533.96 408.02 530.37 408.00 529.00
C 407.84 531.62 408.68 534.04 409.00 536.00 Z"/>
</g>
<g fill="#576472" fill-opacity="1.00" stroke="None">
<path d="
M 424.00 543.00 
C 423.84 538.68 424.00 534.32 424.00 530.00
C 423.60 534.10 423.40 538.78 424.00 543.00 Z"/>
</g>
<g fill="#737373" fill-opacity="1.00" stroke="None">
<path d="
M 606.00 536.00 
C 608.19 535.94 610.42 535.25 612.00 535.00
C 609.98 535.13 607.42 535.84 606.00 536.00 Z"/>
</g>
<g fill="#9CB3CD" fill-opacity="1.00" stroke="None">
<path d="
M 464.00 571.00 
C 458.48 561.61 456.23 550.28 457.00 539.00
C 454.86 540.38 456.52 543.81 456.00 546.00
C 449.95 546.58 445.30 549.19 443.33 555.33 C 441.35 561.47 441.77 566.34 446.78 571.22 C 451.78 576.10 459.54 569.77 464.00 571.00 Z"/>
</g>
<g fill="#7A7A7A" fill-opacity="1.00" stroke="None">
<path d="
M 382.00 558.00 
C 381.92 556.11 381.23 554.30 381.00 553.00
C 381.12 554.75 381.84 556.84 382.00 558.00 Z"/>
</g>
<g fill="#505962" fill-opacity="1.00" stroke="None">
<path d="
M 548.00 566.00 
C 546.19 566.07 541.66 565.05 539.00 565.00
C 541.44 565.29 544.79 566.44 548.00 566.00 Z"/>
</g>
<g fill="#787878" fill-opacity="1.00" stroke="None">
<path d="
M 480.00 580.00 
C 477.25 577.69 473.41 573.77 471.00 571.00
C 473.42 574.25 476.64 577.60 480.00 580.00 Z"/>
</g>
<g fill="#585C61" fill-opacity="1.00" stroke="None">
<path d="
M 262.00 593.00 
C 263.76 594.97 266.70 595.53 269.00 597.00
C 266.77 595.11 264.72 593.50 262.00 592.00
C 262.00 592.00 261.75 592.72 262.00 593.00 Z"/>
</g>
<g fill="#9CB3CE" fill-opacity="1.00" stroke="None">
<path d="
M 297.00 617.00 
C 309.99 626.28 322.64 633.14 338.00 638.00
C 343.68 635.51 338.78 622.55 336.25 618.75 C 333.72 614.94 329.75 608.94 324.69 606.31 C 319.64 603.67 310.59 600.23 304.74 602.74 C 298.90 605.26 293.86 610.53 297.00 617.00 Z"/>
</g>
<g fill="#72CDFB" fill-opacity="1.00" stroke="None">
<path d="
M 569.00 640.00 
C 556.71 636.30 545.38 627.46 533.08 623.92 C 520.77 620.39 510.79 607.12 498.07 609.07 C 485.35 611.03 471.73 619.15 459.00 622.00
C 465.07 627.59 472.58 630.98 479.92 635.08 C 487.27 639.17 495.37 642.36 502.75 646.25 C 510.14 650.13 517.52 653.75 524.77 658.23 C 532.02 662.71 539.37 655.36 546.75 651.75 C 554.14 648.14 562.04 643.77 569.00 640.00 Z"/>
</g>
<g fill="#29B4FA" fill-opacity="1.00" stroke="None">
<path d="
M 529.00 702.00 
C 525.83 689.33 533.12 666.69 520.23 660.77 C 507.34 654.86 499.22 649.31 487.25 643.75 C 475.27 638.20 468.36 631.04 457.00 625.00
C 455.77 638.85 456.75 656.45 468.75 663.25 C 480.76 670.04 487.54 676.90 498.77 683.23 C 510.00 689.56 517.66 696.29 529.00 702.00 Z"/>
</g>
<g fill="#767676" fill-opacity="1.00" stroke="None">
<path d="
M 411.00 637.00 
C 413.32 635.27 415.02 633.12 417.00 631.00
C 415.06 632.78 412.99 635.27 411.00 637.00 Z"/>
</g>
<g fill="#0B527B" fill-opacity="1.00" stroke="None">
<path d="
M 576.00 642.00 
C 561.60 646.04 555.68 653.62 541.08 659.08 C 526.47 664.53 533.09 685.64 532.00 700.00
C 544.62 694.14 549.87 685.61 563.77 680.77 C 577.67 675.93 576.09 655.15 576.00 642.00 Z"/>
</g>
<g fill="#7F7F7F" fill-opacity="1.00" stroke="None">
<path d="
M 367.00 651.00 
C 365.36 650.87 363.65 651.00 362.00 651.00
C 363.26 651.11 365.76 651.04 367.00 651.00 Z"/>
</g>
<g fill="#7F7F7F" fill-opacity="1.00" stroke="None">
<path d="
M 580.00 656.00 
C 580.17 654.82 580.93 652.84 581.00 651.00
C 580.83 652.19 580.07 654.16 580.00 656.00 Z"/>
</g>
<g fill="#777777" fill-opacity="1.00" stroke="None">
<path d="
M 579.00 672.00 
C 579.33 670.34 579.94 668.30 580.00 666.00
C 579.85 667.31 579.20 670.06 579.00 672.00 Z"/>
</g>
</svg>